<svg width="19" height="9" viewBox="0 0 19 9" fill="none" xmlns="http://www.w3.org/2000/svg">
<path d="M3.27539 8.6484H2.18555V1.4238L0 2.2265V1.2422L3.10547 0.0760956H3.27539V8.6484ZM12.041 8.6484H6.45118V7.8691L9.40431 4.5879C9.84181 4.0918 10.1426 3.6894 10.3066 3.3808C10.4746 3.0683 10.5586 2.7461 10.5586 2.414C10.5586 1.9687 10.4238 1.6035 10.1543 1.3183C9.88481 1.0332 9.52541 0.890602 9.07621 0.890602C8.53711 0.890602 8.11719 1.0449 7.81641 1.3535C7.51953 1.6582 7.3711 2.0839 7.3711 2.6308H6.28711C6.28711 1.8457 6.53907 1.2109 7.04297 0.726501C7.55079 0.242201 8.22852 0 9.07621 0C9.86911 0 10.4961 0.2089 10.957 0.6269C11.418 1.041 11.6484 1.5937 11.6484 2.2851C11.6484 3.125 11.1133 4.125 10.043 5.2851L7.75782 7.7636H12.041V8.6484ZM14.7656 3.8554H15.5801C16.0918 3.8476 16.4941 3.7129 16.7871 3.4511C17.0801 3.1894 17.2266 2.8359 17.2266 2.3906C17.2266 1.3906 16.7285 0.890602 15.7324 0.890602C15.2637 0.890602 14.8887 1.0254 14.6074 1.2949C14.3301 1.5605 14.1914 1.914 14.1914 2.3554H13.1074C13.1074 1.6796 13.3535 1.1191 13.8457 0.673798C14.3418 0.224598 14.9707 0 15.7324 0C16.5371 0 17.168 0.212896 17.625 0.638596C18.082 1.0644 18.3105 1.6562 18.3105 2.414C18.3105 2.7851 18.1894 3.1445 17.9473 3.4922C17.709 3.8398 17.3828 4.0996 16.9687 4.2714C17.4375 4.4199 17.7988 4.666 18.0527 5.0097C18.3105 5.3535 18.4394 5.7734 18.4394 6.2695C18.4394 7.0351 18.1894 7.6425 17.6894 8.0918C17.1894 8.541 16.5391 8.7656 15.7383 8.7656C14.9375 8.7656 14.2851 8.5488 13.7812 8.1152C13.2812 7.6816 13.0312 7.1093 13.0312 6.3984H14.1211C14.1211 6.8476 14.2676 7.207 14.5605 7.4765C14.8535 7.7461 15.2461 7.8808 15.7383 7.8808C16.2617 7.8808 16.6621 7.7441 16.9394 7.4707C17.2168 7.1972 17.3555 6.8046 17.3555 6.2929C17.3555 5.7968 17.2031 5.416 16.8984 5.1504C16.5937 4.8847 16.1543 4.748 15.5801 4.7402H14.7656V3.8554Z" fill="black"/>
</svg>
