<svg width="60" height="60" viewBox="0 0 60 60" fill="none" xmlns="http://www.w3.org/2000/svg">
<circle cx="30" cy="30" r="30" fill="#079E59"/>
<path d="M30 6.00038C29.9977 6.00038 29.9955 6 29.9932 6C19.964 6.04941 11.8039 14.3431 11.8039 24.375C11.8039 36.3254 27.2575 51.8041 29.0195 53.5193C29.2927 53.7844 29.6457 53.9176 30 53.9176C30.3543 53.9176 30.7073 53.7844 30.9805 53.5193C32.7425 51.8041 48.1961 36.3254 48.1961 24.375C48.1961 14.3453 40.0394 6.05353 30 6.00038V6.00038ZM30 37.0312C23.0101 37.0312 17.3438 31.3649 17.3438 24.375C17.3438 17.3851 23.0101 11.625 30 11.625C36.9899 11.625 42.6562 17.3851 42.6562 24.375C42.6562 31.3649 36.9899 37.0312 30 37.0312Z" fill="#FFCE00"/>
<path d="M30 6.00037V11.625C36.9899 11.625 42.6562 17.3851 42.6562 24.375C42.6562 31.3649 36.9899 37.0312 30 37.0312V53.9176C30.3543 53.9176 30.7073 53.7844 30.9805 53.5193C32.7425 51.8041 48.1961 36.3254 48.1961 24.375C48.1961 14.3453 40.0394 6.05352 30 6.00037Z" fill="#FFA300"/>
<path d="M38.4375 51.1875H30H21.5625C20.7852 51.1875 20.1562 51.8165 20.1562 52.5938C20.1562 53.371 20.7852 54 21.5625 54H30H38.4375C39.2148 54 39.8438 53.371 39.8438 52.5938C39.8438 51.8165 39.2148 51.1875 38.4375 51.1875Z" fill="#FFA300"/>
<path d="M39.8438 52.5938C39.8438 51.8165 39.2148 51.1875 38.4375 51.1875H30V54H38.4375C39.2148 54 39.8438 53.371 39.8438 52.5938Z" fill="#FFCE00"/>
<path d="M30 25.7812C26.604 25.7812 23.771 28.1888 23.1133 31.3901C24.8905 33.1349 27.3191 34.2188 30 34.2188C32.6809 34.2188 35.1095 33.1349 36.8867 31.3901C36.229 28.1888 33.396 25.7812 30 25.7812Z" fill="#57D9AA"/>
<path d="M30 25.7812V34.2188C32.6809 34.2188 35.1095 33.1349 36.8867 31.3901C36.229 28.1888 33.396 25.7812 30 25.7812Z" fill="#26BFBF"/>
<path d="M30 17.25C27.6737 17.25 25.7812 19.2362 25.7812 21.5625C25.7812 23.8888 27.6737 25.7812 30 25.7812C32.3263 25.7812 34.2188 23.8888 34.2188 21.5625C34.2188 19.2362 32.3263 17.25 30 17.25Z" fill="#C86E59"/>
<path d="M34.2188 21.5625C34.2188 19.2362 32.3263 17.25 30 17.25V25.7812C32.3263 25.7812 34.2188 23.8888 34.2188 21.5625Z" fill="#BB5D4C"/>
</svg>
