<svg id="Capa_1" enable-background="new 0 0 512 512" height="512" viewBox="0 0 512 512" width="512" xmlns="http://www.w3.org/2000/svg"><g><g><g><g><g><g><g><g><g><g><g><g><g><g><g><g><g><g><g><g><g><g><g><g><circle cx="256" cy="256" fill="#fe6a16" r="256"/></g></g></g></g></g></g></g></g></g></g></g></g></g></g></g></g></g></g></g></g></g></g></g><path d="m256.584 511.999c141.116-.315 255.416-114.809 255.416-255.999 0-13.814-1.094-27.373-3.201-40.594l-109.245-109.245-282.843 72.539 141.78 141.779-160.5 32.927z" fill="#f24500"/><g><path d="m221.303 142.852h69.394v308.85h-69.394z" fill="#a65d4e"/></g><g><path d="m256.121 142.853h34.576v308.85h-34.576z" fill="#784132"/></g><g><path d="m146.208 92.355c-26.63 0-48.217 21.587-48.217 48.217 0 26.629 21.588 48.217 48.217 48.217 14.639 0 27.754-6.524 36.597-16.824 8.843 10.299 21.958 16.824 36.597 16.824s27.754-6.525 36.597-16.824c8.843 10.299 21.958 16.824 36.597 16.824s27.754-6.524 36.597-16.824c8.843 10.299 21.958 16.824 36.597 16.824 26.63 0 48.217-21.588 48.217-48.217 0-26.63-21.588-48.217-48.217-48.217z" fill="#2cc47f"/></g><g><path d="m365.792 92.355h-109.671v79.743c8.841 10.22 21.902 16.691 36.477 16.691 14.639 0 27.754-6.524 36.597-16.824 8.843 10.299 21.958 16.824 36.597 16.824 26.63 0 48.217-21.588 48.217-48.217 0-26.63-21.588-48.217-48.217-48.217z" fill="#0d9b50"/></g><g><path d="m246.198 206.43c-21.561 0-39.041 17.479-39.041 39.04s17.479 39.04 39.041 39.04c11.853 0 22.472-5.283 29.632-13.622 7.16 8.339 17.779 13.622 29.632 13.622s22.472-5.283 29.632-13.622c7.16 8.339 17.779 13.622 29.632 13.622s22.472-5.283 29.632-13.622c7.16 8.339 17.779 13.622 29.632 13.622 21.561 0 39.041-17.479 39.041-39.04s-17.479-39.04-39.041-39.04z" fill="#2cc47f"/></g><g><path d="m423.99 206.43h-167.869v76.794c7.782-2.041 14.621-6.41 19.709-12.335 7.16 8.339 17.779 13.622 29.632 13.622s22.472-5.283 29.632-13.622c7.16 8.339 17.779 13.622 29.632 13.622s22.472-5.283 29.632-13.622c7.16 8.339 17.779 13.622 29.632 13.622 21.561 0 39.041-17.479 39.041-39.041s-17.48-39.04-39.041-39.04z" fill="#0d9b50"/></g><g><path d="m117.077 302.212c-16.104 0-29.159 13.055-29.159 29.159s13.055 29.159 29.159 29.159c8.853 0 16.784-3.946 22.132-10.174 5.348 6.228 13.279 10.174 22.132 10.174s16.784-3.946 22.132-10.174c5.348 6.228 13.279 10.174 22.132 10.174s16.784-3.946 22.132-10.174c5.348 6.228 13.279 10.174 22.132 10.174 16.104 0 29.159-13.055 29.159-29.159s-13.055-29.159-29.159-29.159z" fill="#2cc47f"/></g><g><path d="m279.027 331.371c0-13.957-9.809-25.617-22.907-28.48v56.96c13.099-2.863 22.907-14.523 22.907-28.48z" fill="#0d9b50"/></g></g></svg>