<svg width="60" height="60" viewBox="0 0 60 60" fill="none" xmlns="http://www.w3.org/2000/svg">
<path d="M60 30C60 32.9558 59.5724 35.8113 58.7755 38.5089C58.0055 41.1209 56.8886 43.5846 55.4778 45.8459C50.1819 54.3439 40.751 60 30 60C13.4312 60 0 46.5688 0 30C0 29.4072 0.0169372 28.8194 0.0512695 28.2353C0.617065 18.4813 5.84198 9.97833 13.5342 4.91776C18.2607 1.80862 23.9191 0 30 0C46.5688 0 60 13.4312 60 30Z" fill="#854F89"/>
<path d="M24.2646 22.5284V45.8459H32.2705L43.5649 52.3L40.8471 45.8459H51.9882C53.399 43.5846 54.5155 41.1209 55.2859 38.5089V22.5284H24.2646Z" fill="#713775"/>
<path d="M30.4088 4.91776V28.2353H22.4034L11.1086 34.6898L13.8258 28.2353H0.0512695C0.617065 18.4813 5.84198 9.97833 13.5342 4.91776H30.4088Z" fill="#713775"/>
<path d="M1.96655 4.91776H32.9878V28.2353H1.96655V4.91776Z" fill="#F74F4F"/>
<path d="M17.0183 26.7778L13.6871 34.6893L28.261 26.3617L17.0183 26.7778Z" fill="#F74F4F"/>
<path d="M14.632 16.5761C14.632 17.5264 13.862 18.2968 12.9117 18.2968C11.9618 18.2968 11.1914 17.5264 11.1914 16.5761C11.1914 15.6262 11.9618 14.8558 12.9117 14.8558C13.862 14.8558 14.632 15.6262 14.632 16.5761Z" fill="#3D4159"/>
<path d="M19.1977 16.5761C19.1977 17.5264 18.4277 18.2968 17.4774 18.2968C16.5271 18.2968 15.7571 17.5264 15.7571 16.5761C15.7571 15.6262 16.5271 14.8558 17.4774 14.8558C18.4277 14.8558 19.1977 15.6262 19.1977 16.5761Z" fill="#3D4159"/>
<path d="M23.7634 16.5761C23.7634 17.5264 22.993 18.2968 22.0431 18.2968C21.0928 18.2968 20.3224 17.5264 20.3224 16.5761C20.3224 15.6262 21.0928 14.8558 22.0431 14.8558C22.993 14.8558 23.7634 15.6262 23.7634 16.5761Z" fill="#3D4159"/>
<path d="M25.9286 22.5284H32.9878V28.2353H25.9286V22.5284Z" fill="#DD3033"/>
<path d="M58.7755 22.5284V38.5089C58.0055 41.1209 56.8886 43.5846 55.4778 45.8459H27.7542V22.5284H58.7755Z" fill="#FFE152"/>
<path d="M43.7233 44.3884L47.0544 52.3L32.4806 43.9723L43.7233 44.3884Z" fill="#FFE152"/>
<path d="M49.5506 34.1867C49.5506 35.137 48.7802 35.9074 47.8299 35.9074C46.88 35.9074 46.1096 35.137 46.1096 34.1867C46.1096 33.2368 46.88 32.4664 47.8299 32.4664C48.7802 32.4664 49.5506 33.2368 49.5506 34.1867Z" fill="#3D4159"/>
<path d="M44.9849 34.1867C44.9849 35.137 44.2145 35.9074 43.2646 35.9074C42.3143 35.9074 41.5439 35.137 41.5439 34.1867C41.5439 33.2368 42.3143 32.4664 43.2646 32.4664C44.2145 32.4664 44.9849 33.2368 44.9849 34.1867Z" fill="#3D4159"/>
<path d="M40.4192 34.1867C40.4192 35.137 39.6487 35.9074 38.6984 35.9074C37.7486 35.9074 36.9781 35.137 36.9781 34.1867C36.9781 33.2368 37.7486 32.4664 38.6984 32.4664C39.6487 32.4664 40.4192 33.2368 40.4192 34.1867Z" fill="#3D4159"/>
</svg>
