<svg id="Capa_1" enable-background="new 0 0 512 512" height="512" viewBox="0 0 512 512" width="512" xmlns="http://www.w3.org/2000/svg"><g><g><g><g><g><g><g><g><g><circle cx="256" cy="256" fill="#ffce00" r="256"/></g></g></g></g></g></g></g></g><path d="m512 256c0-16.715-1.602-33.056-4.661-48.877l-107.954-107.954-165.781-14.603-150.281 88.341 95.449 95.449-133.347 84.375 152.7 152.7c18.598 4.298 37.971 6.569 57.875 6.569 141.385 0 256-114.615 256-256z" fill="#ffa300"/><g><g><path d="m276.873 464.487h-30v-143.699c0-29.184 15.046-55.393 40.249-70.109s55.422-14.937 80.838-.594l-14.744 26.126c-16.024-9.043-35.078-8.904-50.967.375-15.89 9.278-25.376 25.802-25.376 44.202z" fill="#1dd882"/></g><path d="m268.059 109.818c0-15.059-7.764-28.582-20.768-36.176-13.005-7.593-28.598-7.708-41.712-.307l-58.607 33.075 14.745 26.126 58.606-33.075c5.367-3.029 10.068-.948 11.841.087 1.772 1.035 5.895 4.107 5.895 10.269v150.391c-4.008-3.549-8.412-6.745-13.181-9.53-25.203-14.716-55.423-14.938-80.838-.594l14.745 26.126c16.024-9.043 35.077-8.903 50.966.375 15.89 9.278 25.376 25.802 25.376 44.202v143.699h30v-143.673h2.932z" fill="#1dd882"/><path d="m287.122 250.679c-4.768 2.784-9.173 5.98-13.181 9.53v-150.39c0-6.161 4.123-9.234 5.895-10.269 1.773-1.035 6.476-3.115 11.84-.087l58.607 33.075 14.745-26.126-58.607-33.075c-13.114-7.401-28.708-7.286-41.712.307-3.192 1.864-6.272 4.114-8.795 6.628v384.216h9.213 11.746v-143.7c0-18.4 9.486-34.924 25.376-44.202 15.889-9.279 34.942-9.418 50.967-.375l14.744-26.126c-25.416-14.343-55.635-14.122-80.838.594z" fill="#06b26b"/></g><g><path d="m301.596 83.517c-5.443 28.634-3.592 53.234 28.016 75.467s73.956 28.723 99.065 13.923c5.443-28.634-14.978-66.296-46.586-88.529s-55.386-15.662-80.495-.861z" fill="#079e59"/></g><g><path d="m210.404 83.517c5.443 28.634 3.592 53.234-28.016 75.467s-73.956 28.723-99.065 13.923c-5.443-28.634 14.978-66.296 46.586-88.529s55.386-15.662 80.495-.861z" fill="#2cc47f"/></g><g><g><path d="m314.521 245.775c-6.513 34.261-4.298 63.695 33.522 90.297s88.489 34.368 118.532 16.659c6.513-34.261-17.921-79.324-55.74-105.926s-66.271-18.74-96.314-1.03z" fill="#079e59"/></g><g><path d="m197.479 245.775c6.513 34.261 4.298 63.695-33.522 90.297s-88.488 34.368-118.532 16.659c-6.513-34.261 17.921-79.324 55.74-105.926s66.271-18.74 96.314-1.03z" fill="#2cc47f"/></g></g></g></svg>