<svg width="60" height="60" viewBox="0 0 60 60" fill="none" xmlns="http://www.w3.org/2000/svg">
<circle cx="30" cy="30" r="30" fill="#079E59"/>
<g clip-path="url(#clip0)">
<path d="M32.3787 50.9999C32.2174 50.9999 32.0549 50.9682 31.9004 50.9029L24.5176 47.7861C24.2016 47.6527 23.9556 47.3933 23.839 47.0707C23.7224 46.748 23.7458 46.3913 23.9036 46.0866L26.0267 41.987L23.8615 36.4298L18.0882 30.6565H10.2305C9.90406 30.6565 9.59111 30.5268 9.36036 30.2961C9.12961 30.0653 9 29.7524 9 29.4261L9.00025 23.1918C9.00025 22.8441 9.14733 22.5127 9.40523 22.2794L12.4456 19.5286V15.645C12.4456 15.3187 12.5753 15.0057 12.8061 14.775C13.0368 14.5442 13.3498 14.4145 13.6761 14.4145H19.3362L19.336 11.8717C19.336 11.1921 19.8869 10.6412 20.5664 10.6411L26.5548 10.6408C26.8033 10.6408 27.0459 10.716 27.2508 10.8565L29.8074 12.6099H35.5783C36.2579 12.6099 36.8088 13.1608 36.8088 13.8403V17.3225L49.9867 19.6838C50.5731 19.7889 51.0001 20.2992 51.0001 20.895L51 28.852C51 29.1069 50.9208 29.3556 50.7733 29.5635L46.3576 35.7929L45.8222 39.9994C45.744 40.614 45.2211 41.0745 44.6017 41.0745L40.172 41.0746V43.2483C40.172 43.576 40.0413 43.8901 39.8088 44.1211L33.2464 50.6422C33.0111 50.8759 32.6975 50.9999 32.3787 50.9999Z" fill="#BEE75E"/>
<path d="M49.9866 19.6838L36.8087 17.3225V13.8403C36.8087 13.4565 36.6328 13.1138 36.3575 12.8882V47.5507L39.8088 44.1211C40.0413 43.8901 40.172 43.5759 40.172 43.2483V41.0745L44.6017 41.0745C45.2212 41.0745 45.7441 40.6139 45.8222 39.9994L46.3576 35.7929L50.7733 29.5635C50.9208 29.3556 51 29.1069 51 28.852L51.0001 20.895C51 20.2991 50.573 19.7889 49.9866 19.6838Z" fill="#00CB75"/>
<path d="M36.3574 30.3281C34.2765 30.3281 31.8195 27.0006 30.8598 25.57C30.1289 24.4806 27.7442 20.6871 27.7442 17.6133C27.7442 12.864 31.608 9.00008 36.3574 9.00008C41.1067 9.00008 44.9706 12.864 44.9706 17.6133C44.9706 20.6871 42.5859 24.4805 41.855 25.57C40.8952 27.0006 38.4382 30.3281 36.3574 30.3281Z" fill="#FF8856"/>
<path d="M36.3574 9.00017V30.3281C38.4382 30.3281 40.8952 27.0006 41.855 25.57C42.5859 24.4806 44.9706 20.6871 44.9706 17.6133C44.9706 12.864 41.1067 9.00017 36.3574 9.00017Z" fill="#FF435B"/>
<path d="M36.3574 21.3048C34.322 21.3048 32.666 19.6489 32.666 17.6134C32.666 15.578 34.322 13.922 36.3574 13.922C38.3928 13.922 40.0488 15.578 40.0488 17.6134C40.0488 19.6489 38.3928 21.3048 36.3574 21.3048Z" fill="#FFDE46"/>
<path d="M36.3574 13.9219V21.3047C38.3928 21.3047 40.0488 19.6488 40.0488 17.6133C40.0488 15.5779 38.3928 13.9219 36.3574 13.9219Z" fill="#FFCD00"/>
</g>
<defs>
<clipPath id="clip0">
<rect width="42" height="42" fill="white" transform="translate(9 9)"/>
</clipPath>
</defs>
</svg>
