<svg width="218" height="259" viewBox="0 0 218 259" fill="none" xmlns="http://www.w3.org/2000/svg">
<path d="M103.291 176.506C101.104 176.358 98.138 176.025 92.911 175.302C89.4449 174.839 84.218 173.486 79.9364 171.967C78.9169 171.596 77.7863 171.207 77.4341 171.096C76.322 170.762 74.2646 169.91 72.1516 168.909C71.0209 168.372 69.1859 167.501 68.0553 166.963C66.9246 166.426 65.6272 165.759 65.1823 165.462C63.9776 164.684 61.4382 163.165 61.3641 163.165C61.2343 163.165 57.2122 160.385 55.1919 158.884C52.9491 157.216 51.9297 156.382 51.1326 155.53C50.8731 155.234 50.5766 155.011 50.4839 155.011C50.3912 155.011 50.002 154.733 49.6498 154.381C48.0558 152.862 43.3664 148.136 42.8103 147.488C42.4767 147.08 41.8094 146.357 41.3646 145.839C38.8994 143.096 34.2841 136.536 32.616 133.386C32.375 132.941 32.4306 132.904 35.3962 131.311L36.8234 130.551L37.0459 130.959C37.2312 131.329 40.2339 135.925 40.6046 136.388C40.6788 136.499 41.2534 137.278 41.9021 138.149C42.5323 139.019 43.2737 139.946 43.5147 140.205C43.7742 140.483 44.3117 141.15 44.7195 141.688C45.535 142.744 53.9871 151.305 54.988 152.046C55.7664 152.621 57.7497 154.233 58.2872 154.733C58.8618 155.252 62.2723 157.55 64.8672 159.181C67.1285 160.589 74.6724 164.462 76.6 165.203C77.2117 165.425 77.879 165.703 78.0829 165.777C81.0485 167.037 90.9834 169.91 92.2994 169.873C92.5774 169.873 92.8554 169.947 92.9296 170.039C92.9851 170.132 93.0964 170.169 93.1705 170.114C93.2632 170.077 94.0231 170.151 94.8758 170.299C99.0462 171.04 101.53 171.207 108.11 171.225C114.375 171.225 118.304 170.984 121.085 170.392C121.492 170.317 121.956 170.243 122.104 170.225C122.957 170.151 123.346 170.076 123.55 169.947C123.679 169.873 123.846 169.854 123.92 169.91C124.31 170.132 130.593 168.464 134.708 167.038C136.191 166.519 137.488 166.074 137.599 166.055C137.729 166.037 137.952 165.926 138.1 165.796C138.248 165.666 138.452 165.574 138.526 165.592C138.619 165.611 138.86 165.574 139.064 165.499C139.268 165.425 139.601 165.296 139.805 165.222C140.009 165.147 141.64 164.369 143.42 163.48C145.199 162.609 146.7 161.886 146.756 161.905C146.811 161.923 147.201 161.701 147.646 161.423C148.09 161.145 148.628 160.848 148.85 160.756C149.462 160.478 154.077 157.568 155.653 156.457C156.413 155.919 157.692 154.956 158.47 154.326C159.249 153.677 159.99 153.158 160.101 153.158C160.194 153.158 160.287 153.066 160.287 152.973C160.287 152.862 160.546 152.621 160.861 152.436C162.418 151.49 169.925 144.023 171.871 141.484C172.279 140.947 172.798 140.317 173.02 140.076C173.595 139.446 175.467 136.963 176.357 135.647C177.357 134.146 180.342 129.198 180.379 128.976C180.397 128.883 180.712 128.253 181.083 127.586C182.529 125.011 184.79 120.174 185.013 119.229C185.105 118.766 185.068 118.729 184.178 118.618C183.678 118.543 168.201 118.506 149.814 118.525C118.786 118.543 116.358 118.562 116.358 118.84C116.358 119.025 116.488 120.156 116.636 121.379C116.784 122.602 116.914 124.77 116.914 126.196C116.914 127.623 116.97 129.476 117.044 130.329C117.137 131.719 117.192 131.867 117.637 132.108C117.896 132.237 119.416 133.034 120.992 133.887C122.567 134.72 124.069 135.48 124.31 135.591C125.199 135.925 128.906 138.501 130.445 139.853C133.596 142.614 134.745 144.115 136.561 147.784C137.637 149.971 137.896 150.749 137.748 151.361L137.637 151.88L136.228 151.824C134.856 151.768 134.801 151.75 134.745 151.305C134.708 150.879 134.486 150.36 133.077 147.229C132.187 145.264 129.407 142.337 126.441 140.28L125.496 139.613L123.791 141.225C122.864 142.114 122.104 143.004 122.104 143.17C122.104 143.356 122.66 144.208 123.327 145.042C124.013 145.876 124.847 147.154 125.199 147.896C125.755 149.082 125.83 149.397 125.867 150.953L125.885 152.695L124.495 152.751L123.086 152.806L122.975 151.324C122.901 150.156 122.771 149.638 122.308 148.767C121.567 147.395 120.214 145.561 119.936 145.561C119.676 145.561 118.36 147.618 117.767 148.952C117.526 149.489 117.137 150.583 116.914 151.379L116.488 152.806L115.172 152.751C113.708 152.695 113.8 152.825 114.115 151.213C114.264 150.416 114.987 148.618 115.728 147.192C115.969 146.691 116.136 146.302 116.08 146.302C115.932 146.302 117.081 144.616 117.6 144.097C117.841 143.856 118.026 143.56 118.026 143.43C118.026 143.152 115.376 140.65 114.301 139.891C113.596 139.409 113.559 139.409 113.207 139.724C113.003 139.909 112.837 140.15 112.837 140.261C112.837 140.372 112.559 140.724 112.225 141.058C111.558 141.707 110.334 143.708 109.741 145.098C109.259 146.246 109.092 147.192 109.129 148.544C109.129 149.1 109.055 149.786 108.963 150.064C108.833 150.397 108.833 150.583 108.963 150.675C109.074 150.731 109.129 151.379 109.092 152.25L109.037 153.733L107.925 153.677L106.813 153.622L106.776 152.695C106.664 150.508 105.978 147.08 105.219 145.005C104.644 143.411 103.198 140.539 102.939 140.446C102.79 140.391 102.364 140.576 101.975 140.836C101.196 141.354 98.583 143.893 98.5644 144.115C98.5644 144.208 98.8424 144.653 99.1946 145.135C99.9546 146.191 101.011 148.47 101.53 150.138C101.734 150.805 101.901 151.398 101.901 151.472C101.901 151.528 101.233 151.602 100.436 151.62L98.9537 151.657L98.6386 150.694C98.064 148.896 96.6182 146.302 96.2104 146.302C96.0807 146.302 95.8768 146.487 95.7656 146.728C95.6358 146.951 94.8944 147.97 94.116 149.007C92.837 150.694 92.5405 151.194 92.1883 152.306C92.0771 152.621 91.9473 152.639 90.8352 152.547C90.168 152.473 89.5748 152.399 89.5378 152.361C89.4451 152.25 90.1494 150.36 90.8352 148.896C91.4284 147.599 92.6888 145.728 93.7267 144.579L94.3569 143.875L93.4487 142.948C92.9668 142.448 92.4663 142.04 92.3551 142.04C92.2624 142.04 91.9659 141.836 91.7064 141.595C91.4469 141.354 90.965 140.891 90.6128 140.576L90.0011 139.983L88.852 140.724C86.6277 142.114 83.2543 145.431 82.2349 147.173C81.6788 148.155 81.5491 148.563 81.4564 149.841C81.3822 150.675 81.2896 151.398 81.2525 151.435C81.1969 151.491 80.4926 151.583 79.6585 151.657C78.5464 151.75 78.1201 151.731 78.0459 151.565C77.8976 151.176 78.3425 148.581 78.7503 147.488C79.9736 144.19 82.3461 141.762 89.2227 136.666C92.2624 134.405 94.7276 132.534 95.2281 132.071C95.4876 131.83 95.9139 131.515 96.1919 131.366C96.9889 130.959 98.8239 128.216 99.0093 127.179C99.0648 126.938 99.1019 126.715 99.1205 126.66C99.1391 126.604 99.1761 126.493 99.2132 126.382C99.2317 126.289 99.2688 126.122 99.3059 126.011C99.3244 125.919 99.3244 125.622 99.3059 125.381C99.2688 124.992 99.3244 124.955 99.7136 125.085C99.936 125.159 100.677 125.27 101.326 125.307L102.494 125.4L102.364 126.252C102.197 127.42 101.474 129.291 100.752 130.44C100.437 130.959 100.084 131.552 99.9731 131.756C99.7322 132.2 97.6192 134.183 96.7109 134.813C96.3588 135.054 95.6915 135.573 95.2467 135.962C94.8018 136.351 94.357 136.666 94.2643 136.666C93.9863 136.666 91.8918 138.371 91.9845 138.519C92.0215 138.593 92.522 138.927 93.0966 139.279C93.6526 139.613 94.116 139.965 94.116 140.039C94.116 140.113 94.2087 140.187 94.3384 140.187C94.4496 140.187 94.9686 140.521 95.4505 140.947L96.3588 141.706L96.9519 141.243C98.1752 140.298 104.366 134.368 105.07 133.46C105.478 132.923 105.96 132.33 106.127 132.126C106.294 131.922 106.664 131.496 106.924 131.163L107.406 130.57L107.851 131.163C108.073 131.496 108.481 131.922 108.722 132.108C108.963 132.312 109.315 132.608 109.482 132.775C109.649 132.942 110.816 133.85 112.095 134.776C113.374 135.703 114.783 136.74 115.246 137.074C115.691 137.407 116.97 138.464 118.082 139.427C120.325 141.354 119.954 141.299 121.363 140.002C121.641 139.742 122.178 139.316 122.549 139.075C122.92 138.816 123.198 138.501 123.179 138.352C123.142 138.223 121.789 137.426 120.158 136.592C115.839 134.387 114.894 133.738 114.505 132.682C114.375 132.349 114.208 129.958 114.116 126.845C114.023 123.936 113.875 120.693 113.763 119.618C113.318 114.874 113.3 114.207 113.671 113.948C113.967 113.726 120.566 113.689 153.373 113.689C175.022 113.689 192.723 113.726 192.723 113.781C192.723 113.837 192.445 114.652 192.093 115.597C191.76 116.524 191.389 117.561 191.278 117.858C191.185 118.173 190.796 119.118 190.444 119.989C190.091 120.86 189.702 121.897 189.572 122.305C189.443 122.713 188.312 125.14 187.052 127.679C184.623 132.571 181.269 138 178.525 141.429C177.821 142.318 177.061 143.319 176.876 143.615C175.986 145.042 168.609 152.732 166.181 154.77C165.532 155.308 164.605 156.142 164.086 156.605C163.586 157.087 162.622 157.828 161.955 158.273C161.288 158.699 160.454 159.329 160.101 159.662C158.452 161.163 152.039 165.11 147.961 167.13C141.937 170.095 142.141 170.002 137.303 171.689C129.629 174.339 125.014 175.358 116.636 176.229C113.356 176.562 106.442 176.71 103.291 176.507L103.291 176.506ZM108.406 142.021C108.74 141.391 109.63 140.242 110.39 139.464L111.743 138.056L111.131 137.556C110.798 137.278 109.945 136.592 109.241 136.017L107.98 134.998L106.331 136.629C105.422 137.518 104.681 138.334 104.681 138.445C104.681 138.556 104.866 138.853 105.107 139.094C105.83 139.853 106.46 140.78 107.072 142.003C107.387 142.633 107.684 143.152 107.739 143.152C107.776 143.152 108.091 142.633 108.406 142.021V142.021Z" fill="#0F3199"/>
<path d="M26.351 118.377C26.073 118.321 25.7393 117.802 25.0906 116.412C24.6087 115.375 24.0526 114.022 23.8302 113.41C23.2927 111.78 22.1991 107.37 22.2918 107.184C22.3474 107.11 22.3103 106.999 22.1991 106.925C22.1065 106.869 22.0323 106.628 22.0323 106.406C22.0508 105.98 21.9952 105.535 21.5504 103.033C19.9193 93.7867 19.9564 83.1503 21.6616 73.6627C21.884 72.4953 22.0508 71.3279 22.0508 71.0684C22.0508 70.809 22.1064 70.5311 22.1621 70.4199C22.2177 70.3272 22.2918 69.9937 22.3289 69.6787C22.4957 68.1777 25.035 59.9131 26.1657 57.2818C26.3325 56.8927 26.4622 56.448 26.4622 56.3182C26.4622 55.9662 27.5187 53.6684 29.3167 50.0364C30.1322 48.4057 30.818 46.9974 30.8365 46.8863C30.8736 46.6639 33.3388 42.6243 34.8772 40.2524C35.9152 38.6587 37.3053 36.6945 37.7872 36.1571C38.3618 35.5271 38.5101 35.3047 38.5101 35.138C38.5101 35.0268 38.6213 34.8785 38.7696 34.8044C38.8994 34.7303 39.0476 34.5635 39.0847 34.4338C39.3627 33.5999 47.2402 25.1871 49.3532 23.4638C49.9649 22.9635 50.799 22.2223 51.2067 21.8331C52.3374 20.7584 53.8387 19.5539 54.0426 19.5539C54.1539 19.5539 54.2651 19.4798 54.3021 19.3871C54.4133 19.0906 57.5643 16.8114 60.1222 15.1622C63.8848 12.7347 64.5706 12.3456 68.3518 10.4369C72.5223 8.32446 74.4684 7.45353 76.4146 6.7679C82.0679 4.78515 83.5692 4.30335 85.6823 3.71037C86.9983 3.3583 88.1104 3.09888 88.1474 3.15446C88.203 3.21008 88.3513 3.15447 88.4811 3.04328C88.6294 2.93209 88.8518 2.87651 89.0186 2.93209C89.1669 3.00622 89.3337 2.96914 89.3893 2.85797C89.4635 2.76533 89.5932 2.72825 89.6859 2.78385C89.7785 2.85797 89.9639 2.83947 90.0936 2.7468C90.2048 2.67268 90.5199 2.59855 90.7794 2.58002C91.0389 2.56146 92.4476 2.33913 93.9304 2.07971C99.3983 1.13465 101.771 0.949347 108.11 0.930817C114.449 0.930817 116.488 1.09759 122.289 2.06118C125.626 2.61709 125.755 2.63562 126.367 2.76532C126.627 2.82094 127.108 2.89504 127.442 2.95063C129.518 3.28418 133.707 4.56278 140.102 6.82349C143.494 8.02797 150.111 11.2893 153.54 13.4574C154.578 14.1059 156.079 15.051 156.876 15.5513C158.174 16.3667 160.954 18.3679 161.51 18.8868C161.621 18.998 161.918 19.2203 162.14 19.3686C162.919 19.8874 163.901 20.7028 165.272 21.9258C166.032 22.6114 166.867 23.3341 167.145 23.5379C167.904 24.1124 172.816 29.1712 174.281 30.876C175.003 31.7098 175.763 32.5808 175.967 32.7846C176.505 33.3035 178.266 35.6198 178.266 35.8051C178.266 35.8792 178.488 36.1571 178.766 36.4166C179.285 36.9169 182.102 41.1418 183.641 43.7361C184.178 44.6626 184.734 45.5335 184.846 45.6818C185.494 46.4971 189.591 55.0952 190.128 56.8C190.314 57.3559 190.888 59.0237 191.407 60.5061C193.02 65.1017 194.428 70.457 194.41 71.9579C194.391 72.1803 194.465 72.3656 194.558 72.3656C194.651 72.3656 194.725 72.6435 194.725 72.9771C194.725 73.2921 194.892 74.7375 195.096 76.1643C195.874 81.3343 195.948 82.5573 195.911 87.9867C195.893 92.5452 195.67 96.9555 195.466 97.0852C195.374 97.1594 190.833 96.8443 190.74 96.7516C190.703 96.7146 190.74 94.9727 190.851 92.8973C191.129 87.4493 190.703 81.1305 189.646 74.8672C189.368 73.3477 189.146 71.9579 189.109 71.8097C189.09 71.6614 188.997 71.3835 188.923 71.1982C188.849 71.0129 188.831 70.8276 188.886 70.772C189.127 70.5125 186.829 62.9336 185.457 59.4869C185.05 58.4678 184.605 57.2818 184.438 56.8371C183.53 54.1131 177.951 43.9399 176.579 42.476C176.394 42.2537 176.116 41.8645 176.004 41.568C175.875 41.2901 175.708 41.0492 175.634 41.0492C175.541 41.0492 175.485 40.9565 175.485 40.8453C175.485 40.6786 174.522 39.3073 174.188 39.0108C174.132 38.9552 173.206 37.8434 172.149 36.5092C169.776 33.5629 164.142 27.874 161.121 25.4095C159.897 24.3903 158.804 23.4638 158.692 23.3156C158.581 23.1858 158.414 23.0747 158.322 23.0747C158.229 23.0747 158.007 22.9264 157.84 22.7597C157.358 22.2408 156.987 21.9628 156.765 21.9628C156.672 21.9628 156.579 21.8887 156.579 21.7775C156.579 21.6849 156.468 21.5922 156.357 21.5737C156.227 21.5737 155.745 21.2772 155.282 20.9437C151.797 18.2938 143.697 13.8836 139.342 12.2344C130.871 9.01009 126.052 7.80561 117.655 6.73085C113.578 6.212 103.643 6.15641 99.491 6.6382C91.9842 7.50913 84.9223 9.1954 79.2691 11.4746C78.6018 11.7341 77.6009 12.0861 77.0448 12.2529C75.4693 12.7162 66.9431 17.1449 64.1628 18.9424C60.567 21.2772 58.0277 23.0747 56.86 24.168C56.3039 24.6868 55.7664 25.113 55.6737 25.113C55.0064 25.1316 45.9056 34.1003 44.6082 36.0274C44.3116 36.4722 43.6814 37.269 43.218 37.7878C42.143 38.9923 40.6602 41.0677 38.7881 44.0141C37.9911 45.2927 37.2126 46.4786 37.0643 46.6454C36.9346 46.8122 36.3044 47.9425 35.6927 49.147C32.0784 56.2071 32.171 56.0218 29.7985 62.8224C28.9644 65.2129 28.1118 68.0851 27.8709 69.2154C27.8153 69.4749 27.7226 69.8825 27.667 70.142C27.3148 71.717 26.2583 78.073 25.9803 80.3337C25.554 83.7433 25.4984 93.3235 25.8691 96.8258C26.351 101.329 27.8153 108.778 28.983 112.725L29.2795 113.688H64.5706H99.8617V111.335C99.8617 110.019 99.769 107.221 99.6763 105.072L99.4724 101.18L98.6939 100.402C98.2862 99.9574 97.8228 99.6053 97.6931 99.6053C97.5633 99.6053 97.3594 99.4385 97.2297 99.2347C97.0999 99.0309 96.9331 98.8641 96.8775 98.8641C96.8033 98.8641 96.1361 98.4935 95.3576 98.0302C94.5977 97.567 93.4856 97.0296 92.8924 96.8258C90.6682 96.0475 86.7943 95.9363 84.255 96.5478C82.5312 96.974 79.4914 98.3823 77.5267 99.6795L75.6917 100.902L74.802 100.032C74.1718 99.42 73.968 99.105 74.1162 98.9382C74.2089 98.8271 75.2654 98.1414 76.4702 97.4187C81.8825 94.1944 84.0882 93.5459 88.963 93.7312C92.8739 93.8609 94.8015 94.528 97.7857 96.7146C98.4159 97.1964 98.972 97.567 99.0091 97.567C99.1203 97.567 98.9349 96.4366 98.6569 95.4916C98.1935 93.9165 94.5421 89.9695 91.6135 87.8941C89.2224 86.2078 86.9241 85.2072 83.4765 84.4104L81.8454 84.0212L81.1596 84.5586C80.7889 84.8551 80.2885 85.1886 80.0475 85.3369C79.8066 85.4666 79.269 85.8743 78.8427 86.2634C78.1569 86.8935 74.4313 89.4136 74.1904 89.4136C74.1348 89.4136 73.0227 89.988 71.7252 90.6922C70.4092 91.3964 69.0376 92.1005 68.6854 92.2488L68.0182 92.5267L67.3138 91.5075C66.7392 90.6922 66.6651 90.4698 66.8875 90.3216C67.0358 90.2289 67.2211 90.1548 67.2953 90.1548C67.388 90.1548 68.4815 89.6545 69.7419 89.043C71.0023 88.4315 72.0774 87.9312 72.133 87.9312C72.2257 87.9312 76.9892 85.096 78.0272 84.3919C78.3979 84.151 78.713 83.8915 78.7315 83.8174C78.7501 83.3356 70.1312 83.28 66.4797 83.7618C65.2379 83.91 64.1999 84.0212 64.1628 83.9841C64.1258 83.9471 64.0145 83.5024 63.9219 83.002C63.7921 82.372 63.8107 82.057 63.9589 81.9643C64.2555 81.779 66.1832 81.464 67.8513 81.3343C68.741 81.2601 69.2785 81.1305 69.2785 81.0008C69.2785 80.5746 65.0525 78.2768 62.4205 77.2761C61.9571 77.0908 60.8821 76.7758 60.0109 76.5535L58.4354 76.1458L58.3798 75.2749L58.3242 74.4039L59.1213 74.515C59.5661 74.5893 60.7153 74.8486 61.6791 75.0895C62.6429 75.3489 63.7365 75.6269 64.1072 75.7195C64.9784 75.9234 67.5733 77.0352 68.6854 77.6838C70.3351 78.6288 72.2256 80.1298 72.3554 80.5745C72.4481 81.0192 72.5037 81.0192 75.4508 81.1304C80.3255 81.2972 85.2003 82.1496 87.5358 83.2058C88.0547 83.4282 88.8517 83.7617 89.3151 83.91C90.4643 84.2991 91.3169 84.818 93.2817 86.2819C95.7098 88.0979 96.6551 89.08 99.6207 92.8602C99.8617 93.1381 100.047 93.5273 100.047 93.7126C100.047 93.8979 100.14 94.0461 100.269 94.0461C100.381 94.0461 100.436 94.1017 100.362 94.1572C100.306 94.2129 100.436 94.7317 100.622 95.3061C100.826 95.8991 101.159 97.4927 101.382 98.864C101.715 101.051 101.752 102.162 101.734 107.851C101.678 118.339 101.697 118.284 101.252 118.395C100.826 118.525 26.9441 118.488 26.351 118.376L26.351 118.377Z" fill="#00904C"/>
<path d="M115.709 104.33C115.617 104.293 115.135 104.219 114.671 104.145L113.819 104.034L114.078 101.959C114.949 94.6391 116.618 90.7848 120.566 86.986C122.141 85.448 123.142 84.818 126.738 83.0576C130.148 81.3898 131.056 81.0192 132.984 80.5374C134.708 80.0927 134.56 80.1112 137.637 80.0927C140.472 80.0927 140.528 80.0927 142.901 80.4448L144.717 80.7042L145.57 79.8518C146.181 79.2218 147.071 78.6844 148.85 77.832C150.889 76.8684 152.91 76.1087 153.558 76.0531C153.651 76.0531 153.818 75.9604 153.947 75.8492C154.059 75.7381 154.17 75.7195 154.17 75.7936C154.17 75.8678 154.3 75.8307 154.448 75.701C154.596 75.5712 154.726 75.5156 154.726 75.5712C154.726 75.6455 155.078 75.5713 155.486 75.423C156.487 75.0524 156.765 75.0709 156.765 75.4786C156.765 75.6639 156.895 75.9789 157.043 76.1828C157.191 76.3681 157.321 76.5904 157.321 76.6646C157.321 76.8313 155.097 77.9802 153.744 78.4991C152.52 78.9623 148.609 80.9451 148.609 81.0933C148.609 81.1676 149.017 81.2601 149.518 81.3342C151.167 81.5566 154.911 82.6128 154.911 82.8537C154.911 82.9834 154.17 84.4103 154.114 84.4103C154.077 84.4103 152.835 84.1694 151.353 83.8544C146.478 82.8537 136.561 81.9643 136.561 82.5387C136.561 82.8908 139.527 85.448 141.344 86.671C142.4 87.3752 144.624 88.6352 146.311 89.4691L149.351 90.9886L148.684 91.8225C148.313 92.2857 147.961 92.7675 147.886 92.8972C147.72 93.1937 146.589 92.6934 142.863 90.618C138.452 88.172 135.913 85.9483 134.838 83.632C134.615 83.1317 134.374 82.7425 134.3 82.7425C133.892 82.7425 130.908 83.7988 129.889 84.3176C129.222 84.6512 128.332 85.0218 127.906 85.133C126.775 85.448 123.383 87.7458 122.03 89.1355C120.195 90.9886 118.193 94.2314 117.915 95.7694C117.767 96.5848 117.859 96.6033 119.175 96.0103C122.92 94.2685 127.498 93.8423 132.076 94.7688C134.856 95.3432 138.248 96.8442 140.713 98.549L141.807 99.3273L140.732 100.291L139.675 101.254L138.563 100.495C136.765 99.2902 134.764 98.3637 132.669 97.8263C130.89 97.3445 130.445 97.3075 127.387 97.3075C124.347 97.2889 123.883 97.3445 122.16 97.7893C120.343 98.271 117.674 99.4014 117.303 99.8647C117.192 99.9944 117.025 100.865 116.914 101.829C116.803 102.792 116.673 103.775 116.618 104.015C116.543 104.386 116.21 104.497 115.709 104.33V104.33Z" fill="#00904C"/>
<path d="M112.632 89.6172C112.299 89.3578 112.188 89.0428 112.113 88.0978C112.021 86.9489 111.984 79.6849 112.076 78.2025C112.151 76.8868 113.022 72.5137 113.596 70.5124C114.171 68.4926 116.228 64.0823 116.951 63.2855C117.192 63.0261 118.082 61.9884 118.934 60.9692C119.787 59.95 121.659 58.0043 123.105 56.6516C124.532 55.2989 126.719 53.1679 127.961 51.9264C129.184 50.6848 130.649 49.295 131.205 48.8688C131.761 48.4241 132.576 47.7385 133.04 47.3494C133.503 46.9602 134.671 46.1078 135.635 45.4407L137.396 44.2548L137.525 41.8643C137.989 32.8956 138.508 29.7825 140.12 25.8911C140.621 24.6867 140.732 24.5384 141.084 24.6496C141.288 24.7237 141.659 24.8164 141.9 24.872C142.122 24.9276 142.307 25.0758 142.307 25.224C142.307 25.3538 142.011 26.725 141.659 28.2445C141.306 29.7825 140.899 31.9876 140.732 33.1365C140.398 35.6937 139.972 41.9199 140.12 42.0682C140.658 42.6056 147.33 37.1947 148.795 35.0451L149.388 34.1557L150.129 34.8784L150.871 35.6196L150.407 36.5276C149.721 37.8803 144.865 42.3461 144.087 42.3461C143.976 42.3461 143.66 42.55 143.382 42.8094C143.104 43.0688 141.269 44.366 139.305 45.7002C135.283 48.4426 133.596 49.7027 133.596 49.9992C133.596 50.0178 133.911 50.0178 134.3 49.9806C134.671 49.9435 135.486 49.888 136.098 49.8509C136.71 49.8138 138.174 49.61 139.342 49.3876C140.509 49.1838 142.4 48.8873 143.512 48.7391C146.886 48.2758 149.666 47.7384 150.593 47.3678C151.075 47.164 152.465 46.5525 153.688 45.978C154.893 45.4036 155.912 44.9403 155.949 44.9403C155.968 44.9403 156.264 45.4036 156.598 45.978C157.321 47.2566 157.525 47.0528 153.873 48.8503C151.278 50.1289 148.869 50.8515 147.201 50.8701C146.867 50.8701 145.792 51.0368 144.791 51.2407C142.029 51.8151 139.509 52.1672 136.839 52.3525C135.523 52.4451 133.392 52.7602 132.113 53.0381C129.351 53.6311 129.5 53.5385 124.625 58.3749C121.363 61.6177 119.88 63.2669 119.88 63.6561C119.88 63.9155 120.992 63.8599 126.552 63.3596C131.372 62.9149 131.779 62.8778 132.854 62.8037C136.08 62.5998 140.009 61.6177 143.419 60.2094C144.791 59.6535 146.181 59.0976 146.478 58.9679C146.793 58.8567 147.145 58.6528 147.275 58.5231C147.405 58.3934 147.683 58.2822 147.868 58.2822C148.053 58.2822 149.388 57.7078 150.815 56.9851C152.261 56.281 153.466 55.688 153.521 55.688C153.558 55.688 154.04 55.4841 154.578 55.2433C155.764 54.7059 157.08 54.3353 157.321 54.4835C157.414 54.5391 157.525 54.5021 157.599 54.3909C157.877 53.9461 158.359 54.2426 158.748 55.1321C158.971 55.6324 159.1 56.0771 159.026 56.1327C158.952 56.1698 158.433 56.3366 157.877 56.5219C156.654 56.911 152.465 58.8567 152.576 58.9864C152.891 59.2829 157.636 60.9877 159.879 61.5992C160.75 61.8401 160.75 61.803 160.157 63.4522L159.86 64.2491L158.952 64.1379C156.969 63.8784 151.668 61.7474 150.203 60.6171L149.629 60.1909L148.146 60.9136C143.475 63.2299 140.398 64.1935 134.967 65.0459C128.851 65.9909 121.029 66.7136 119.009 66.5283C117.693 66.3986 117.674 66.4171 117.415 66.936C116.58 68.5666 115.32 73.4401 114.801 77.0165C114.467 79.1846 114.393 83.5763 114.671 83.7616C114.782 83.8172 114.949 83.6689 115.079 83.4466C115.209 83.2242 115.394 82.9277 115.505 82.798C115.617 82.6683 115.876 82.3348 116.08 82.0568C117.396 80.2593 121.604 76.368 123.976 74.7743C125.477 73.7552 130.278 71.2165 130.575 71.2906C130.667 71.2906 130.853 71.2535 131.001 71.198C134.597 69.7711 139.842 68.5667 144.439 68.1034C146.737 67.8625 155.986 67.9366 156.635 68.1961C156.895 68.3072 156.95 68.5852 156.95 69.9008V71.4759L156.357 71.3648C155.078 71.1053 147.386 71.0127 145.088 71.235C141.325 71.5871 136.524 72.4766 134.059 73.3104C131.705 74.1072 127.368 76.2012 125.57 77.4057C123.327 78.9252 119.843 82.1309 117.544 84.7993C116.692 85.7999 115.709 86.7821 115.339 87.0044C114.746 87.375 114.69 87.4677 114.69 88.3016C114.69 89.7469 113.633 90.4326 112.632 89.6172L112.632 89.6172Z" fill="#00904C"/>
<path d="M102.16 89.1541C101.956 89.0059 101.252 88.0793 100.603 87.1158C99.973 86.1337 99.3613 85.3368 99.2686 85.3368C99.1759 85.3368 99.1575 85.2626 99.213 85.1515C99.2686 85.0589 99.2316 84.9662 99.1203 84.9662C99.0091 84.9662 98.8793 84.818 98.8052 84.6512C98.6384 84.2065 97.4336 82.7241 95.9693 81.2231C95.3206 80.5189 94.7089 79.8518 94.6348 79.7036C94.4494 79.3701 91.9842 77.3688 91.7618 77.3688C91.6691 77.3688 91.4282 77.202 91.2428 76.9982C91.0575 76.7943 90.798 76.6275 90.6682 76.6275C90.5385 76.6275 90.4087 76.5533 90.3717 76.4793C90.279 76.2384 88.7776 75.2748 86.9056 74.2371C84.0882 72.6991 79.6769 71.3649 74.6538 70.5496C71.4472 70.0122 68.8337 69.8084 62.9581 69.586C60.1778 69.4748 57.8794 69.3822 57.8609 69.3451C57.8424 69.3265 57.8053 68.9374 57.7682 68.4742C57.7126 67.5291 57.8794 67.1029 58.2687 67.2512C58.3984 67.3067 58.5652 67.2698 58.6208 67.177C58.7135 67.0102 68.8337 67.0473 70.6687 67.2326C74.7465 67.6032 76.7854 67.9367 80.029 68.7521C82.6796 69.4192 86.9241 71.0128 88.9259 72.1246C90.2419 72.8288 92.3549 74.2185 92.9295 74.7374C93.1334 74.9042 93.7636 75.3674 94.3567 75.7751C95.5986 76.609 98.8793 79.9815 100.492 82.094L101.623 83.5764L101.678 81.6307C101.734 79.4256 101.493 76.5904 101.048 74.4594C100.585 72.1802 99.3427 68.7706 98.3974 67.2141L97.5448 65.7872L96.7107 65.8243C96.2474 65.8428 94.6348 65.917 93.0964 65.9911C89.204 66.1578 87.0724 65.8243 80.3071 63.9342C76.7298 62.9335 74.3387 62.1553 71.577 61.0434C69.8162 60.3393 68.2963 59.7648 68.185 59.7648C68.0738 59.7648 67.4622 60.0243 66.832 60.3208C66.2018 60.6358 65.3121 60.9323 64.8487 60.9879C64.4039 61.0434 63.162 61.4141 62.0684 61.8402C59.7145 62.7297 58.4726 63.1003 57.6385 63.1003H57.0269L57.0824 61.9514L57.138 60.8025L59.733 59.7463C61.1602 59.1719 62.7357 58.5789 63.2361 58.4307C63.7366 58.3009 64.1814 58.0786 64.2185 57.9674C64.2926 57.745 60.9007 55.9661 59.3623 55.4102C58.8618 55.2249 58.3799 55.0211 58.2872 54.9469C58.0648 54.7431 58.7691 53.0939 59.0842 53.0939C59.2325 53.0939 59.9554 53.3163 60.6597 53.5572C61.3826 53.8166 62.0499 54.0575 62.1426 54.0945C62.2538 54.1131 62.5874 54.2428 62.884 54.3725C63.1991 54.4837 63.6995 54.6875 63.9961 54.7987C64.3112 54.9284 65.4789 55.4843 66.591 56.0588C67.7217 56.6332 69.1674 57.3374 69.8347 57.6153C72.7632 58.8939 85.1448 62.7297 86.3125 62.7297C86.7017 62.7297 87.0724 62.7853 87.128 62.8594C87.3319 63.0633 88.1104 63.1189 91.6692 63.1744C93.5227 63.2115 95.0796 63.1744 95.1352 63.1003C95.1723 63.0261 94.9684 62.6926 94.6719 62.3405C94.3753 61.9885 94.1343 61.6364 94.1158 61.5623C94.1158 61.4881 93.6524 60.9322 93.0778 60.3578C92.5032 59.7833 91.6506 58.8383 91.1687 58.2824C90.7053 57.7265 89.3523 56.3552 88.1845 55.2434C87.0168 54.1316 86.0345 53.1495 85.9974 53.0568C85.9603 52.9826 85.8306 52.9086 85.7008 52.9086C85.5896 52.9086 85.3486 52.7418 85.1633 52.538C84.9223 52.26 84.6258 52.1673 83.8844 52.1673C81.9938 52.1673 73.8939 51.2594 70.4834 50.6664C68.704 50.3514 62.884 48.3501 60.6041 47.2568C58.6579 46.3117 58.5097 46.2191 58.7506 45.9041C59.214 45.237 60.1778 44.1993 60.3446 44.1993C60.4188 44.1993 60.9007 44.4587 61.3826 44.7737C63.7922 46.2932 72.615 48.4983 79.5286 49.2951C80.2144 49.3693 80.5851 49.3507 80.5851 49.221C80.5851 48.943 74.487 43.9954 72.5964 42.7538C71.4287 41.9756 70.5205 41.1417 69.1118 39.5666C67.0729 37.2688 65.4604 35.0637 65.6272 34.8043C65.7013 34.6931 66.0906 34.3781 66.5169 34.0816L67.2953 33.5442L68.5187 34.934C69.1859 35.6938 70.5019 37.1021 71.4287 38.0842C72.3555 39.0478 73.1895 39.9743 73.2822 40.1411C73.5046 40.5117 75.5621 41.9756 75.8772 41.9756C76.2108 41.9756 76.3961 40.1966 76.2664 37.9174C76.1737 36.3238 75.5621 32.2842 74.3387 25.187C74.2461 24.6496 74.2831 24.594 74.8577 24.4829C76.4888 24.1123 76.4517 24.1123 76.7668 25.1685C77.2858 27.0215 77.4156 27.633 78.0643 31.2279C79.2135 37.658 79.3432 39.5666 78.8243 42.2906C78.676 43.0874 78.5462 43.8657 78.5462 44.0139C78.5462 44.1622 79.8066 45.2555 81.3265 46.4229C87.0539 50.796 87.7582 51.3705 89.0186 52.5564C89.7415 53.2421 90.5941 54.0203 90.9277 54.2983C91.2799 54.5948 92.0028 55.3731 92.5403 56.0402C93.0964 56.7073 94.1714 57.9303 94.9314 58.7456C95.7098 59.5424 96.34 60.2651 96.34 60.3392C96.34 60.3948 96.5625 60.7098 96.859 61.0063C100.362 64.8421 102.753 69.6785 103.68 74.7744C103.995 76.5348 104.143 81.853 103.958 85.4294C103.921 86.2447 103.94 87.301 104.032 87.7642C104.143 88.5054 104.106 88.6907 103.773 89.0243C103.328 89.469 102.698 89.5246 102.16 89.154L102.16 89.1541Z" fill="#00904C"/>
<path d="M112.095 63.2855C111.761 62.952 111.706 62.6926 111.743 61.4696C111.761 60.6913 111.835 59.9686 111.872 59.8759C111.928 59.7648 112.002 59.5239 112.021 59.32C112.317 56.5405 113.318 53.1679 115.098 48.8318C115.709 47.3494 116.228 46.0708 116.247 45.9596C116.284 45.867 116.395 45.5705 116.506 45.311C116.617 45.0516 117.007 44.1436 117.377 43.2727C117.748 42.4018 118.156 41.5308 118.286 41.327C118.415 41.1232 118.823 40.2708 119.194 39.4554C119.843 38.0286 119.861 37.9174 119.602 37.4171C119.453 37.1206 119.324 36.7129 119.324 36.5091C119.324 36.3053 119.027 34.5263 118.675 32.5621C117.34 25.0944 116.173 14.4208 116.636 13.9576C116.692 13.902 117.192 13.9946 117.748 14.1429C118.471 14.3467 118.768 14.532 118.842 14.81C118.897 15.0323 119.194 17.1263 119.509 19.4611C120.213 24.8164 120.714 28.1889 121.177 30.672C121.381 31.7468 121.566 32.8401 121.585 33.1366C121.641 33.8037 121.789 33.7666 122.326 32.9512C123.16 31.6912 126.867 25.4094 127.386 24.3717C127.943 23.2598 128.999 20.295 128.832 20.295C128.777 20.295 128.832 20.1653 128.962 20.017C129.073 19.8688 129.129 19.6649 129.073 19.5723C128.999 19.4796 129.036 19.3499 129.129 19.2758C129.24 19.2202 129.277 19.0534 129.221 18.9237C129.036 18.4605 129.537 18.4049 130.389 18.8125L131.242 19.2017L131.112 20.3135C130.945 21.9627 130.056 24.9646 129.296 26.4841C129.092 26.8918 128.48 27.8739 127.961 28.6337C126.849 30.2087 125.626 32.2841 125.626 32.525C125.626 32.6177 125.329 33.1551 124.977 33.711C124.217 34.8969 121.363 40.6228 121.363 40.9564C121.363 41.0676 120.844 42.2906 120.195 43.6618C119.546 45.0331 118.879 46.4599 118.693 46.8305C118.249 47.8312 117.47 49.9251 117.47 50.1475C117.47 50.2587 118.49 49.3877 119.75 48.2388C120.992 47.09 122.271 45.9225 122.567 45.6446C122.882 45.3852 123.383 44.8478 123.679 44.4772C123.995 44.088 124.421 43.5692 124.662 43.3098C124.884 43.0503 125.07 42.7909 125.07 42.7353C125.07 42.6797 125.533 42.1238 126.07 41.5308L127.071 40.4375L127.943 40.9379C128.406 41.2158 128.777 41.5308 128.74 41.642C128.702 41.7347 127.998 42.7538 127.201 43.8842C126.163 45.311 124.625 47.0344 122.085 49.5545C119.917 51.7226 117.915 53.9092 117.136 54.9839C116.414 55.966 115.691 56.8369 115.524 56.9296C115.32 57.0593 115.079 57.8376 114.783 59.5053C114.523 60.821 114.319 62.0811 114.319 62.322C114.319 62.8964 113.522 63.6562 112.929 63.6562C112.67 63.6562 112.299 63.4894 112.095 63.2855V63.2855Z" fill="#00904C"/>
<path d="M103.569 61.377C103.235 61.2103 102.957 60.747 102.549 59.5611C101.956 57.9489 101.011 56.0959 100.455 55.4844C100.288 55.2991 99.7691 54.6876 99.3057 54.0946C98.8423 53.5201 97.5634 52.1118 96.4328 50.963C90.7424 45.1259 87.8139 41.9757 87.8139 41.7163C87.8139 41.6051 88.1475 41.3457 88.5367 41.1233C89.5006 40.6045 89.5376 40.623 92.4291 43.3655C94.3012 45.1444 95.3948 46.2192 98.1565 49.1099C99.1203 50.092 99.9359 50.8703 99.973 50.8147C100.158 50.6294 98.138 46.3303 96.7849 44.0141C96.4513 43.4581 95.7284 42.1981 95.1909 41.2345C94.6534 40.2709 94.1344 39.3444 94.0232 39.1591C93.9305 38.9923 93.2262 37.7878 92.4662 36.4722C91.7063 35.175 91.0019 34.0447 90.8907 33.9706C90.7795 33.8965 90.7424 33.8223 90.8165 33.8223C90.8907 33.8223 90.8165 33.6556 90.6497 33.4517C90.4829 33.2664 90.3161 32.9885 90.2975 32.8587C90.279 32.729 89.76 31.5801 89.1484 30.3015C88.0363 28.0038 86.4422 23.8344 86.2383 22.7226C86.1828 22.4076 86.0159 21.7961 85.8862 21.3514C85.7379 20.9252 85.5711 20.2951 85.4969 19.9801C85.3857 19.4242 85.4228 19.3501 85.9047 19.1648C86.1827 19.0536 86.6461 18.9239 86.9241 18.8683C87.369 18.7756 87.4431 18.8312 87.6285 19.5539C87.8694 20.4619 90.4273 27.207 90.9834 28.4485C91.5394 29.6345 92.6145 31.8025 92.8739 32.2472C93.2076 32.8032 94.1529 34.2671 94.227 34.3597C94.3938 34.545 94.8016 33.952 94.7275 33.637C94.6719 33.4332 94.7275 33.2664 94.8387 33.2664C94.9314 33.2664 94.987 33.1367 94.9314 32.9885C94.8758 32.8402 94.8943 32.6178 94.9684 32.4881C95.0426 32.3584 95.1353 32.0619 95.1538 31.821C95.1909 31.5802 95.3391 30.7833 95.506 30.0606C96.2103 26.9475 96.5439 24.6498 96.7108 21.6849C96.8034 19.9616 96.9146 17.9047 96.9702 17.145C97.0073 16.3852 97.1371 15.1437 97.2668 14.421L97.4892 13.0683H98.9535H100.399L100.195 13.6242C100.066 14.0504 100.066 14.2542 100.232 14.458C100.399 14.6619 100.436 15.1251 100.344 16.0887C100.269 16.8114 100.214 17.7935 100.232 18.2568C100.269 19.7577 99.6949 24.0383 99.0462 27.1514C97.6004 34.1003 96.9517 36.5092 96.3586 37.0466C96.0249 37.3616 96.0249 38.0843 96.3586 38.0843C96.4512 38.0843 96.5254 38.1955 96.5254 38.3252C96.5254 38.4364 96.8961 39.1406 97.3595 39.8447C99.1759 42.754 99.7134 43.699 101.419 47.1086C103.142 50.5553 104.217 53.2607 104.366 54.5764C104.403 54.9285 104.495 55.3547 104.57 55.5214C104.644 55.6697 104.718 56.2627 104.736 56.8186C104.755 57.3745 104.829 57.9119 104.903 58.0045C104.959 58.1157 105.107 58.6716 105.218 59.246C105.459 60.4135 105.348 60.8397 104.644 61.3214C104.143 61.6735 104.162 61.6735 103.569 61.377L103.569 61.377Z" fill="#00904C"/>
<path d="M107.832 54.0762C106.979 53.7241 106.998 53.9094 107.016 44.8665C107.053 36.7131 107.22 14.8658 107.257 14.4396C107.276 14.2543 109.185 14.3654 109.389 14.5693C109.444 14.6249 109.593 16.552 109.704 18.8869C109.889 22.1668 109.889 24.9278 109.722 31.3023C109.593 35.7866 109.5 42.5873 109.5 46.386V53.2979L109.037 53.7426C108.592 54.2059 108.351 54.2615 107.832 54.0762L107.832 54.0762Z" fill="#00904C"/>
<path d="M17.5371 211.499C18.7476 213.539 19.9582 215.354 21.1687 216.945C22.4138 218.501 24.0394 220.42 26.0454 222.702C26.2875 222.944 26.4086 223.22 26.4086 223.532C26.4086 224.016 26.1319 224.431 25.5785 224.776C25.0597 225.122 24.4198 225.295 23.6589 225.295C22.5867 225.295 21.4281 224.846 20.183 223.946C19.0762 223.151 18.0905 222.097 17.2258 220.783C16.3612 219.469 15.3581 217.757 14.2168 215.648C13.3175 214.023 12.7814 213.072 12.6085 212.795C11.2596 213.348 9.14986 213.694 6.27917 213.833C6.27917 215.008 6.38294 216.599 6.59046 218.604C6.79798 220.679 6.90173 222.183 6.90173 223.117C6.90173 223.739 6.59045 224.258 5.96789 224.673C5.37992 225.088 4.70548 225.295 3.94458 225.295C3.04533 225.295 2.3536 224.932 1.86939 224.206C1.38518 223.238 1.0739 222.079 0.93555 220.731C0.797203 219.382 0.728027 217.774 0.728027 215.907C0.728027 213.936 0.849086 211.706 1.09119 209.216C1.29871 206.45 1.40246 204.41 1.40246 203.096C1.40246 202.024 1.29871 200.589 1.09119 198.791C1.05661 198.48 1.00472 197.944 0.93555 197.183C0.866377 196.423 0.831789 195.731 0.831789 195.109C0.831789 194.625 1.00472 194.21 1.35058 193.864C1.73104 193.484 2.12879 193.224 2.54383 193.086C5.34534 192.637 8.07767 192.412 10.7408 192.412C15.2717 192.412 19.0243 193.259 21.9988 194.953C24.9732 196.648 26.4604 199.224 26.4604 202.681C26.4604 203.753 26.2183 204.791 25.7341 205.793C25.2845 206.761 24.6619 207.574 23.8664 208.231C21.7567 209.856 19.6469 210.945 17.5371 211.499V211.499ZM21.013 202.526C21.013 200.866 20.1311 199.517 18.3672 198.48C16.6033 197.408 14.0957 196.872 10.8446 196.872C9.39196 196.872 7.95662 197.045 6.53858 197.391L6.59046 200.036C6.59046 201.558 6.53857 203.044 6.43481 204.497C6.33106 205.949 6.27917 207.505 6.27917 209.165C6.86714 209.026 7.48971 208.94 8.14685 208.905C8.804 208.836 9.23632 208.784 9.44384 208.75C10.9657 208.611 12.1416 208.438 12.9717 208.231C14.5281 207.747 15.8078 207.315 16.8108 206.934C17.8484 206.519 18.7995 205.949 19.6642 205.223C20.5634 204.462 21.013 203.563 21.013 202.526Z" fill="#00904C"/>
<path d="M55.7206 224.465C55.2709 223.878 54.8905 223.238 54.5792 222.546C54.2679 221.82 53.9393 220.956 53.5935 219.953C53.5243 219.78 53.3168 219.261 52.9709 218.397C52.6596 217.533 52.2965 216.789 51.8815 216.167C49.7025 216.478 47.9213 216.634 46.5378 216.634C45.7769 216.634 44.9295 216.616 43.9957 216.582C43.0964 216.513 42.422 216.478 41.9724 216.478C40.2431 216.34 38.8596 216.271 37.822 216.271C37.407 216.824 37.0438 217.412 36.7325 218.034C36.4558 218.656 36.0927 219.59 35.643 220.835C35.0205 222.633 34.4844 223.912 34.0348 224.673C33.7235 225.192 33.1182 225.451 32.219 225.451C31.4581 225.451 30.7491 225.295 30.0919 224.984C29.4694 224.638 29.1581 224.171 29.1581 223.584C29.4348 222.27 29.8671 220.887 30.4551 219.434C31.0776 217.948 31.9596 215.977 33.1009 213.522L35.1761 208.439C36.3175 205.534 37.3551 203.045 38.2889 200.97C39.2574 198.895 40.5198 196.44 42.0762 193.605C42.2837 193.19 42.6295 192.844 43.1137 192.568C43.598 192.256 44.1341 192.101 44.722 192.101C45.3792 192.101 45.8461 192.153 46.1228 192.256C46.4341 192.325 46.6762 192.464 46.8491 192.671C47.022 192.844 47.2814 193.225 47.6273 193.812C48.8032 195.645 49.8062 197.529 50.6363 199.466C51.501 201.402 52.5905 204.082 53.9048 207.505L54.9942 210.254C55.9627 212.744 56.7927 214.836 57.4845 216.53C58.2108 218.19 59.0063 219.711 59.8709 221.094C60.4243 221.993 60.701 222.615 60.701 222.961C60.701 223.791 60.4416 224.431 59.9228 224.88C59.4386 225.295 58.7987 225.503 58.0032 225.503C57.0002 225.503 56.2393 225.157 55.7206 224.465V224.465ZM50.3769 211.914C49.8236 210.738 49.0281 208.698 47.9905 205.793C46.9183 202.681 45.8461 200.209 44.7739 198.377C44.1168 200.036 43.1483 202.18 41.8686 204.808C41.004 206.433 40.0182 208.784 38.9115 211.862C41.125 212.138 43.5115 212.277 46.0709 212.277C47.904 212.277 49.3393 212.156 50.3769 211.914Z" fill="#00904C"/>
<path d="M65.7333 222.806C65.7333 221.665 65.8025 220.403 65.9408 219.019C66.0792 217.429 66.1483 215.423 66.1483 213.003C66.1483 208.577 65.9581 204.307 65.5776 200.192C65.3701 197.633 65.2664 195.818 65.2664 194.746C65.2664 194.02 65.6295 193.415 66.3558 192.931C67.0822 192.412 67.8258 192.153 68.5867 192.153C69.0709 192.153 69.6589 192.187 70.3506 192.256C71.0423 192.325 71.5438 192.36 71.8551 192.36C79.6371 192.36 85.3611 194.452 89.0273 198.636C91.3446 201.333 92.5033 204.912 92.5033 209.372C92.5033 211.239 92.1574 213.124 91.4657 215.026C90.8085 216.893 89.8574 218.414 88.6123 219.59C87.2634 220.904 85.9837 221.959 84.7732 222.754C83.5972 223.515 81.989 224.154 79.9484 224.673C77.9423 225.192 75.3656 225.451 72.2183 225.451C70.2123 225.451 68.6213 225.226 67.4453 224.777C66.304 224.327 65.7333 223.67 65.7333 222.806V222.806ZM74.1897 220.731C76.507 220.731 78.6341 220.316 80.5709 219.486C82.5078 218.622 84.0642 217.342 85.2401 215.648C86.4161 213.919 87.004 211.81 87.004 209.32C87.004 206.865 86.6582 204.825 85.9664 203.2C85.2747 201.54 84.0814 200.192 82.3867 199.155C81.107 198.359 79.5333 197.789 77.6656 197.443C75.798 197.063 73.5499 196.872 70.9213 196.872C70.9213 197.218 70.9559 198.013 71.025 199.258C71.0942 200.434 71.1288 201.419 71.1288 202.215L71.1807 203.356C71.3882 206.952 71.4919 209.804 71.4919 211.914C71.4919 215.233 71.3017 218.103 70.9213 220.524C71.7514 220.662 72.8408 220.731 74.1897 220.731V220.731Z" fill="#00904C"/>
<path d="M101.115 225.399C100.078 225.399 99.3515 225.088 98.9364 224.465C98.556 223.843 98.3657 222.961 98.3657 221.82L98.4176 215.078L98.3657 214.04C98.1928 210.755 98.1063 208.041 98.1063 205.897L98.3138 199.725L98.3657 196.613C98.3657 195.576 98.4003 194.781 98.4695 194.227C98.5387 193.674 98.7635 193.225 99.1439 192.879C99.5244 192.533 100.13 192.36 100.96 192.36C101.997 192.36 102.741 192.619 103.191 193.138C103.64 193.622 103.865 194.469 103.865 195.68L103.813 196.769C103.675 199.535 103.606 201.627 103.606 203.045C103.606 204.601 103.64 206.433 103.709 208.542C103.779 210.617 103.83 212.087 103.865 212.951C104.038 216.651 104.124 219.832 104.124 222.494C104.124 223.532 103.9 224.275 103.45 224.725C103.035 225.174 102.257 225.399 101.115 225.399V225.399Z" fill="#00904C"/>
<path d="M134.889 215.856C134.889 217.481 134.509 218.881 133.748 220.057C133.021 221.198 131.811 222.252 130.116 223.221C128.975 223.912 127.643 224.431 126.121 224.777C124.6 225.122 123.06 225.295 121.504 225.295C119.913 225.295 117.942 224.777 115.59 223.739C113.895 222.909 112.546 221.924 111.543 220.783C110.575 219.642 110.09 218.397 110.09 217.049C110.09 216.115 110.298 215.441 110.713 215.026C111.128 214.576 111.802 214.351 112.736 214.351C113.221 214.351 113.722 214.559 114.241 214.974C114.76 215.354 115.071 215.735 115.175 216.115C115.659 217.533 116.506 218.622 117.717 219.383C118.927 220.109 120.432 220.472 122.23 220.472C124.306 220.472 126.035 220.091 127.418 219.331C128.836 218.57 129.545 217.55 129.545 216.271C129.545 215.026 128.784 213.919 127.263 212.951C125.741 211.983 124.184 211.309 122.593 210.928C120.311 210.306 118.287 209.562 116.524 208.698C114.69 207.799 113.324 206.693 112.425 205.379C111.526 204.065 111.076 202.682 111.076 201.229C111.076 199.881 111.543 198.515 112.477 197.132C113.411 195.714 114.518 194.694 115.797 194.072C116.489 193.726 117.665 193.363 119.325 192.983C121.02 192.568 122.248 192.36 123.009 192.36C123.977 192.36 124.997 192.481 126.069 192.723C127.142 192.965 128.058 193.311 128.819 193.761C130.341 194.625 131.465 195.403 132.191 196.095C132.918 196.786 133.281 197.651 133.281 198.688C133.281 199.31 133.039 199.863 132.554 200.348C132.105 200.832 131.309 201.074 130.168 201.074C129.891 201.074 129.615 200.953 129.338 200.711C129.061 200.469 128.715 200.106 128.3 199.621C127.747 198.895 127.211 198.411 126.692 198.169C126.139 197.962 125.447 197.772 124.617 197.599C123.787 197.391 123.009 197.287 122.282 197.287C121.452 197.287 120.587 197.46 119.688 197.806C118.789 198.152 118.028 198.653 117.406 199.31C116.818 199.933 116.524 200.659 116.524 201.489C116.524 202.18 116.835 202.785 117.457 203.304C118.115 203.788 118.893 204.186 119.792 204.497C120.83 204.912 121.954 205.275 123.164 205.586C124.755 206.07 126.052 206.52 127.055 206.935C128.093 207.315 129.096 207.799 130.064 208.387C131.759 209.39 132.987 210.427 133.748 211.499C134.509 212.536 134.889 213.988 134.889 215.856V215.856Z" fill="#00904C"/>
<path d="M158.598 219.849C159.774 219.918 160.552 219.953 160.933 219.953C162.108 219.953 163.146 219.936 164.045 219.901C164.979 219.866 165.775 219.832 166.432 219.797C168.127 219.694 169.648 219.642 170.997 219.642C172.311 219.642 173.28 219.987 173.902 220.679C174.525 221.371 174.836 222.287 174.836 223.428C174.836 223.981 174.473 224.431 173.747 224.776C173.021 225.088 172.277 225.243 171.516 225.243C170.859 225.243 169.493 225.174 167.418 225.036C164.927 224.828 162.973 224.725 161.555 224.725C160.794 224.725 159.895 224.776 158.857 224.88C158.442 224.915 157.941 224.949 157.353 224.984C156.765 225.019 156.108 225.036 155.381 225.036C153.998 225.036 152.943 224.846 152.217 224.465C151.49 224.085 151.127 223.393 151.127 222.391C151.127 221.526 151.473 220.644 152.165 219.745C152.857 218.846 153.825 217.775 155.07 216.53L156.315 215.285C156.869 214.697 157.889 213.694 159.376 212.277C161.832 210.064 163.734 208.11 165.083 206.416C166.466 204.721 167.158 203.044 167.158 201.385C167.158 200.313 166.639 199.448 165.602 198.791C164.599 198.1 163.44 197.754 162.126 197.754C160.12 197.754 158.667 198.204 157.768 199.103C156.903 199.967 156.471 201.229 156.471 202.889C156.471 203.304 156.229 203.684 155.745 204.03C155.295 204.341 154.724 204.497 154.033 204.497C153.064 204.497 152.39 204.151 152.009 203.459C151.629 202.768 151.439 201.921 151.439 200.918C151.439 199.327 151.923 197.927 152.891 196.717C153.86 195.472 155.174 194.504 156.834 193.812C158.529 193.121 160.396 192.775 162.437 192.775C163.89 192.775 165.394 193.138 166.951 193.864C168.542 194.556 169.856 195.507 170.893 196.717C171.966 197.892 172.502 199.189 172.502 200.607C172.502 202.751 171.966 204.791 170.893 206.727C169.821 208.663 168.559 210.392 167.106 211.914C165.688 213.4 163.838 215.164 161.555 217.204C160.448 218.138 159.463 219.019 158.598 219.849V219.849Z" fill="#00904C"/>
<path d="M185.939 222.391C185.939 223.255 185.593 224.068 184.901 224.828C184.209 225.555 183.448 225.918 182.618 225.918C181.65 225.918 180.768 225.658 179.972 225.14C179.177 224.586 178.779 223.895 178.779 223.065C178.779 221.751 179.021 220.783 179.505 220.16C180.024 219.538 180.785 219.227 181.788 219.227C182.964 219.227 183.95 219.521 184.745 220.109C185.541 220.662 185.939 221.423 185.939 222.391V222.391Z" fill="#00904C"/>
<path d="M214.109 195.991C215.251 197.754 216.167 199.777 216.859 202.059C217.551 204.307 217.896 206.606 217.896 208.957C217.896 211.758 217.412 214.421 216.444 216.945C215.51 219.469 214.092 221.526 212.19 223.117C210.322 224.708 208.039 225.503 205.342 225.503C202.817 225.503 200.499 224.863 198.39 223.584C196.28 222.27 194.689 220.748 193.617 219.02C192.821 217.74 192.216 216.305 191.801 214.715C191.386 213.09 191.178 211.464 191.178 209.839C191.178 207.004 191.766 204.238 192.942 201.541C194.153 198.844 195.813 196.682 197.923 195.057C199.929 193.571 202.229 192.827 204.823 192.827C207.693 192.827 210.789 193.882 214.109 195.991V195.991ZM200.205 199.57C199.894 200.088 199.583 200.555 199.272 200.97C198.511 202.111 197.957 203.079 197.611 203.875C197.266 204.635 196.954 205.811 196.678 207.402C196.539 208.128 196.47 208.975 196.47 209.943C196.47 212.398 196.954 214.524 197.923 216.323C198.926 218.086 200.292 219.279 202.021 219.901C202.851 220.212 203.785 220.368 204.823 220.368C207.417 220.368 209.371 219.227 210.685 216.945C212.034 214.628 212.708 211.776 212.708 208.387C212.708 205.24 212.12 202.664 210.945 200.659C209.769 198.619 207.953 197.599 205.497 197.599C204.494 197.599 203.629 197.754 202.903 198.066C202.211 198.377 201.312 198.878 200.205 199.57V199.57Z" fill="#00904C"/>
<path d="M6.58397 248.653C7.05584 249.449 7.52772 250.156 7.9996 250.776C8.48495 251.383 9.11862 252.131 9.90059 253.02C9.99496 253.115 10.0422 253.223 10.0422 253.344C10.0422 253.533 9.9343 253.694 9.71858 253.829C9.51635 253.964 9.26693 254.031 8.97032 254.031C8.55237 254.031 8.10071 253.856 7.61535 253.506C7.18392 253.196 6.79968 252.785 6.46262 252.272C6.12557 251.76 5.73458 251.093 5.28967 250.271C4.93913 249.637 4.73017 249.267 4.66275 249.159C4.13695 249.374 3.31453 249.509 2.1955 249.563C2.1955 250.021 2.23596 250.641 2.31685 251.423C2.39774 252.232 2.43819 252.818 2.43819 253.182C2.43819 253.425 2.31685 253.627 2.07417 253.789C1.84498 253.95 1.58207 254.031 1.28546 254.031C0.934928 254.031 0.665283 253.89 0.476531 253.607C0.287781 253.229 0.166442 252.778 0.112512 252.252C0.0585847 251.727 0.0316162 251.1 0.0316162 250.372C0.0316162 249.604 0.0788103 248.734 0.173185 247.764C0.254078 246.685 0.294515 245.89 0.294515 245.378C0.294515 244.96 0.254078 244.401 0.173185 243.7C0.159697 243.579 0.139472 243.37 0.112512 243.073C0.0855486 242.777 0.0720643 242.507 0.0720643 242.264C0.0720643 242.076 0.139482 241.914 0.274305 241.779C0.422609 241.631 0.577643 241.53 0.73943 241.476C1.83149 241.301 2.89659 241.213 3.93472 241.213C5.70089 241.213 7.1637 241.543 8.32317 242.204C9.48263 242.864 10.0624 243.868 10.0624 245.216C10.0624 245.634 9.96799 246.039 9.77924 246.429C9.60397 246.807 9.36129 247.124 9.0512 247.38C8.22879 248.013 7.40638 248.438 6.58397 248.653V248.653ZM7.93892 245.156C7.93892 244.509 7.59513 243.983 6.90754 243.579C6.21995 243.161 5.24249 242.952 3.97516 242.952C3.40891 242.952 2.8494 243.019 2.29663 243.154L2.31686 244.185C2.31686 244.778 2.29664 245.358 2.25619 245.924C2.21574 246.49 2.19552 247.097 2.19552 247.744C2.42472 247.69 2.66739 247.656 2.92356 247.642C3.17972 247.616 3.34825 247.595 3.42914 247.582C4.02236 247.528 4.48075 247.461 4.80432 247.38C5.41102 247.191 5.90986 247.022 6.30085 246.874C6.70531 246.712 7.07607 246.49 7.41313 246.207C7.76366 245.91 7.93894 245.56 7.93894 245.156H7.93892Z" fill="black"/>
<path d="M11.5791 249.725C11.5791 249.213 11.6735 248.7 11.8622 248.188C12.051 247.663 12.3004 247.184 12.6105 246.753C12.9206 246.321 13.4127 245.971 14.0868 245.701C14.7609 245.418 15.3609 245.277 15.8867 245.277C16.426 245.277 16.972 245.351 17.5248 245.499C18.091 245.648 18.482 245.877 18.6977 246.187C19.1966 246.888 19.446 247.575 19.446 248.249C19.446 248.613 19.3651 248.923 19.2033 249.179C19.055 249.435 18.8393 249.711 18.5562 250.008C18.327 250.251 17.9629 250.412 17.4641 250.493C16.9787 250.574 16.4934 250.614 16.008 250.614C15.6979 250.614 15.3204 250.587 14.8755 250.534C14.4306 250.466 13.9992 250.385 13.5812 250.291C13.6082 250.561 13.6756 250.823 13.7835 251.079C13.8913 251.336 14.0194 251.531 14.1677 251.666C14.4373 251.922 14.7137 252.084 14.9968 252.151C15.2935 252.218 15.671 252.252 16.1294 252.252C16.6147 252.252 17.0664 252.171 17.4843 252.009C17.8214 251.888 18.0978 251.828 18.3135 251.828C18.5696 251.828 18.7651 251.908 18.9 252.07C19.0348 252.218 19.1022 252.414 19.1022 252.656C19.1022 252.993 18.9067 253.27 18.5157 253.485C18.1247 253.701 17.6731 253.863 17.1608 253.971C16.6619 254.065 16.2574 254.112 15.9474 254.112C15.3137 254.112 14.7002 253.998 14.107 253.768C13.5138 253.539 13.0217 253.216 12.6307 252.798C12.3072 252.421 12.051 251.969 11.8622 251.443C11.6735 250.904 11.5791 250.331 11.5791 249.725V249.725ZM15.9878 246.995C15.6912 246.995 15.3946 247.056 15.098 247.177C14.8014 247.285 14.5587 247.44 14.3699 247.642C14.1272 247.898 13.9587 248.107 13.8643 248.269C13.7834 248.417 13.7295 248.626 13.7026 248.896C14.0396 249.004 14.7407 249.058 15.8058 249.058C16.3855 249.058 16.8304 248.97 17.1405 248.795C17.4641 248.62 17.6259 248.39 17.6259 248.107C17.6259 247.824 17.4506 247.568 17.1001 247.339C16.7495 247.11 16.3788 246.995 15.9878 246.995V246.995Z" fill="black"/>
<path d="M28.688 253.971C29.052 254.227 29.2947 254.51 29.416 254.82C29.5509 255.13 29.6183 255.561 29.6183 256.114C29.6183 256.383 29.5374 256.653 29.3756 256.923C29.2273 257.192 29.0722 257.388 28.9105 257.509C27.6296 258.21 26.3488 258.56 25.068 258.56C24.4344 258.56 23.8883 258.479 23.4299 258.318C22.9715 258.156 22.5401 257.94 22.1356 257.671C21.866 257.468 21.6435 257.185 21.4683 256.821C21.3065 256.471 21.2256 256.121 21.2256 255.77C21.2256 255.285 21.3739 254.86 21.6705 254.496C21.9806 254.132 22.3918 253.87 22.9041 253.708C22.8097 253.506 22.7626 253.27 22.7626 253C22.7626 252.744 22.9513 252.36 23.3288 251.848C22.6817 251.632 22.1693 251.248 21.7918 250.695C21.4278 250.143 21.2458 249.496 21.2458 248.754C21.2458 248.296 21.3537 247.892 21.5694 247.541C21.7851 247.177 22.1087 246.76 22.5401 246.288C22.8367 245.964 23.2142 245.728 23.6726 245.58C24.131 245.432 24.704 245.358 25.3916 245.358C25.877 245.358 26.4769 245.466 27.1915 245.681C28.0408 245.088 28.7891 244.792 29.4363 244.792C29.598 244.792 29.7801 244.832 29.9823 244.913C30.198 244.994 30.3598 245.075 30.4676 245.156C30.5485 245.304 30.589 245.553 30.589 245.904C30.589 246.038 30.5283 246.173 30.407 246.308C30.2991 246.429 30.1576 246.49 29.9823 246.49L29.4969 246.47C29.2543 246.443 29.0655 246.429 28.9307 246.429C28.7824 246.429 28.5599 246.443 28.2633 246.47C28.5464 246.807 28.7622 247.164 28.9105 247.541C29.0722 247.919 29.1531 248.411 29.1531 249.017C29.1531 249.476 28.9846 249.954 28.6475 250.453C28.3105 250.951 27.9128 251.342 27.4544 251.625C26.7533 252.003 25.9376 252.198 25.0074 252.212C24.8995 252.32 24.8051 252.421 24.7242 252.515C24.6568 252.596 24.6231 252.663 24.6231 252.717C24.6231 252.865 24.7512 252.98 25.0074 253.061C25.2635 253.142 25.6545 253.202 26.1803 253.243C26.5848 253.27 27.0297 253.357 27.515 253.506C28.0139 253.64 28.4049 253.795 28.688 253.971V253.971ZM25.1287 250.554C25.7489 250.554 26.2477 250.385 26.6252 250.048C27.0027 249.711 27.1915 249.233 27.1915 248.613C27.1915 248.141 27.0229 247.757 26.6859 247.46C26.3488 247.164 25.9174 247.016 25.3916 247.016C25.0545 247.016 24.6905 247.076 24.2995 247.198C23.922 247.305 23.6524 247.481 23.4906 247.723C23.4097 247.831 23.3288 248.04 23.2479 248.35C23.167 248.647 23.1266 248.876 23.1266 249.037C23.1266 249.267 23.221 249.502 23.4097 249.745C23.6119 249.974 23.8681 250.17 24.1782 250.331C24.5018 250.48 24.8186 250.554 25.1287 250.554V250.554ZM26.4028 254.941C25.6612 254.874 25.1354 254.806 24.8253 254.739C24.5287 254.685 24.286 254.618 24.0973 254.537C23.4097 254.901 23.0659 255.298 23.0659 255.73C23.0659 256.134 23.2749 256.437 23.6928 256.639C24.1108 256.855 24.5894 256.963 25.1287 256.963C25.3714 256.963 25.7017 256.936 26.1196 256.882C26.5376 256.828 26.8881 256.734 27.1712 256.599C27.36 256.505 27.5016 256.41 27.5959 256.316C27.6903 256.235 27.7375 256.08 27.7375 255.851C27.7375 255.568 27.5892 255.352 27.2926 255.204C26.996 255.056 26.6994 254.968 26.4028 254.941V254.941Z" fill="black"/>
<path d="M32.6316 245.236C33.5214 245.236 33.9663 245.823 33.9663 246.995C33.9663 247.144 33.9528 247.474 33.9258 247.986C33.8989 248.579 33.8854 249.044 33.8854 249.381C33.8854 250.325 34.0135 251.086 34.2697 251.666C34.364 251.854 34.5325 252.003 34.7752 252.111C35.0314 252.218 35.2471 252.272 35.4224 252.272C35.692 252.272 35.9145 252.239 36.0897 252.171C36.265 252.104 36.4268 252.003 36.5751 251.868C36.7369 251.733 36.8919 251.585 37.0402 251.423C37.2964 251.14 37.4582 250.817 37.5256 250.453C37.6065 250.075 37.6537 249.577 37.6672 248.957C37.6672 248.566 37.6874 248.188 37.7279 247.824C37.8088 247.231 37.8492 246.679 37.8492 246.166C37.8492 245.883 37.9233 245.648 38.0716 245.459C38.2334 245.257 38.4626 245.156 38.7592 245.156C38.9075 245.156 39.0828 245.209 39.285 245.317C39.5007 245.412 39.6423 245.519 39.7097 245.641C39.8041 245.803 39.8513 246.025 39.8513 246.308C39.8513 246.483 39.8311 246.645 39.7906 246.793C39.7232 246.995 39.6895 247.251 39.6895 247.561C39.6895 247.723 39.703 247.993 39.73 248.37C39.7704 248.653 39.7906 248.943 39.7906 249.24C39.7906 250.143 39.858 250.81 39.9928 251.241C40.1412 251.699 40.3434 252.104 40.5995 252.454C40.8692 252.737 41.0512 252.946 41.1456 253.081C41.2399 253.202 41.2872 253.31 41.2872 253.404C41.2872 253.566 41.2063 253.721 41.0445 253.87C40.8827 254.018 40.7141 254.092 40.5389 254.092C40.04 254.092 39.6019 253.923 39.2244 253.586C38.8603 253.236 38.5907 252.791 38.4154 252.252C38.2671 252.427 38.0716 252.643 37.8289 252.899C37.5863 253.155 37.3571 253.364 37.1414 253.526C36.6156 253.903 35.9414 254.092 35.119 254.092C34.782 254.092 34.4112 253.991 34.0067 253.789C33.6158 253.586 33.2585 253.324 32.9349 253C32.6113 252.663 32.3889 252.306 32.2675 251.929C32.254 251.902 32.2136 251.794 32.1462 251.605C32.0923 251.416 32.0653 251.133 32.0653 250.756L32.045 247.521C32.045 247.332 31.9978 247.036 31.9034 246.631C31.8226 246.362 31.7821 246.16 31.7821 246.025C31.7821 245.796 31.8563 245.607 32.0046 245.459C32.1664 245.311 32.3753 245.236 32.6315 245.236H32.6316Z" fill="black"/>
<path d="M45.0688 250.877C45.0688 251.389 45.1429 251.787 45.2912 252.07C45.453 252.34 45.6553 252.474 45.898 252.474C46.0328 252.474 46.1608 252.468 46.2822 252.454C46.4035 252.427 46.5249 252.414 46.6462 252.414C46.781 252.414 46.8956 252.481 46.99 252.616C47.0979 252.751 47.1518 252.899 47.1518 253.061C47.1518 253.384 46.9968 253.64 46.6867 253.829C46.3901 254.004 45.9856 254.092 45.4732 254.092C45.1092 254.092 44.7385 253.984 44.361 253.768C43.997 253.539 43.6936 253.189 43.4509 252.717C43.2082 252.232 43.0869 251.632 43.0869 250.918C43.0869 249.381 43.1139 248.08 43.1678 247.016C43.2352 245.749 43.2689 244.151 43.2689 242.224C43.2689 241.617 43.3026 241.193 43.37 240.95C43.4509 240.762 43.579 240.62 43.7543 240.526C43.943 240.418 44.1385 240.364 44.3408 240.364C44.543 240.364 44.7183 240.398 44.8666 240.465C45.0283 240.532 45.1362 240.64 45.1901 240.789C45.2441 240.95 45.2778 241.112 45.2912 241.274C45.3182 241.422 45.3317 241.638 45.3317 241.921C45.3317 242.473 45.3115 243.006 45.271 243.518C45.2441 244.138 45.2306 244.59 45.2306 244.873C45.1227 247.245 45.0688 249.246 45.0688 250.877V250.877Z" fill="black"/>
<path d="M57.7084 253.041C57.7084 253.337 57.5466 253.586 57.223 253.789C56.8994 253.991 56.6028 254.092 56.3332 254.092C55.8343 254.092 55.4299 254.031 55.1198 253.91C54.8232 253.775 54.5401 253.533 54.2704 253.182C53.9334 253.492 53.4615 253.728 52.8548 253.89C52.2481 254.038 51.6886 254.112 51.1763 254.112C50.3403 254.112 49.646 253.89 49.0932 253.445C48.5539 252.987 48.2843 252.319 48.2843 251.443C48.2843 251.066 48.3989 250.689 48.6281 250.311C48.8573 249.92 49.1404 249.61 49.4775 249.381C49.8415 249.139 50.2527 248.977 50.7111 248.896C51.1695 248.802 51.702 248.754 52.3087 248.754C52.5919 248.754 52.9289 248.808 53.3199 248.916C53.7109 249.024 54.021 249.139 54.2502 249.26V248.936C54.2502 248.208 54.0682 247.71 53.7041 247.44C53.3536 247.157 52.7874 247.016 52.0054 247.016C51.7627 247.016 51.5402 247.056 51.338 247.137C51.1493 247.204 50.9268 247.305 50.6707 247.44C50.428 247.575 50.1988 247.642 49.9831 247.642C49.7943 247.642 49.6123 247.568 49.437 247.42C49.2618 247.258 49.1741 247.09 49.1741 246.915C49.1741 246.348 49.5247 245.937 50.2257 245.681C50.9403 245.412 51.6684 245.277 52.4099 245.277C52.7874 245.277 53.2188 245.358 53.7041 245.519C54.1895 245.668 54.6007 245.877 54.9378 246.146C55.3422 246.483 55.6523 246.888 55.868 247.359C56.0972 247.831 56.2118 248.343 56.2118 248.896C56.2118 249.071 56.1984 249.334 56.1714 249.684C56.1444 250.062 56.1309 250.385 56.1309 250.655L56.1106 251.201C56.0837 251.497 56.0702 251.733 56.0702 251.908C56.0702 252.07 56.1241 252.212 56.232 252.333C56.3533 252.441 56.4949 252.495 56.6567 252.495L57.2229 252.474C57.3712 252.474 57.4858 252.535 57.5667 252.656C57.6611 252.764 57.7083 252.892 57.7083 253.041L57.7084 253.041ZM51.1763 252.515C51.756 252.515 52.2413 252.454 52.6323 252.333C53.0233 252.212 53.4952 251.989 54.0479 251.666C54.1019 251.437 54.1356 251.133 54.1491 250.756C53.4075 250.406 52.7941 250.23 52.3087 250.23C51.8503 250.23 51.4796 250.251 51.1964 250.291C50.9133 250.318 50.6572 250.432 50.428 250.635C50.1988 250.837 50.0842 251.16 50.0842 251.605C50.0842 251.861 50.2055 252.077 50.4482 252.252C50.7044 252.427 50.947 252.515 51.1763 252.515V252.515Z" fill="black"/>
<path d="M61.8339 253.202C61.807 253.432 61.7126 253.634 61.5508 253.809C61.389 253.984 61.18 254.072 60.9239 254.072C60.5194 254.072 60.2228 253.998 60.034 253.849C59.8453 253.688 59.7509 253.398 59.7509 252.98C59.7509 252.414 59.7846 251.794 59.852 251.12C59.9059 250.338 59.9329 249.738 59.9329 249.321C59.9329 249.105 59.9194 248.835 59.8925 248.512C59.8655 248.215 59.852 247.993 59.852 247.845C59.8116 247.616 59.7172 247.434 59.5689 247.299C59.4341 247.164 59.2184 247.049 58.9217 246.955C58.8004 246.901 58.6993 246.814 58.6184 246.692C58.5375 246.557 58.4971 246.436 58.4971 246.328C58.4971 246.018 58.6184 245.782 58.8611 245.621C59.1038 245.459 59.4004 245.378 59.7509 245.378C60.1419 245.378 60.479 245.513 60.7621 245.782C61.0452 246.052 61.2609 246.389 61.4092 246.793C61.7193 246.349 62.0968 245.991 62.5417 245.722C63.0001 245.452 63.445 245.317 63.8765 245.317C64.4292 245.317 64.8944 245.412 65.2719 245.6C65.6629 245.776 65.8584 246.086 65.8584 246.53C65.8584 246.787 65.7437 247.056 65.5145 247.339C65.2988 247.609 65.0764 247.744 64.8472 247.744C64.6719 247.744 64.463 247.663 64.2203 247.501C64.1259 247.434 64.018 247.38 63.8967 247.339C63.7888 247.285 63.6742 247.258 63.5529 247.258C63.3372 247.258 63.1349 247.292 62.9462 247.359C62.7574 247.427 62.6294 247.508 62.562 247.602C62.3462 247.939 62.1844 248.242 62.0766 248.512C61.9822 248.781 61.935 249.071 61.935 249.381C61.935 249.61 61.9282 249.792 61.9147 249.927L61.8944 251.08L61.9147 251.848C61.9147 252.414 61.8877 252.865 61.8338 253.202H61.8339Z" fill="black"/>
<path d="M68.083 241.031C68.5548 241.072 68.9661 241.2 69.3166 241.415C69.6671 241.617 69.8424 241.927 69.8424 242.345C69.8424 242.655 69.6941 242.905 69.3975 243.093C69.1144 243.269 68.7706 243.356 68.3661 243.356C67.9751 243.356 67.7055 243.255 67.5572 243.053C67.4089 242.851 67.3347 242.642 67.3347 242.426C67.3347 242.022 67.3752 241.685 67.4561 241.415C67.5504 241.146 67.7594 241.018 68.083 241.031ZM69.7008 249.988V250.574C69.7008 251.1 69.7143 251.598 69.7413 252.07C69.7817 252.528 69.8289 252.994 69.8829 253.465C69.8693 253.6 69.7682 253.742 69.5795 253.89C69.3908 254.025 69.2222 254.092 69.0739 254.092C68.8177 254.092 68.5549 254.045 68.2852 253.95C68.0291 253.843 67.874 253.715 67.8201 253.566C67.7392 253.135 67.6987 252.751 67.6987 252.414C67.6987 251.309 67.665 250.069 67.5976 248.694C67.5437 247.481 67.5167 246.632 67.5167 246.146C67.5167 245.904 67.6381 245.695 67.8807 245.52C68.1234 245.344 68.3796 245.257 68.6492 245.257C69.0402 245.257 69.3099 245.344 69.4582 245.52C69.6199 245.695 69.7008 245.971 69.7008 246.349V249.988Z" fill="black"/>
<path d="M79.226 247.097C78.9429 247.582 78.5586 248.081 78.0733 248.593C77.5879 249.105 76.9677 249.712 76.2127 250.412C75.4982 251.086 75.1004 251.47 75.0195 251.565L74.3319 252.192C74.6016 252.246 75.1072 252.272 75.8487 252.272C76.1453 252.272 76.5767 252.219 77.143 252.111C77.6823 252.003 78.08 251.949 78.3362 251.949C78.5519 251.949 78.7946 251.983 79.0642 252.05C79.3473 252.117 79.6102 252.219 79.8529 252.353C79.9742 252.407 80.0754 252.515 80.1563 252.677C80.2372 252.825 80.2776 252.967 80.2776 253.101C80.2776 253.277 80.2169 253.472 80.0956 253.688C79.9743 253.903 79.8327 254.011 79.6709 254.011C79.5226 254.011 79.3271 253.984 79.0844 253.93C78.7204 253.863 78.4643 253.829 78.316 253.829C77.8441 253.829 77.2171 253.863 76.4352 253.93C75.3566 254.011 74.5611 254.052 74.0488 254.052C73.4017 254.052 72.8893 253.971 72.5118 253.809C72.1478 253.647 71.9658 253.344 71.9658 252.899C71.9658 252.562 72.1343 252.178 72.4714 251.747C72.8085 251.302 73.2197 250.837 73.705 250.352L73.9881 250.048C74.2039 249.833 74.5679 249.509 75.0802 249.078C75.5925 248.633 75.9835 248.283 76.2532 248.027C76.5228 247.757 76.7453 247.474 76.9206 247.177L73.6848 247.198C73.159 247.198 72.768 247.137 72.5118 247.016C72.2692 246.894 72.1478 246.665 72.1478 246.328C72.1478 246.14 72.2152 245.964 72.35 245.803C72.4849 245.627 72.6601 245.52 72.8758 245.479C73.3612 245.412 74.3521 245.378 75.8487 245.378C77.3452 245.378 78.3766 245.452 78.9428 245.6C79.0912 245.654 79.2058 245.755 79.2867 245.904C79.381 246.039 79.4282 246.18 79.4282 246.328C79.4282 246.571 79.3608 246.827 79.226 247.097V247.097Z" fill="black"/>
<path d="M89.2971 254.092C88.8387 254.092 88.4882 254.025 88.2455 253.89C88.0028 253.742 87.7399 253.472 87.4568 253.081C87.1063 253.391 86.5805 253.64 85.8794 253.829C85.1918 254.018 84.5986 254.112 84.0997 254.112C83.2773 254.112 82.6099 253.89 82.0976 253.445C81.5988 252.987 81.3494 252.32 81.3494 251.443C81.3494 251.066 81.4505 250.722 81.6527 250.412C81.8684 250.089 82.1448 249.806 82.4819 249.563C82.8594 249.307 83.3043 249.105 83.8166 248.957C84.3424 248.808 84.821 248.734 85.2524 248.734C85.9805 248.734 86.6276 248.802 87.1939 248.936V248.916C87.1939 248.188 87.0119 247.69 86.6478 247.42C86.2973 247.137 85.7311 246.995 84.9491 246.995C84.4503 246.995 84.0188 247.218 83.6548 247.663C83.52 247.838 83.2369 247.926 82.8054 247.926C82.5897 247.926 82.4279 247.838 82.3201 247.663C82.2257 247.474 82.1785 247.285 82.1785 247.097C82.1785 246.706 82.3403 246.369 82.6639 246.086C83.0009 245.803 83.4054 245.594 83.8773 245.459C84.3491 245.311 84.7873 245.237 85.1918 245.237C85.5828 245.237 86.0479 245.317 86.5872 245.479C87.1265 245.641 87.5646 245.857 87.9017 246.126C88.3062 246.477 88.6163 246.888 88.832 247.359C89.0612 247.818 89.1758 248.323 89.1758 248.876C89.1758 249.051 89.1623 249.314 89.1353 249.664C89.1083 250.069 89.0949 250.399 89.0949 250.655C89.0949 250.776 89.0814 250.931 89.0544 251.12C89.0275 251.363 89.014 251.565 89.014 251.727C89.014 251.902 89.0679 252.07 89.1758 252.232C89.2836 252.394 89.4319 252.528 89.6207 252.636C89.7959 252.731 89.9106 252.832 89.9645 252.94C90.0184 253.047 90.0454 253.169 90.0454 253.304C90.0454 253.438 89.9577 253.607 89.7825 253.809C89.6207 253.998 89.4589 254.092 89.2971 254.092V254.092ZM85.2524 250.23C84.7266 250.23 84.2615 250.331 83.857 250.534C83.4526 250.736 83.2503 251.093 83.2503 251.605C83.2503 251.861 83.338 252.077 83.5133 252.252C83.702 252.427 83.9042 252.515 84.1199 252.515C84.6997 252.515 85.185 252.454 85.576 252.333C85.967 252.212 86.4389 251.989 86.9916 251.666C87.059 251.45 87.0995 251.147 87.113 250.756C87.113 250.608 87.1198 250.493 87.1333 250.412C86.4053 250.291 85.7784 250.23 85.2525 250.23H85.2524Z" fill="black"/>
<path d="M94.1305 255.507C94.1305 255.386 94.1709 255.264 94.2518 255.143C94.3462 255.022 94.4675 254.88 94.6158 254.719C94.8585 254.422 95.0608 254.2 95.2226 254.051C94.508 253.97 93.8541 253.748 93.2609 253.384C92.6811 253.007 92.216 252.515 91.8655 251.908C91.5284 251.302 91.3599 250.621 91.3599 249.866C91.3599 249.004 91.5554 248.215 91.9464 247.501C92.3373 246.786 92.8632 246.227 93.5238 245.823C94.1844 245.418 94.9057 245.216 95.6877 245.216C96.1326 245.216 96.591 245.297 97.0629 245.459C97.5348 245.62 97.9325 245.856 98.2561 246.166C98.5796 246.476 98.7414 246.84 98.7414 247.258C98.7414 247.851 98.4381 248.148 97.8314 248.148C97.6291 248.148 97.4606 248.101 97.3258 248.006C97.191 247.912 97.0426 247.77 96.8809 247.582C96.4764 247.137 96.1259 246.914 95.8293 246.914C95.4383 246.914 95.054 247.029 94.6765 247.258C94.3125 247.487 94.0159 247.811 93.7867 248.229C93.5575 248.646 93.4429 249.111 93.4429 249.624C93.4429 250.19 93.5507 250.661 93.7665 251.039C93.9956 251.416 94.3462 251.74 94.8181 252.009C94.9934 252.104 95.1956 252.178 95.4248 252.232C95.6675 252.286 95.8764 252.313 96.0517 252.313C96.4427 252.313 96.9348 252.158 97.528 251.848C97.7437 251.74 97.9257 251.659 98.0741 251.605C98.2224 251.551 98.3774 251.524 98.5392 251.524C98.6875 251.524 98.856 251.592 99.0448 251.726C99.2335 251.861 99.3279 252.03 99.3279 252.232C99.3279 252.69 99.0717 253.074 98.5594 253.384C98.0471 253.681 97.4336 253.89 96.7191 254.011C96.6786 254.092 96.5371 254.281 96.2944 254.577C96.0247 254.941 95.8764 255.143 95.8495 255.184C96.4022 255.237 96.8404 255.392 97.164 255.649C97.501 255.918 97.6696 256.296 97.6696 256.781C97.6696 257.212 97.3864 257.65 96.8202 258.095C96.6314 258.23 96.3618 258.338 96.0113 258.418C95.6742 258.513 95.2832 258.56 94.8383 258.56C94.5147 258.56 94.2316 258.472 93.9889 258.297C93.7597 258.135 93.6451 257.92 93.6451 257.65C93.6451 257.542 93.6923 257.448 93.7867 257.367C93.8945 257.286 94.0024 257.246 94.1103 257.246C94.2451 257.246 94.3799 257.286 94.5147 257.367C94.6495 257.448 94.7709 257.488 94.8787 257.488C95.0405 257.488 95.2158 257.468 95.4046 257.428C95.6068 257.387 95.7618 257.34 95.8697 257.286C95.9641 257.232 96.045 257.145 96.1124 257.023C96.1798 256.916 96.2135 256.794 96.2135 256.659C96.2135 256.39 96.0382 256.221 95.6877 256.154C95.3506 256.087 94.9866 256.053 94.5956 256.053C94.4878 256.053 94.3799 255.986 94.272 255.851C94.1777 255.729 94.1305 255.615 94.1305 255.507V255.507Z" fill="black"/>
<path d="M101.714 243.579C101.714 243.242 101.836 242.938 102.078 242.669C102.321 242.399 102.624 242.19 102.988 242.042C103.352 241.88 103.703 241.799 104.04 241.799C104.552 241.799 105.044 241.961 105.516 242.285C105.894 242.554 106.204 242.682 106.446 242.669C106.581 242.669 106.689 242.635 106.77 242.568C106.851 242.5 106.912 242.426 106.952 242.345C107.006 242.264 107.04 242.211 107.053 242.184C107.134 242.062 107.222 241.975 107.316 241.921C107.41 241.853 107.532 241.82 107.68 241.82C107.855 241.82 108.01 241.874 108.145 241.981C108.294 242.076 108.368 242.224 108.368 242.426C108.368 242.696 108.267 242.965 108.064 243.235C107.876 243.491 107.626 243.707 107.316 243.882C107.019 244.044 106.716 244.124 106.406 244.124C106.055 244.124 105.772 244.077 105.557 243.983C105.341 243.889 105.105 243.747 104.849 243.558C104.687 243.437 104.552 243.349 104.444 243.296C104.35 243.242 104.242 243.215 104.121 243.215C103.716 243.215 103.406 243.376 103.19 243.7C102.975 244.01 102.698 244.165 102.361 244.165C102.227 244.165 102.085 244.111 101.937 244.003C101.788 243.895 101.714 243.754 101.714 243.579V243.579ZM110.248 253.041C110.248 252.879 110.208 252.744 110.127 252.636C110.046 252.528 109.932 252.475 109.783 252.475L109.217 252.495C109.055 252.495 108.914 252.441 108.792 252.333C108.671 252.212 108.61 252.07 108.61 251.908C108.61 251.733 108.624 251.497 108.651 251.201C108.678 250.958 108.691 250.776 108.691 250.655C108.691 250.385 108.705 250.062 108.732 249.684C108.759 249.334 108.772 249.071 108.772 248.896C108.772 248.343 108.658 247.838 108.428 247.38C108.213 246.908 107.903 246.497 107.498 246.146C107.161 245.877 106.73 245.668 106.204 245.52C105.678 245.358 105.213 245.277 104.808 245.277C104.404 245.277 103.946 245.351 103.433 245.499C102.921 245.634 102.476 245.843 102.098 246.126C101.734 246.409 101.552 246.746 101.552 247.137C101.552 247.272 101.606 247.427 101.714 247.602C101.822 247.764 101.937 247.845 102.058 247.845C102.395 247.845 102.752 247.744 103.13 247.541C103.413 247.38 103.662 247.252 103.878 247.157C104.107 247.063 104.336 247.016 104.566 247.016C105.348 247.016 105.914 247.157 106.264 247.44C106.615 247.71 106.79 248.209 106.79 248.936V249.26C106.575 249.139 106.271 249.024 105.88 248.916C105.489 248.808 105.152 248.754 104.869 248.754C104.33 248.754 103.811 248.829 103.312 248.977C102.813 249.112 102.368 249.307 101.977 249.563C101.627 249.806 101.35 250.089 101.148 250.412C100.946 250.722 100.845 251.066 100.845 251.443C100.845 252.32 101.114 252.987 101.654 253.445C102.193 253.89 102.88 254.112 103.716 254.112C104.229 254.112 104.788 254.038 105.395 253.89C106.002 253.728 106.48 253.492 106.831 253.182C107.087 253.533 107.363 253.775 107.66 253.91C107.97 254.031 108.381 254.092 108.893 254.092C109.163 254.092 109.453 253.991 109.763 253.789C110.087 253.587 110.248 253.337 110.248 253.041V253.041ZM103.737 252.515C103.507 252.515 103.285 252.427 103.069 252.252C102.853 252.077 102.746 251.861 102.746 251.605C102.746 251.093 102.961 250.736 103.393 250.534C103.824 250.331 104.316 250.23 104.869 250.23C105.354 250.23 105.968 250.406 106.709 250.756C106.696 251.133 106.662 251.437 106.608 251.666C106.055 251.989 105.584 252.212 105.193 252.333C104.802 252.454 104.316 252.515 103.737 252.515V252.515Z" fill="black"/>
<path d="M119.551 247.521C119.659 247.71 119.747 247.986 119.814 248.35C119.882 248.701 119.915 249.017 119.915 249.3C119.915 249.678 119.855 250.15 119.733 250.716C119.612 251.268 119.511 251.639 119.43 251.828C118.702 253.337 117.3 254.092 115.223 254.092C114.563 254.092 113.916 253.876 113.282 253.445C112.648 253 112.197 252.481 111.927 251.888L111.785 251.484C111.772 251.43 111.698 251.228 111.563 250.877C111.442 250.513 111.381 250.237 111.381 250.048C111.381 249.496 111.516 248.856 111.785 248.128C112.055 247.4 112.365 246.82 112.716 246.389C112.945 246.079 113.383 245.816 114.03 245.6C114.677 245.371 115.25 245.257 115.749 245.257C116.679 245.257 117.428 245.432 117.994 245.782C118.574 246.133 119.093 246.712 119.551 247.521V247.521ZM117.691 250.776C117.745 250.682 117.792 250.513 117.832 250.271C117.873 250.028 117.893 249.745 117.893 249.422C117.893 249.031 117.819 248.647 117.67 248.269C117.536 247.892 117.333 247.568 117.064 247.299C117.05 247.272 117.003 247.231 116.922 247.177C116.841 247.11 116.713 247.049 116.538 246.996C116.363 246.928 116.14 246.894 115.871 246.894C115.345 246.894 114.9 247.049 114.536 247.359C114.172 247.669 113.895 248.054 113.707 248.512C113.531 248.97 113.444 249.422 113.444 249.866C113.444 249.988 113.484 250.237 113.565 250.615C113.646 250.992 113.707 251.235 113.747 251.342C113.855 251.531 114.064 251.754 114.374 252.01C114.684 252.252 115.035 252.374 115.426 252.374C116.032 252.374 116.504 252.232 116.841 251.949C117.192 251.666 117.475 251.275 117.691 250.776V250.776Z" fill="black"/>
<path d="M136.013 253.708C135.838 253.479 135.689 253.229 135.568 252.96C135.447 252.677 135.319 252.34 135.184 251.949C135.157 251.882 135.076 251.679 134.941 251.342C134.82 251.005 134.678 250.716 134.516 250.473C133.667 250.594 132.973 250.655 132.433 250.655C132.137 250.655 131.807 250.648 131.442 250.635C131.092 250.608 130.829 250.594 130.654 250.594C129.98 250.54 129.44 250.513 129.036 250.513C128.874 250.729 128.733 250.958 128.611 251.201C128.503 251.443 128.362 251.807 128.187 252.293C127.944 252.994 127.735 253.492 127.56 253.789C127.438 253.991 127.202 254.092 126.852 254.092C126.555 254.092 126.279 254.031 126.023 253.91C125.78 253.775 125.659 253.593 125.659 253.364C125.766 252.852 125.935 252.313 126.164 251.747C126.407 251.167 126.751 250.399 127.196 249.442L128.005 247.461C128.449 246.328 128.854 245.358 129.218 244.549C129.595 243.74 130.088 242.783 130.694 241.678C130.775 241.516 130.91 241.382 131.099 241.274C131.287 241.152 131.496 241.092 131.726 241.092C131.982 241.092 132.164 241.112 132.272 241.152C132.393 241.179 132.487 241.233 132.555 241.314C132.622 241.382 132.723 241.53 132.858 241.759C133.317 242.473 133.707 243.208 134.031 243.963C134.368 244.718 134.793 245.762 135.305 247.097L135.73 248.168C136.107 249.139 136.431 249.954 136.701 250.615C136.984 251.262 137.294 251.855 137.631 252.394C137.847 252.744 137.954 252.987 137.954 253.122C137.954 253.445 137.853 253.694 137.651 253.87C137.462 254.031 137.213 254.112 136.903 254.112C136.512 254.112 136.215 253.977 136.013 253.708V253.708ZM133.93 248.815C133.714 248.357 133.404 247.562 133 246.429C132.582 245.216 132.164 244.253 131.746 243.538C131.49 244.185 131.112 245.021 130.613 246.045C130.276 246.679 129.892 247.595 129.461 248.795C130.323 248.903 131.254 248.957 132.251 248.957C132.966 248.957 133.526 248.909 133.93 248.815V248.815Z" fill="black"/>
<path d="M152.111 253.303C151.908 252.926 151.78 252.508 151.726 252.05C151.673 251.578 151.646 250.931 151.646 250.109C151.646 249.327 151.538 248.647 151.322 248.067C151.106 247.487 150.661 247.198 149.987 247.198C149.731 247.198 149.475 247.278 149.219 247.44C148.976 247.588 148.794 247.777 148.673 248.006C148.484 248.37 148.356 248.768 148.288 249.199C148.221 249.617 148.187 250.102 148.187 250.655C148.187 251.005 148.208 251.363 148.248 251.726C148.248 251.834 148.255 252.009 148.268 252.252C148.295 252.481 148.309 252.69 148.309 252.879C148.309 253.688 148.026 254.092 147.459 254.092C146.718 254.092 146.327 253.701 146.286 252.919C146.286 252.367 146.293 252.07 146.307 252.03V251.16C146.307 250.675 146.287 250.203 146.246 249.745C146.206 249.287 146.158 248.943 146.105 248.714C145.983 248.269 145.821 247.925 145.619 247.683C145.43 247.44 145.127 247.319 144.709 247.319C144.116 247.319 143.637 247.575 143.273 248.087C143.017 248.492 142.849 248.984 142.768 249.563C142.687 250.304 142.626 250.891 142.586 251.322C142.559 251.74 142.545 252.225 142.545 252.778C142.545 253.169 142.478 253.485 142.343 253.728C142.222 253.971 141.986 254.092 141.635 254.092C141.379 254.092 141.109 254.025 140.826 253.89C140.557 253.742 140.422 253.546 140.422 253.303C140.422 253.047 140.449 252.791 140.503 252.535C140.624 251.767 140.685 250.392 140.685 248.411C140.685 248.087 140.604 247.777 140.442 247.481C140.294 247.171 140.112 247.016 139.896 247.016C139.842 247.016 139.741 247.043 139.593 247.096C139.458 247.15 139.357 247.177 139.289 247.177C139.114 247.177 138.952 247.096 138.804 246.935C138.669 246.773 138.602 246.638 138.602 246.53C138.602 246.193 138.763 245.91 139.087 245.681C139.424 245.439 139.775 245.317 140.139 245.317C140.638 245.317 141.062 245.472 141.413 245.782C141.763 246.092 142.033 246.524 142.222 247.076C142.532 246.537 142.95 246.106 143.475 245.782C144.001 245.445 144.588 245.277 145.235 245.277C145.639 245.277 145.963 245.331 146.206 245.439C146.462 245.533 146.671 245.674 146.833 245.863C146.994 246.038 147.203 246.308 147.459 246.672C147.797 246.241 148.228 245.904 148.754 245.661C149.293 245.418 149.846 245.297 150.412 245.297C151.086 245.297 151.693 245.573 152.232 246.126C152.771 246.665 153.135 247.292 153.324 248.006C153.419 248.37 153.466 249.071 153.466 250.109L153.547 251.282C153.614 251.983 153.843 252.407 154.234 252.555C154.693 252.69 154.922 252.832 154.922 252.98C154.922 253.303 154.841 253.539 154.679 253.688C154.558 253.768 154.389 253.856 154.174 253.95C153.958 254.045 153.789 254.092 153.668 254.092C152.94 254.092 152.421 253.829 152.111 253.303H152.111Z" fill="black"/>
<path d="M156.843 250.372C156.843 249.617 156.85 249.044 156.863 248.653L156.884 246.733C156.884 245.951 156.863 245.095 156.823 244.165C156.809 243.882 156.762 243.491 156.681 242.992C156.573 242.238 156.52 241.671 156.52 241.294C156.52 240.674 156.83 240.364 157.45 240.364C157.841 240.364 158.117 240.472 158.279 240.687C158.454 240.89 158.576 241.213 158.643 241.658C158.778 242.588 158.845 243.68 158.845 244.933C158.845 245.311 158.832 245.877 158.805 246.632C159.061 246.227 159.391 245.91 159.796 245.681C160.214 245.452 160.625 245.338 161.029 245.338C162.202 245.338 163.213 245.823 164.063 246.793C164.292 247.13 164.494 247.535 164.67 248.006C164.858 248.465 164.953 248.862 164.953 249.199C164.953 249.792 164.885 250.338 164.75 250.837C164.629 251.336 164.407 251.821 164.083 252.293C163.759 252.764 163.348 253.148 162.849 253.445C162.364 253.742 161.798 253.89 161.151 253.89C160.584 253.89 160.072 253.775 159.614 253.546C159.169 253.317 158.811 253.014 158.542 252.636C158.474 252.973 158.326 253.31 158.097 253.647C157.868 253.971 157.605 254.132 157.308 254.132C157.066 254.132 156.863 254.072 156.702 253.95C156.54 253.816 156.459 253.62 156.459 253.364C156.459 253.175 156.499 252.94 156.58 252.657C156.661 252.266 156.722 251.908 156.762 251.585C156.816 251.248 156.843 250.844 156.843 250.372H156.843ZM160.645 252.212C161.306 252.212 161.858 251.983 162.303 251.524C162.748 251.053 162.971 250.419 162.971 249.624C162.971 248.896 162.775 248.269 162.384 247.744C162.249 247.568 162.054 247.427 161.798 247.319C161.555 247.211 161.312 247.157 161.07 247.157C160.503 247.157 160.025 247.326 159.634 247.663C159.243 247.986 159.02 248.438 158.966 249.017C158.912 249.799 158.885 250.473 158.885 251.039C159.047 251.349 159.29 251.625 159.614 251.868C159.951 252.097 160.294 252.212 160.645 252.212Z" fill="black"/>
<path d="M167.905 241.031C168.377 241.072 168.788 241.2 169.139 241.415C169.489 241.617 169.665 241.927 169.665 242.345C169.665 242.655 169.516 242.905 169.22 243.093C168.936 243.269 168.593 243.356 168.188 243.356C167.797 243.356 167.528 243.255 167.379 243.053C167.231 242.851 167.157 242.642 167.157 242.426C167.157 242.022 167.197 241.685 167.278 241.415C167.373 241.146 167.581 241.018 167.905 241.031ZM169.523 249.988V250.574C169.523 251.1 169.536 251.598 169.563 252.07C169.604 252.528 169.651 252.994 169.705 253.465C169.691 253.6 169.59 253.742 169.402 253.89C169.213 254.025 169.044 254.092 168.896 254.092C168.64 254.092 168.377 254.045 168.107 253.95C167.851 253.843 167.696 253.715 167.642 253.566C167.561 253.135 167.521 252.751 167.521 252.414C167.521 251.309 167.487 250.069 167.42 248.694C167.366 247.481 167.339 246.632 167.339 246.146C167.339 245.904 167.46 245.695 167.703 245.52C167.946 245.344 168.202 245.257 168.471 245.257C168.862 245.257 169.132 245.344 169.28 245.52C169.442 245.695 169.523 245.971 169.523 246.349V249.988Z" fill="black"/>
<path d="M171.849 249.381C171.849 248.559 172.031 247.878 172.395 247.339C172.759 246.786 173.264 246.268 173.911 245.782C174.1 245.648 174.417 245.533 174.862 245.439C175.307 245.331 175.698 245.277 176.035 245.277C176.439 245.277 176.864 245.364 177.309 245.54C177.767 245.701 178.138 245.89 178.421 246.106C178.92 246.47 179.264 246.894 179.453 247.38C179.641 247.851 179.736 248.417 179.736 249.078C179.736 249.361 179.574 249.637 179.25 249.907C178.94 250.163 178.603 250.291 178.239 250.291L177.471 250.271C177.08 250.271 176.52 250.284 175.792 250.311L175.367 250.331C175.071 250.358 174.848 250.372 174.7 250.372C174.484 250.372 174.188 250.345 173.81 250.291C173.864 250.924 174.1 251.423 174.518 251.787C174.936 252.138 175.388 252.313 175.873 252.313C176.722 252.313 177.316 252.144 177.653 251.807C177.936 251.605 178.125 251.477 178.219 251.423C178.313 251.369 178.462 251.342 178.664 251.342C178.88 251.342 179.068 251.443 179.23 251.646C179.392 251.848 179.473 252.05 179.473 252.252C179.473 252.481 179.331 252.717 179.048 252.96C178.779 253.189 178.408 253.432 177.936 253.688C177.68 253.795 177.329 253.89 176.884 253.971C176.439 254.052 176.069 254.092 175.772 254.092C175.3 254.092 174.774 253.957 174.195 253.688C173.615 253.405 173.183 253.095 172.9 252.758C172.617 252.421 172.368 251.942 172.152 251.322C171.95 250.702 171.849 250.055 171.849 249.381V249.381ZM175.873 248.835C176.83 248.835 177.531 248.802 177.976 248.734C177.949 248.343 177.828 248.027 177.612 247.784C177.397 247.528 177.1 247.312 176.722 247.137C176.601 247.083 176.493 247.043 176.399 247.016C176.305 246.989 176.197 246.975 176.075 246.975C175.455 246.975 174.929 247.144 174.498 247.481C174.08 247.818 173.831 248.249 173.75 248.775C174.424 248.815 175.132 248.835 175.873 248.835V248.835Z" fill="black"/>
<path d="M190.879 252.454C190.946 252.481 191.054 252.515 191.202 252.555C191.351 252.596 191.458 252.636 191.526 252.677C191.593 252.717 191.627 252.778 191.627 252.859C191.641 253.182 191.519 253.452 191.263 253.667C191.02 253.87 190.73 253.971 190.393 253.971C189.868 253.971 189.456 253.829 189.16 253.546C188.863 253.263 188.647 252.832 188.513 252.252C188.459 252.023 188.432 251.706 188.432 251.302C188.432 251.073 188.445 250.702 188.472 250.19C188.499 249.651 188.513 249.219 188.513 248.896C188.513 248.316 188.452 247.878 188.331 247.582C188.209 247.272 187.919 247.117 187.461 247.117C186.989 247.117 186.564 247.305 186.187 247.683C185.823 248.06 185.513 248.626 185.257 249.381C184.906 250.432 184.711 251.828 184.67 253.566C184.67 253.661 184.569 253.775 184.367 253.91C184.178 254.031 183.949 254.092 183.679 254.092C183.18 254.092 182.87 253.829 182.749 253.303L182.729 252.96C182.729 252.838 182.742 252.697 182.769 252.535C182.931 251.592 183.012 250.769 183.012 250.069C183.012 249.759 183.005 249.516 182.991 249.341L182.971 248.39C182.971 248.067 182.89 247.757 182.728 247.46C182.567 247.15 182.378 246.995 182.162 246.995C182.095 246.995 182 247.022 181.879 247.076C181.758 247.117 181.657 247.137 181.576 247.137C181.441 247.137 181.293 247.07 181.131 246.935C180.983 246.8 180.908 246.658 180.908 246.51C180.908 246.227 181.003 245.998 181.192 245.823C181.394 245.661 181.589 245.533 181.778 245.439C181.98 245.344 182.209 245.297 182.466 245.297C182.681 245.297 182.857 245.317 182.991 245.358C183.126 245.398 183.308 245.486 183.537 245.621C183.672 245.688 183.827 245.877 184.003 246.187C184.178 246.497 184.313 246.935 184.407 247.501C184.677 247.002 185.128 246.476 185.762 245.924C186.234 245.493 186.915 245.277 187.805 245.277C188.613 245.277 189.254 245.573 189.726 246.166C190.198 246.746 190.434 247.548 190.434 248.572C190.434 248.775 190.42 249.105 190.393 249.563C190.353 249.927 190.332 250.311 190.332 250.716C190.332 251.659 190.514 252.239 190.878 252.454H190.879Z" fill="black"/>
<path d="M193.123 247.016C192.935 246.989 192.78 246.908 192.658 246.773C192.551 246.638 192.497 246.477 192.497 246.288C192.497 246.194 192.517 246.092 192.557 245.985C192.611 245.877 192.685 245.782 192.78 245.702C192.955 245.526 193.427 245.439 194.195 245.439C194.303 244.913 194.357 244.381 194.357 243.842C194.357 243.639 194.35 243.464 194.337 243.316C194.323 243.168 194.317 243.053 194.317 242.972C194.317 242.676 194.424 242.453 194.64 242.305C194.869 242.157 195.125 242.083 195.409 242.083C195.759 242.083 195.995 242.17 196.116 242.345C196.251 242.521 196.319 242.844 196.319 243.316C196.319 244.017 196.258 244.704 196.137 245.378C196.352 245.378 196.649 245.365 197.026 245.338C197.539 245.311 197.91 245.297 198.139 245.297C198.368 245.297 198.563 245.358 198.725 245.479C198.9 245.587 198.988 245.742 198.988 245.944C198.988 246.47 198.752 246.78 198.28 246.874C197.781 246.996 197.006 247.07 195.955 247.097C195.914 247.622 195.894 248.195 195.894 248.815C195.894 249.786 195.955 250.581 196.076 251.201C196.157 251.632 196.292 251.949 196.48 252.151C196.683 252.34 196.979 252.434 197.37 252.434C197.599 252.434 197.835 252.374 198.078 252.252C198.24 252.158 198.388 252.111 198.523 252.111C198.712 252.111 198.847 252.171 198.927 252.293C199.022 252.414 199.069 252.576 199.069 252.778C199.069 253.155 198.867 253.472 198.462 253.728C198.058 253.971 197.539 254.092 196.905 254.092C196.514 254.092 196.116 253.998 195.712 253.809C195.321 253.62 194.991 253.384 194.721 253.101C194.681 253.061 194.606 252.906 194.499 252.636C194.391 252.367 194.296 252.077 194.215 251.767C194.081 251.133 194.013 250.244 194.013 249.098C194.013 248.599 194.04 247.932 194.094 247.097L193.123 247.016Z" fill="black"/>
<path d="M209.909 253.041C209.909 253.337 209.747 253.586 209.423 253.789C209.1 253.991 208.803 254.092 208.534 254.092C208.035 254.092 207.63 254.031 207.32 253.91C207.024 253.775 206.74 253.533 206.471 253.182C206.134 253.492 205.662 253.728 205.055 253.89C204.449 254.038 203.889 254.112 203.377 254.112C202.541 254.112 201.846 253.89 201.294 253.445C200.754 252.987 200.485 252.319 200.485 251.443C200.485 251.066 200.599 250.689 200.829 250.311C201.058 249.92 201.341 249.61 201.678 249.381C202.042 249.139 202.453 248.977 202.912 248.896C203.37 248.802 203.902 248.754 204.509 248.754C204.792 248.754 205.129 248.808 205.52 248.916C205.911 249.024 206.221 249.139 206.451 249.26V248.936C206.451 248.208 206.269 247.71 205.905 247.44C205.554 247.157 204.988 247.016 204.206 247.016C203.963 247.016 203.741 247.056 203.538 247.137C203.35 247.204 203.127 247.305 202.871 247.44C202.628 247.575 202.399 247.642 202.184 247.642C201.995 247.642 201.813 247.568 201.637 247.42C201.462 247.258 201.375 247.09 201.375 246.915C201.375 246.348 201.725 245.937 202.426 245.681C203.141 245.412 203.869 245.277 204.61 245.277C204.988 245.277 205.419 245.358 205.905 245.519C206.39 245.668 206.801 245.877 207.138 246.146C207.543 246.483 207.853 246.888 208.068 247.359C208.298 247.831 208.412 248.343 208.412 248.896C208.412 249.071 208.399 249.334 208.372 249.684C208.345 250.062 208.331 250.385 208.331 250.655L208.311 251.201C208.284 251.497 208.271 251.733 208.271 251.908C208.271 252.07 208.325 252.212 208.432 252.333C208.554 252.441 208.695 252.495 208.857 252.495L209.423 252.474C209.572 252.474 209.686 252.535 209.767 252.656C209.862 252.764 209.909 252.892 209.909 253.041L209.909 253.041ZM203.377 252.515C203.956 252.515 204.442 252.454 204.833 252.333C205.224 252.212 205.696 251.989 206.248 251.666C206.302 251.437 206.336 251.133 206.35 250.756C205.608 250.406 204.995 250.23 204.509 250.23C204.051 250.23 203.68 250.251 203.397 250.291C203.114 250.318 202.858 250.432 202.628 250.635C202.399 250.837 202.285 251.16 202.285 251.605C202.285 251.861 202.406 252.077 202.649 252.252C202.905 252.427 203.147 252.515 203.377 252.515V252.515Z" fill="black"/>
<path d="M213.488 250.877C213.488 251.389 213.562 251.787 213.711 252.07C213.873 252.34 214.075 252.474 214.317 252.474C214.452 252.474 214.58 252.468 214.702 252.454C214.823 252.427 214.944 252.414 215.066 252.414C215.201 252.414 215.315 252.481 215.41 252.616C215.517 252.751 215.571 252.899 215.571 253.061C215.571 253.384 215.416 253.64 215.106 253.829C214.81 254.004 214.405 254.092 213.893 254.092C213.529 254.092 213.158 253.984 212.78 253.768C212.416 253.539 212.113 253.189 211.87 252.717C211.628 252.232 211.506 251.632 211.506 250.918C211.506 249.381 211.533 248.08 211.587 247.016C211.655 245.749 211.688 244.151 211.688 242.224C211.688 241.617 211.722 241.193 211.79 240.95C211.87 240.762 211.999 240.62 212.174 240.526C212.363 240.418 212.558 240.364 212.76 240.364C212.962 240.364 213.138 240.398 213.286 240.465C213.448 240.532 213.556 240.64 213.61 240.789C213.664 240.95 213.697 241.112 213.711 241.274C213.738 241.422 213.751 241.638 213.751 241.921C213.751 242.473 213.731 243.006 213.691 243.518C213.664 244.138 213.65 244.59 213.65 244.873C213.542 247.245 213.488 249.246 213.488 250.877V250.877Z" fill="black"/>
</svg>
