<svg width="60" height="60" viewBox="0 0 60 60" fill="none" xmlns="http://www.w3.org/2000/svg">
<circle cx="30" cy="30" r="30" fill="#FFDE46"/>
<g clip-path="url(#clip0)">
<path d="M16.1042 55L10.4272 43.2609C6.16023 34.4376 8.65984 24.0941 15.8805 18.1067C20.3754 14.3796 24.6637 10.4103 28.5992 6.09658L29.5996 5L31.9259 8.07354C34.7963 11.8659 36.9866 15.8985 38.2806 19.9847L16.1042 55Z" fill="#00AA95"/>
<path d="M50.7779 19.6424L50.0217 15.8627C46.2845 24.672 36.6989 29.3528 31.2044 35.4313C21.5958 46.0614 16.1041 55 16.1041 55H21.7932C47.0791 55 54.4371 37.9337 50.7779 19.6424Z" fill="#00CC76"/>
<path d="M50.0216 15.8627L48.6435 16.4143C45.2479 17.7736 41.7863 18.951 38.2805 19.9847V19.9848C36.1895 20.6014 34.0827 21.1668 31.9646 21.6892C22.8574 23.9358 16.104 32.1594 16.104 41.9602V55C16.1041 55 39.7487 40.0775 50.0216 15.8627Z" fill="#A5E887"/>
</g>
<defs>
<clipPath id="clip0">
<rect width="50" height="50" fill="white" transform="translate(5 5)"/>
</clipPath>
</defs>
</svg>
