<svg width="60" height="60" viewBox="0 0 60 60" fill="none" xmlns="http://www.w3.org/2000/svg">
<circle cx="30" cy="30" r="30" fill="#E5E5E5"/>
<path d="M55 37.3095L30 53.54L5 37.3095L14.7071 32.1825H45.2929L55 37.3095Z" fill="#9ED0FF"/>
<path d="M55 37.3095L30 53.54V32.1825H45.2929L55 37.3095Z" fill="#73BCFF"/>
<path d="M55 28.5204L30 44.751L5 28.5204L14.7071 23.3935H45.2929L55 28.5204Z" fill="#B34F03"/>
<path d="M55 28.5204L30 44.751V23.3935H45.2929L55 28.5204Z" fill="#913F02"/>
<path d="M30 6.45995L5 19.7315L30 35.9619L55 19.7315L30 6.45995Z" fill="#A8D32A"/>
<path d="M55 19.7315L30 35.9619V6.45995L55 19.7315Z" fill="#93BF00"/>
<path d="M30 9.79979L10.8399 19.9657L30 32.4463L49.16 19.9658L30 9.79979Z" fill="#81A713"/>
<path d="M49.1601 19.9657L30 32.4463V9.79979L49.1601 19.9657Z" fill="#81A713"/>
<path d="M45.2638 17.0654L43.6817 14.6046L37.1779 18.7941L32.666 16.0109L37.5587 12.9932L36.0645 10.5029L30 14.2821L23.8478 10.5615L22.3242 13.0518L27.041 15.9815L22.6172 18.6767L16.3185 14.6045L14.7363 17.0654L19.8341 20.376L14.7072 23.4815L16.2305 26.001L22.5878 22.134L27.3047 25.1808L22.2656 28.462L23.8477 30.9231L30 26.9385L36.1523 30.923L37.7344 28.4619L32.6952 25.1807L37.2071 22.2803L43.4765 26.1475L45.0293 23.6572L39.9317 20.5225L45.2638 17.0654ZM30 23.4522L25.371 20.4347L30 17.7101L34.4533 20.5518L30 23.4522Z" fill="#A8D32A"/>
<path d="M39.9316 20.5225L45.0293 23.6572L43.4765 26.1476L37.2071 22.2804L32.6952 25.1807L37.7344 28.4619L36.1522 30.923L30 26.9385V23.4522L34.4532 20.5518L30 17.7101V14.2821L36.0645 10.5029L37.5587 12.9931L32.6659 16.0108L37.1777 18.7941L43.6815 14.6046L45.2638 17.0654L39.9316 20.5225Z" fill="#93BF00"/>
</svg>
