<svg width="60" height="60" viewBox="0 0 60 60" fill="none" xmlns="http://www.w3.org/2000/svg">
<circle cx="30" cy="30" r="30" fill="#079E59"/>
<g clip-path="url(#clip0)">
<path d="M38.0414 23.3477C35.8025 23.3477 33.7023 22.6217 32.1885 21.2791C31.9667 21.0823 31.9077 20.7596 32.0457 20.4971C33.2514 18.2028 35.7157 16.5144 38.6376 15.9807C41.5594 15.4467 44.4615 16.155 46.4006 17.8748C46.6225 18.0716 46.6814 18.3943 46.5434 18.6568C45.3377 20.9511 42.8734 22.6395 39.9515 23.1733C39.3108 23.2903 38.6704 23.3477 38.0414 23.3477Z" fill="#FF435B"/>
<path d="M21.8042 23.3476C21.1752 23.3476 20.5351 23.2903 19.8942 23.1732C16.9723 22.6395 14.5081 20.9511 13.3023 18.6568C13.1644 18.3943 13.2233 18.0715 13.4452 17.8748C15.3842 16.155 18.2863 15.447 21.2082 15.9806C24.1301 16.5144 26.5943 18.2028 27.8001 20.4971C27.938 20.7596 27.8791 21.0824 27.6572 21.2791C26.1435 22.6216 24.0429 23.3476 21.8042 23.3476Z" fill="#FF8856"/>
<path d="M36.5263 36.8863C36.3082 36.8863 36.0872 36.8308 35.8846 36.7143C35.2675 36.3593 35.0552 35.5712 35.4102 34.9542C37.032 32.1354 39.3737 29.8209 42.1819 28.2604C44.7674 26.824 47.7139 26.0547 50.7029 26.0358H50.7112C51.4193 26.0358 51.9955 26.6076 52 27.3167C52.0045 28.0286 51.4311 28.6093 50.7192 28.6138C48.1616 28.63 45.6425 29.2869 43.4341 30.5139C41.0351 31.847 39.0332 33.8269 37.6448 36.2399C37.4064 36.6543 36.9725 36.8863 36.5263 36.8863Z" fill="#00CB75"/>
<path d="M40.3477 38.8155C39.9677 38.8155 39.5914 38.6484 39.337 38.3276C38.8946 37.7698 38.9879 36.959 39.5457 36.5166C41.3233 35.1063 43.3202 34.0644 45.4812 33.4198C47.1801 32.913 48.9413 32.6662 50.7243 32.6862C51.4361 32.6942 52.0067 33.2778 51.9987 33.9896C51.9907 34.7014 51.4061 35.268 50.6953 35.2641C49.174 35.2473 47.6683 35.4576 46.2181 35.8903C44.373 36.4406 42.6672 37.3309 41.1479 38.5362C40.911 38.7242 40.6283 38.8155 40.3477 38.8155Z" fill="#00CB75"/>
<path d="M44.8159 42.0461C44.293 42.0461 43.8013 41.7257 43.6079 41.2071C43.3591 40.5401 43.6983 39.7977 44.3652 39.5489C44.7311 39.4125 45.1066 39.2866 45.4811 39.1749C47.1802 38.668 48.943 38.4216 50.7242 38.4413C51.4361 38.4493 52.0067 39.0329 51.9987 39.7448C51.9907 40.4567 51.4061 41.0268 50.6952 41.0192C49.1735 41.0031 47.6684 41.2128 46.218 41.6454C45.8984 41.7407 45.5781 41.8481 45.266 41.9644C45.1177 42.0199 44.9656 42.0461 44.8159 42.0461Z" fill="#00CB75"/>
<path d="M23.9611 37.7965C23.4872 37.7965 23.0312 37.5341 22.8059 37.0811C21.4126 34.2788 19.2549 32.008 16.566 30.514C14.3577 29.287 11.8386 28.63 9.28098 28.6139C8.569 28.6093 7.99556 28.0286 8.00003 27.3167C8.00449 26.6077 8.58078 26.0358 9.28888 26.0358H9.29722C12.2862 26.0547 15.2327 26.8239 17.8181 28.2604C20.9649 30.0088 23.4879 32.662 25.1143 35.9333C25.4312 36.5708 25.1714 37.3445 24.5339 37.6614C24.3496 37.7531 24.1539 37.7965 23.9611 37.7965Z" fill="#BEE75E"/>
<path d="M19.6524 38.8155C19.3717 38.8155 19.0891 38.7243 18.8521 38.5362C17.3328 37.3309 15.6269 36.4407 13.7819 35.8903C12.3316 35.4577 10.8257 35.2477 9.3047 35.2641C8.59427 35.268 8.00931 34.7016 8.00132 33.9896C7.99333 33.2777 8.56394 32.6942 9.27582 32.6862C11.0549 32.6669 12.8199 32.9131 14.5189 33.4198C16.6798 34.0643 18.6768 35.1063 20.4544 36.5166C21.0122 36.9591 21.1056 37.7699 20.6631 38.3276C20.4086 38.6483 20.0322 38.8155 19.6524 38.8155Z" fill="#BEE75E"/>
<path d="M15.6912 42.2449C15.5279 42.2449 15.3618 42.2136 15.2014 42.1476C14.7387 41.9574 14.2611 41.7884 13.7819 41.6454C12.3316 41.2128 10.8261 41.0026 9.30486 41.0192C8.59435 41.0277 8.00947 40.4567 8.0014 39.7448C7.9934 39.0329 8.56393 38.4493 9.27581 38.4413C11.0557 38.421 12.8197 38.6681 14.5189 39.1749C15.0805 39.3425 15.64 39.5405 16.1821 39.7635C16.8405 40.0342 17.1546 40.7876 16.8838 41.4459C16.679 41.9439 16.1981 42.2449 15.6912 42.2449Z" fill="#BEE75E"/>
<path d="M13.1502 45.2215C13.1502 40.1114 17.3065 35.954 22.4152 35.954H37.5789C42.6876 35.954 46.8438 40.1114 46.8438 45.2215L30.0859 46.9364L13.1502 45.2215Z" fill="#BB5D4C"/>
<path d="M37.579 35.9539H29.9982V46.9273L30.086 46.9362L46.8439 45.2213C46.8439 40.1113 42.6877 35.9539 37.579 35.9539Z" fill="#A34F3E"/>
<path d="M27.2382 20.0817C24.7566 20.0817 22.2054 18.828 20.3509 16.6801C18.4099 14.4318 17.5494 11.5712 18.0492 9.02799C18.1064 8.73701 18.3548 8.5226 18.6509 8.50851C21.2401 8.38528 23.9443 9.65377 25.8853 11.902C27.8263 14.1503 28.6868 17.0108 28.187 19.5541C28.1297 19.8451 27.8814 20.0595 27.5853 20.0736C27.4698 20.079 27.3541 20.0817 27.2382 20.0817Z" fill="#FFDE46"/>
<path d="M32.6075 20.0817C32.4914 20.0817 32.3761 20.079 32.2603 20.0735C31.9642 20.0593 31.7158 19.8449 31.6586 19.554C31.1588 17.0108 32.0192 14.1502 33.9602 11.902C35.9012 9.65359 38.6048 8.38468 41.1946 8.50851C41.4908 8.52269 41.7391 8.7371 41.7964 9.02799C42.2962 11.5712 41.4358 14.4318 39.4947 16.6801C37.6404 18.8279 35.0889 20.0817 32.6075 20.0817Z" fill="#FFCD00"/>
<path d="M29.997 19.8667C29.8566 19.8667 29.7163 19.821 29.5996 19.7296C27.5593 18.1311 26.3412 15.4036 26.3412 12.4333C26.3412 9.46307 27.5593 6.73557 29.5996 5.13709C29.833 4.95422 30.1611 4.95422 30.3945 5.13709C32.4348 6.73549 33.6529 9.46307 33.6529 12.4333C33.6529 15.4036 32.4348 18.1312 30.3945 19.7296C30.2778 19.821 30.1374 19.8667 29.997 19.8667Z" fill="#FF8856"/>
<path d="M29.9971 39.5459C24.3128 39.5459 19.6885 34.8836 19.6885 29.1529V22.4448C19.6885 21.7329 20.2656 21.1558 20.9775 21.1558H39.0168C39.7286 21.1558 40.3058 21.7329 40.3058 22.4448V29.1529C40.3057 34.8836 35.6812 39.5459 29.9971 39.5459Z" fill="#C86E59"/>
<path d="M39.0167 21.1558H29.9982V39.5459C35.6818 39.5453 40.3057 34.8832 40.3057 29.1529V22.4448C40.3057 21.7329 39.7286 21.1558 39.0167 21.1558Z" fill="#BB5D4C"/>
<path d="M30.0006 45.51C29.2741 44.3787 28.0047 43.6275 26.5632 43.6275H13.2879C13.1977 44.1455 13.1503 44.6779 13.1503 45.2214V47.7056C13.1503 48.4175 13.7273 48.9945 14.4391 48.9946L45.5548 48.9987C45.8966 48.9987 46.2247 48.8629 46.4663 48.6212C46.708 48.3794 46.844 48.0515 46.844 47.7096V45.2213C46.844 44.6779 46.7966 44.1454 46.7064 43.6274H33.438C31.9965 43.6276 30.7271 44.3787 30.0006 45.51Z" fill="#47B2FF"/>
<path d="M30.3946 5.1371C30.2781 5.04592 30.1382 5.00029 29.9982 5.00003V19.8666C30.1382 19.8664 30.2781 19.8207 30.3946 19.7296C32.4348 18.1312 33.6529 15.4036 33.6529 12.4333C33.6529 9.46307 32.4348 6.73549 30.3946 5.1371Z" fill="#FF435B"/>
<path d="M46.7063 43.6275H33.438C31.9966 43.6275 30.7271 44.3788 30.0006 45.5101C29.9999 45.5089 29.999 45.5078 29.9982 45.5066V48.9968L45.5547 48.9988C45.8966 48.9988 46.2246 48.863 46.4662 48.6213C46.708 48.3796 46.8439 48.0516 46.8439 47.7098V45.2215C46.8439 44.678 46.7965 44.1455 46.7063 43.6275Z" fill="#DDCF52"/>
<path d="M30.9836 27.31C32.0087 25.7943 34.011 24.765 36.3133 24.765C37.8463 24.765 39.2452 25.2222 40.3122 25.9746L40.3129 21.1165C40.3129 19.8182 39.6677 18.6077 38.5872 17.8786C37.5076 17.1502 36.1465 17.0046 34.9459 17.4891C34.3087 15.2988 32.2736 13.769 29.9971 13.769C27.7126 13.769 25.6756 15.3055 25.0435 17.5053C23.8533 17.0065 22.4973 17.138 21.4163 17.857C20.3344 18.5768 19.6885 19.7792 19.6885 21.0735L19.6879 25.9704C20.7543 25.2206 22.1508 24.765 23.681 24.765C25.9834 24.765 27.9858 25.7944 29.0108 27.3103C29.2547 27.6012 29.6144 27.7728 29.9971 27.7728C30.3799 27.7728 30.7398 27.6011 30.9836 27.31Z" fill="#7DD5F4"/>
<path d="M38.5872 17.8786C37.5076 17.1502 36.1465 17.0046 34.9459 17.4891C34.3088 15.2991 32.2743 13.7696 29.9982 13.7691V27.7728C30.3806 27.7724 30.74 27.6009 30.9836 27.31C32.0087 25.7943 34.011 24.765 36.3133 24.765C37.8463 24.765 39.2452 25.2222 40.3123 25.9746L40.3129 21.1165C40.3129 19.8182 39.6677 18.6078 38.5872 17.8786Z" fill="#4793FF"/>
</g>
<defs>
<clipPath id="clip0">
<rect width="44" height="44" fill="white" transform="translate(8 5)"/>
</clipPath>
</defs>
</svg>
