<?xml version="1.0" encoding="utf-8"?>
<!-- Generator: Adobe Illustrator 25.3.1, SVG Export Plug-In . SVG Version: 6.00 Build 0)  -->
<svg version="1.1" id="Camada_1" xmlns="http://www.w3.org/2000/svg" xmlns:xlink="http://www.w3.org/1999/xlink" x="0px" y="0px"
	 viewBox="0 0 1000 1000" style="enable-background:new 0 0 1000 1000;" xml:space="preserve">
<style type="text/css">
	.st0{fill:#B38D48;}
	.st1{fill:#FFB60D;}
	.st2{fill:#426594;}
	.st3{fill:#008940;}
	.st4{fill:#FFFFFF;}
	.st5{fill:#8D9288;}
	.st6{fill:#999999;}
</style>
<g>
	<g>
		<g>
			<path class="st0" d="M399.92,261.65c-4.07,9.38-8.06,18.77-11.89,28.31c-2.81,6.88-5.47,13.92-8.13,20.96
				c-1.25,3.52-2.58,7.04-3.83,10.64l-1.88,5.4c-0.63,2.03-1.25,3.99-1.88,5.94c-4.77,15.87-7.51,31.44-9.78,46.37
				c-2.27,15.01-3.91,29.56-5.94,43.32c-1.02,6.88-2.11,13.53-3.44,19.94l-1.02,4.69l-1.25,5.4c-0.78,3.75-1.64,7.59-2.35,11.34
				c-0.16,0.7-0.23,1.33-0.39,2.03c-0.47-2.27-1.02-4.46-1.56-6.73c-0.94,4.14-3.91,7.12-7.66,8.68c-1.17,3.05-3.05,5.24-5.4,6.65
				c-0.39,1.64-0.78,3.28-1.17,4.93c-58.57-47.86-96.03-120.74-96.03-202.31c0-69.37,26.98-132.24,71.01-179.08
				c3.05,2.89,6.1,5.87,9.07,8.84c2.27,3.52,4.53,7.04,7.51,9.78c5.87,8.68,13.37,16.19,18.22,25.57c0.78,1.49,1.49,3.05,2.27,4.54
				c0.39,1.17,0.86,2.35,1.33,3.52c3.75,9.38,8.37,18.46,13.84,27.06c2.74,4.22,5.71,8.37,8.76,12.43l1.25,1.49l1.17,1.49
				c0.7,0.86,1.49,1.8,2.19,2.74c1.49,1.88,2.89,3.83,4.22,5.79c5.48,7.82,10.09,16.19,14.23,24.95c2.89,6.02,5.55,12.12,8.29,18.3
				c-0.08,0.08-0.08,0.23-0.08,0.31c-0.39,2.42-1.17,4.38-2.27,5.94c0.23,1.02,0.55,1.96,0.78,2.89
				C398.75,256.41,399.37,259.07,399.92,261.65z"/>
		</g>
		<g>
			<path class="st1" d="M492.82,16.09c-2.42,6.49-4.61,13.06-6.57,19.78c-4.61,15.64-8.37,31.83-13.3,47.55
				c-0.78,2.35-1.56,4.77-2.34,7.19c-0.23,0.78-0.55,1.56-0.78,2.35c-1.96,5.47-4.14,10.95-6.57,16.19
				c-13.45,28.93-31.52,57.79-42,88.6c-0.55-1.33-1.17-2.74-1.72-4.14c-1.09-2.5-1.96-5.01-2.82-7.59c-1.56-1.72-2.97-3.44-4.3-5.32
				c-1.33-0.16-2.66-0.78-3.83-1.96c-2.11,0-4.07-0.7-5.4-2.5c0.23,1.17,0.39,2.35,0.7,3.52c-0.23-0.31-0.39-0.63-0.63-0.86
				c-1.09-1.64-2.27-3.21-3.44-4.85l-1.64-2.27l-1.41-1.96c-1.96-2.74-3.83-5.63-5.71-8.6c-3.76-6.02-7.51-12.36-11.58-18.92
				c-4.06-6.49-8.52-13.22-14-19.55c-0.7-0.86-1.41-1.64-2.11-2.42l-1.96-2.11c-1.33-1.41-2.66-2.82-3.99-4.14
				c-2.66-2.74-5.32-5.47-7.98-8.13c-3.75-3.6-7.59-7.19-11.34-10.71c-0.31-1.33-0.55-2.66-0.78-4.07
				c-0.08-0.47-0.16-1.02-0.23-1.49c-0.78-0.47-1.56-1.25-2.27-2.27c-0.16-0.23-0.31-0.47-0.39-0.7c-1.8,0.31-3.36-0.16-4.61-1.09
				c0.08,0.78,0.16,1.56,0.23,2.27c-1.56-1.41-3.13-2.74-4.61-4.14c-0.39-0.7-0.78-1.41-1.25-2.03
				C369.19,41.82,428.15,17.19,492.82,16.09z"/>
		</g>
		<g>
			<path class="st2" d="M688.17,98.75c-0.16,3.75-0.62,7.43-1.33,11.03c-0.47,2.89-1.25,5.71-2.11,8.37
				c-0.63,1.41-1.25,2.82-1.8,4.22c-3.13,5.16-6.33,10.4-9.62,15.56c-0.39,0.47-0.78,0.86-1.17,1.33l0.23,0.23
				c-0.31,0.55-0.7,1.09-1.02,1.64c-6.18,6.26-11.1,13.22-16.27,20.41c-2.81,4.07-5.71,8.21-9.23,11.73
				c-2.11,2.19-4.46,4.07-6.73,5.94c-12.12,8.13-22.44,18.53-31.98,29.8c-7.19,8.6-14,17.75-21.43,26.2
				c-1.09,1.33-2.27,2.58-3.44,3.91c-0.39,0.39-0.78,0.78-1.17,1.25c-2.74,2.89-5.55,5.71-8.6,8.37
				c-22.13,19.47-49.58,36.6-64.6,62.72c-2.11,1.88-4.22,3.75-6.26,5.71c0.08-1.02,0.16-2.03,0.31-3.05
				c-1.72,1.17-3.91,1.8-6.26,1.41c-0.16,0.31-0.39,0.63-0.55,0.86c-0.94,1.49-1.96,2.42-3.05,3.13c-0.16,0.7-0.23,1.33-0.31,2.03
				c-0.31,1.88-0.7,3.68-1.02,5.47c-5.16,4.77-10.24,9.54-15.33,14.55c-3.68,3.52-7.27,7.19-10.87,10.87
				c-1.8,1.88-3.52,3.75-5.32,5.63l-2.66,2.89c-0.94,1.09-1.88,2.11-2.82,3.21c-7.35,8.68-13.37,17.67-18.92,26.43
				c-2.03,3.28-4.07,6.49-5.94,9.7c0.86-11.1,1.1-22.29,0.78-33.47c-0.08-2.42-0.23-4.85-0.39-7.35c0.08-3.36,0.23-6.65,0.39-10.01
				c1.33-20.72,8.91-40.2,12.75-60.45c3.21-7.27,4.46-15.41,5.79-23.54c6.88-17.52,14.16-35.19,21.27-53.02
				c3.29-6.33,6.57-12.75,9.78-19.16c10.24-20.72,18.77-42.31,24.87-64.75c3.28-11.73,6.02-23.54,8.29-35.5
				c1.1-5.55,2.03-11.1,2.97-16.73c0.31-2.11,0.47-4.22,0.63-6.33c0.94-3.05,1.8-6.18,2.66-9.23l3.13-10.32l1.49-5.08
				c0.39-1.17,0.7-2.19,1.02-3.28c3.68-3.21,7.82-6.02,10.64-10.01c0.47-0.63,0.86-1.25,1.25-1.96c4.93-2.5,9.78-5.4,14.23-8.68
				c6.49,1.33,12.82,2.89,19.08,4.69c0.16,0.08,0.39,0.08,0.55,0.16C615.83,39.48,656.42,64.89,688.17,98.75z"/>
		</g>
		<g>
			<path class="st3" d="M729.85,157.87c-2.35,1.09-4.69,2.35-6.96,3.6c-7.35,4.14-15.02,8.29-21.66,13.53
				c-5.87,4.69-11.03,8.52-17.75,11.81c-6.26,3.13-11.81,7.82-17.91,11.18c-3.91,1.8-7.82,3.28-11.81,4.38
				c1.88-2.89,3.68-5.79,5.55-8.76c0.7-0.7,1.49-1.49,2.19-2.35c3.68-3.83,7.2-7.82,10.56-12.28c1.64-2.27,3.28-4.61,4.77-7.04
				l3.91-6.57c6.41-10.87,12.51-21.82,18.61-32.92c1.88-2.03,3.68-4.22,5.32-6.57c0.94-1.41,1.8-2.82,2.58-4.22
				C715.7,133.08,723.21,145.21,729.85,157.87z"/>
		</g>
		<g>
			<path class="st3" d="M758.55,277.21c0,144.21-116.91,261.12-261.12,261.12c-30.65,0-60.06-5.32-87.35-15.01
				c2.81-6.49,5.71-12.98,8.68-19.24c5.71-11.81,11.97-23.15,19.24-33.71c1.87-2.66,3.75-5.24,5.71-7.82
				c1.02-1.25,2.03-2.5,3.05-3.75l1.56-1.96l1.56-2.03c4.22-5.47,8.21-11.03,11.89-16.81c7.43-11.57,13.69-23.85,18.77-36.52
				c0.62-1.56,1.25-3.13,1.8-4.69c0.94-2.11,1.96-4.14,2.97-6.26c6.57-12.59,16.74-22.76,24.63-34.41
				c4.06-3.68,7.12-8.45,10.17-13.22c9.15-9.15,18.53-18.22,27.92-27.45c3.83-3.13,7.66-6.18,11.42-9.31
				c12.2-10.17,23.46-21.43,33.47-33.78c5.32-6.49,10.32-13.14,15.02-20.1c2.19-3.21,4.3-6.41,6.41-9.7
				c0.86-1.25,1.49-2.5,2.19-3.75c1.41-1.72,2.82-3.44,4.22-5.08l4.77-5.63l2.34-2.82c0.55-0.63,1.1-1.17,1.57-1.72
				c3.21-1.02,6.57-1.64,9.46-3.36c0.39-0.23,0.86-0.55,1.33-0.86c4.14-0.23,8.29-0.86,12.28-1.8c6.65-1.56,12.98-3.99,19-6.96
				c11.89-5.87,22.45-13.37,32.61-20.72c9.23-6.73,18.3-13.37,27.68-18.77c1.17-0.63,2.35-1.17,3.52-1.72
				C750.27,202.21,758.55,238.74,758.55,277.21z"/>
		</g>
	</g>
	<g>
		<path class="st4" d="M410.09,523.31c-0.78,1.8-1.56,3.68-2.35,5.47c0.08-2.11,0.23-4.14,0.39-6.18
			C408.75,522.92,409.46,523.16,410.09,523.31z"/>
	</g>
	<g>
		<path class="st5" d="M181.51,978.51c-3.71,3.6-8.21,5.4-13.47,5.4c-5.26,0-9.76-1.8-13.47-5.4c-3.72-3.59-5.58-7.9-5.58-12.91
			v-30.38c0-4.96,1.87-9.23,5.62-12.83c3.75-3.59,8.19-5.39,13.33-5.39c3.84,0,7.26,0.97,10.26,2.92c3.01,1.96,5.19,4.16,6.55,6.6
			c1.36,2.44,2.04,4.75,2.04,6.92c0,0.8-0.25,1.47-0.74,2c-0.5,0.52-1.15,0.78-1.95,0.78h-5.58c-1.67,0-2.66-0.92-2.97-2.78
			c-0.25-1.3-1.04-2.61-2.37-3.91c-1.33-1.3-3.05-1.95-5.16-1.95c-2.04,0-3.83,0.7-5.34,2.09c-1.52,1.39-2.28,3.05-2.28,4.97v31.5
			c0,1.92,0.76,3.59,2.28,5.01c1.52,1.42,3.3,2.14,5.34,2.14c2.11,0,3.98-0.68,5.62-2.05c1.64-1.36,2.46-3.28,2.46-5.76
			c0-0.81,0.26-1.47,0.79-2c0.52-0.52,1.19-0.79,1.99-0.79h5.39c0.8,0,1.47,0.27,1.99,0.79c0.53,0.52,0.79,1.19,0.79,2
			C187.09,970.58,185.23,974.92,181.51,978.51z"/>
		<path class="st5" d="M255.72,982.97c-0.8,0-1.47-0.27-2-0.79c-0.52-0.52-0.79-1.19-0.79-2v-59.47c0-0.8,0.26-1.47,0.79-2
			c0.53-0.52,1.2-0.78,2-0.78h28.99c0.81,0,1.47,0.26,2,0.78c0.53,0.53,0.79,1.2,0.79,2v5.3c0,0.81-0.26,1.47-0.79,2
			c-0.52,0.52-1.19,0.79-2,0.79h-20.72v14.87h18.68c0.8,0,1.47,0.27,1.99,0.79c0.53,0.52,0.79,1.19,0.79,2v5.2
			c0,0.81-0.26,1.47-0.79,2c-0.52,0.52-1.19,0.79-1.99,0.79h-18.68v17.66h21.37c0.8,0,1.47,0.26,1.99,0.79
			c0.53,0.52,0.79,1.19,0.79,1.99v5.3c0,0.81-0.26,1.47-0.79,2c-0.52,0.52-1.19,0.79-1.99,0.79H255.72z"/>
		<path class="st5" d="M391.15,979.73c0.25,0.62,0.37,1.05,0.37,1.3c0,1.3-0.84,1.95-2.51,1.95h-5.57c-2.17,0-3.59-0.9-4.28-2.7
			l-7.8-19.41h-6.04v19.32c0,0.81-0.27,1.47-0.79,2c-0.53,0.52-1.19,0.79-2,0.79h-5.48c-0.81,0-1.47-0.27-2-0.79
			c-0.52-0.52-0.79-1.19-0.79-2v-59.47c0-0.8,0.27-1.47,0.79-2c0.52-0.52,1.19-0.78,2-0.78h16.82c4.4,0,8.12,1.52,11.15,4.55
			c3.04,3.04,4.55,6.75,4.55,11.15v11.62c0,2.66-0.65,5.18-1.95,7.57c-1.3,2.38-3.07,4.29-5.3,5.71L391.15,979.73z M378.24,933.17
			c0-1.17-0.45-2.2-1.35-3.06c-0.9-0.87-1.97-1.3-3.2-1.3h-8.36v21.19h8.36c1.24,0,2.31-0.44,3.2-1.31c0.9-0.87,1.35-1.89,1.35-3.06
			V933.17z"/>
		<path class="st5" d="M493.41,979.73c0.25,0.62,0.37,1.05,0.37,1.3c0,1.3-0.83,1.95-2.51,1.95h-5.57c-2.17,0-3.6-0.9-4.28-2.7
			l-7.8-19.41h-6.04v19.32c0,0.81-0.27,1.47-0.79,2c-0.52,0.52-1.19,0.79-2,0.79h-5.48c-0.81,0-1.47-0.27-2-0.79
			c-0.52-0.52-0.79-1.19-0.79-2v-59.47c0-0.8,0.27-1.47,0.79-2c0.52-0.52,1.19-0.78,2-0.78h16.82c4.4,0,8.12,1.52,11.15,4.55
			c3.04,3.04,4.56,6.75,4.56,11.15v11.62c0,2.66-0.65,5.18-1.95,7.57c-1.31,2.38-3.07,4.29-5.3,5.71L493.41,979.73z M480.5,933.17
			c0-1.17-0.45-2.2-1.35-3.06s-1.97-1.3-3.21-1.3h-8.36v21.19h8.36c1.24,0,2.31-0.44,3.21-1.31s1.35-1.89,1.35-3.06V933.17z"/>
		<path class="st5" d="M595.4,952.77c0.31,1.24,0.46,2.45,0.46,3.62v23.79c0,0.81-0.26,1.47-0.79,2c-0.52,0.52-1.19,0.79-1.99,0.79
			h-5.39c-0.81,0-1.47-0.27-2-0.79c-0.53-0.52-0.79-1.19-0.79-2v-16.53h-16.92v16.53c0,0.81-0.26,1.47-0.78,2
			c-0.53,0.52-1.2,0.79-2,0.79h-5.39c-0.81,0-1.47-0.27-2-0.79c-0.52-0.52-0.79-1.19-0.79-2V956.4c0-1.05,0.16-2.26,0.47-3.62
			l9.48-32.33c0.49-1.67,1.55-2.51,3.16-2.51h12.63c1.62,0,2.67,0.83,3.16,2.51L595.4,952.77z M577.37,928.81h-1.86l-6.5,23.97
			h14.87L577.37,928.81z"/>
		<path class="st5" d="M663.29,982.97c-0.81,0-1.47-0.27-2-0.79c-0.52-0.52-0.79-1.19-0.79-2v-59.47c0-0.8,0.27-1.47,0.79-2
			c0.52-0.52,1.19-0.78,2-0.78h15.7c5.02,0,9.29,1.77,12.83,5.3c3.53,3.52,5.3,7.8,5.3,12.82v28.81c0,5.01-1.77,9.29-5.3,12.82
			c-3.53,3.53-7.8,5.3-12.83,5.3H663.29z M685.58,935.68c0-1.92-0.67-3.54-1.99-4.87c-1.33-1.33-2.96-2-4.88-2h-7.06v43.3h7.06
			c1.92,0,3.55-0.65,4.88-1.96c1.32-1.3,1.99-2.91,1.99-4.83V935.68z"/>
		<path class="st5" d="M800.21,965.69c0,5.01-1.84,9.3-5.53,12.87c-3.68,3.56-8.25,5.35-13.7,5.35c-5.46,0-10.04-1.8-13.75-5.4
			c-3.71-3.59-5.58-7.9-5.58-12.91v-30.38c0-5.02,1.87-9.31,5.58-12.87c3.71-3.56,8.3-5.35,13.75-5.35c5.45,0,10.02,1.78,13.7,5.35
			c3.69,3.56,5.53,7.85,5.53,12.87V965.69z M789.15,934.66c0-1.92-0.81-3.6-2.42-5.02c-1.62-1.42-3.53-2.13-5.76-2.13
			c-2.23,0-4.15,0.71-5.76,2.13c-1.61,1.42-2.42,3.1-2.42,5.02v31.5c0,1.92,0.81,3.61,2.42,5.06c1.62,1.46,3.53,2.18,5.76,2.18
			c2.23,0,4.15-0.72,5.76-2.14c1.61-1.42,2.42-3.1,2.42-5.01V934.66z"/>
	</g>
	<g>
		<path class="st5" d="M179.71,846.79c0.85,2.13,1.28,3.63,1.28,4.48c0,4.48-2.88,6.72-8.64,6.72h-19.2
			c-7.47,0-12.38-3.09-14.72-9.28l-26.88-66.88h-20.8v66.55c0,2.77-0.9,5.07-2.72,6.88c-1.81,1.82-4.11,2.72-6.88,2.72H62.27
			c-2.77,0-5.07-0.91-6.88-2.72c-1.81-1.81-2.72-4.11-2.72-6.88v-204.8c0-2.77,0.91-5.06,2.72-6.88c1.81-1.81,4.11-2.72,6.88-2.72
			h57.92c15.15,0,27.95,5.22,38.4,15.67s15.68,23.25,15.68,38.4v40c0,9.17-2.24,17.86-6.72,26.08
			c-4.48,8.21-10.56,14.77-18.24,19.68L179.71,846.79z M135.23,686.47c0-4.06-1.54-7.57-4.64-10.56c-3.09-2.99-6.77-4.48-11.04-4.48
			h-28.8v72.96h28.8c4.27,0,7.95-1.49,11.04-4.48c3.09-2.98,4.64-6.5,4.64-10.56V686.47z"/>
		<path class="st5" d="M370.74,753.99c1.07,4.26,1.6,8.43,1.6,12.48v81.92c0,2.77-0.9,5.07-2.72,6.88
			c-1.81,1.82-4.11,2.72-6.88,2.72h-18.56c-2.77,0-5.06-0.91-6.88-2.72c-1.81-1.81-2.72-4.11-2.72-6.88v-56.96h-58.24v56.96
			c0,2.77-0.9,5.07-2.72,6.88c-1.81,1.82-4.11,2.72-6.88,2.72h-18.56c-2.77,0-5.07-0.91-6.88-2.72c-1.82-1.81-2.72-4.11-2.72-6.88
			v-81.92c0-3.62,0.53-7.79,1.6-12.48l32.64-111.36c1.71-5.76,5.33-8.64,10.88-8.64h43.52c5.55,0,9.17,2.87,10.88,8.64
			L370.74,753.99z M308.66,671.43h-6.4l-22.4,82.56h51.2L308.66,671.43z"/>
		<path class="st5" d="M444.32,857.99c-2.77,0-5.07-0.91-6.88-2.72c-1.82-1.81-2.72-4.11-2.72-6.88v-204.8
			c0-2.77,0.91-5.06,2.72-6.88c1.81-1.81,4.11-2.72,6.88-2.72h54.08c17.28,0,32,6.08,44.16,18.24
			c12.16,12.16,18.24,26.88,18.24,44.16v99.2c0,17.28-6.08,32-18.24,44.16c-12.16,12.16-26.88,18.24-44.16,18.24H444.32z
			 M521.12,695.11c0-6.61-2.29-12.21-6.88-16.8c-4.59-4.59-10.19-6.88-16.8-6.88h-24.32v149.12h24.32c6.61,0,12.21-2.24,16.8-6.72
			c4.59-4.48,6.88-10.03,6.88-16.64V695.11z"/>
		<path class="st5" d="M753.42,850.31c0,5.12-2.77,7.68-8.32,7.68H633.11c-2.14,0-3.95-0.75-5.45-2.24
			c-1.49-1.49-2.24-3.31-2.24-5.44v-21.76c0-2.13,0.75-3.95,2.24-5.44c1.5-1.49,3.31-2.24,5.45-2.24h36.8V671.11h-36.8
			c-2.14,0-3.95-0.75-5.45-2.24c-1.49-1.5-2.24-3.31-2.24-5.45v-21.75c0-2.13,0.75-3.95,2.24-5.44c1.5-1.5,3.31-2.24,5.45-2.24
			H745.1c5.55,0,8.32,2.56,8.32,7.68v21.75c0,5.12-2.77,7.69-8.32,7.69h-36.48v149.75h36.48c5.55,0,8.32,2.56,8.32,7.68V850.31z"/>
		<path class="st5" d="M864.61,674.15c-4.8,4.58-7.2,9.97-7.2,16.16c0,6.61,3.09,12.64,9.28,18.08c6.19,5.44,13.65,10.45,22.4,15.04
			c8.74,4.58,17.54,9.75,26.39,15.52c8.86,5.76,16.37,13.71,22.56,23.84c6.19,10.14,9.28,22.03,9.28,35.69
			c0,17.07-6.4,31.78-19.2,44.16c-12.8,12.37-28.27,18.56-46.4,18.56c-18.13,0-33.6-6.19-46.4-18.56
			c-12.8-12.38-19.21-27.31-19.21-44.8c0-2.77,0.91-5.07,2.72-6.88c1.82-1.82,4.11-2.72,6.88-2.72h18.56c2.77,0,5.06,0.91,6.88,2.72
			c1.81,1.81,2.72,4.11,2.72,6.88c0,8.53,2.83,15.14,8.48,19.84c5.66,4.69,12.11,7.04,19.36,7.04c7.47,0,13.65-2.45,18.56-7.36
			c4.91-4.91,7.36-10.45,7.36-16.64c0-8.31-3.04-15.57-9.12-21.75c-6.08-6.19-13.49-11.52-22.24-16
			c-8.74-4.48-17.5-9.34-26.24-14.56c-8.74-5.23-16.16-12.48-22.24-21.76c-6.08-9.28-9.12-20.43-9.12-33.44
			c0-17.71,6.13-32.53,18.4-44.48c12.27-11.94,27.15-17.92,44.64-17.92c19.2,0,34.24,6.3,45.12,18.88
			c10.89,12.59,16.32,25.18,16.32,37.76c0,2.77-0.85,5.06-2.56,6.88c-1.71,1.82-3.95,2.72-6.72,2.72h-19.21
			c-5.33,0-8.74-3.2-10.24-9.6c-1.28-4.91-3.9-9.49-7.84-13.76c-3.95-4.26-8.91-6.4-14.88-6.4
			C875.12,667.28,869.42,669.57,864.61,674.15z"/>
	</g>
	<g>
		<path class="st4" d="M498.61,495.77c-0.78,1.8-1.56,3.68-2.35,5.47c0.08-2.11,0.23-4.14,0.39-6.18
			C497.28,495.38,497.98,495.62,498.61,495.77z"/>
	</g>
</g>
</svg>
