<?xml version="1.0"?>
<svg xmlns="http://www.w3.org/2000/svg" id="Layer_1" data-name="Layer 1" viewBox="0 0 128 128" width="512" height="512"><path d="M111.75,51.12V48.375h9.75a1.751,1.751,0,0,0,1.75-1.75V39.75a1.75,1.75,0,0,0-.874-1.515l-57.5-33.25a1.747,1.747,0,0,0-1.752,0l-57.5,33.25A1.75,1.75,0,0,0,4.75,39.75v6.875a1.751,1.751,0,0,0,1.75,1.75h9.75V51.12a3.255,3.255,0,0,0,3,3.241V101.75H13.875a1.751,1.751,0,0,0-1.75,1.75v7.25H6.5a1.751,1.751,0,0,0-1.75,1.75v9a1.751,1.751,0,0,0,1.75,1.75h115a1.751,1.751,0,0,0,1.75-1.75v-9a1.751,1.751,0,0,0-1.75-1.75h-5.625V103.5a1.751,1.751,0,0,0-1.75-1.75H108.75v-40.4c0-.033.01-.064.01-.1s-.008-.064-.01-.1V54.361A3.255,3.255,0,0,0,111.75,51.12Zm-6.5,3V59.5h-5.5V54.12a3.255,3.255,0,0,0-3-3.241v-2.5h11.5v2.5A3.255,3.255,0,0,0,105.25,54.12ZM83.08,101.75v-40.4c0-.033.01-.064.01-.1s-.008-.064-.01-.1V54.361a3.255,3.255,0,0,0,3-3.241V48.375h7.17V51.12a3.255,3.255,0,0,0,3,3.241V101.75Zm-9,0V63h5.5v38.75Zm-16.66,0V54.361a3.255,3.255,0,0,0,3-3.241V48.375h7.16V51.12a3.255,3.255,0,0,0,3,3.241V101.75Zm-9,0V63h5.5v38.75Zm-16.67,0V54.361a3.255,3.255,0,0,0,3-3.241V48.375h7.17V51.12a3.255,3.255,0,0,0,3,3.241V101.75ZM56.92,48.375v2.5a3.255,3.255,0,0,0-3,3.241V59.5h-5.5V54.12a3.255,3.255,0,0,0-3-3.241v-2.5Zm25.66,0v2.5a3.255,3.255,0,0,0-3,3.241V59.5h-5.5V54.12a3.255,3.255,0,0,0-3-3.241v-2.5ZM8.25,40.76,64,8.521,119.75,40.76v4.115h-9.7c-.016,0-.031-.005-.048-.005H95c-.017,0-.032.005-.048.005H84.378c-.016,0-.031-.005-.048-.005h-15c-.017,0-.032.005-.048.005H58.718c-.016,0-.031-.005-.048-.005h-15c-.017,0-.032.005-.048.005H33.048c-.016,0-.031-.005-.048-.005H18c-.017,0-.032.005-.048.005H8.25Zm23,7.615v2.5a3.255,3.255,0,0,0-3,3.241V59.5h-5.5V54.12a3.255,3.255,0,0,0-3-3.241v-2.5ZM22.75,63h5.5v38.75h-5.5Zm97,56.75H8.25v-5.5h111.5Zm-7.375-9H15.625v-5.5h96.75Zm-12.625-9V63h5.5v38.75Z"/><path d="M64,38.747A7.75,7.75,0,1,0,56.25,31,7.759,7.759,0,0,0,64,38.747Zm0-12A4.25,4.25,0,1,1,59.75,31,4.255,4.255,0,0,1,64,26.747Z"/><path d="M80.293,24.875l15.192,8.784a1.75,1.75,0,0,0,1.752-3.03L82.045,21.844a1.75,1.75,0,0,0-1.752,3.031Z"/></svg>
