<?xml version="1.0" encoding="UTF-8" standalone="no"?>
<!-- Created with Inkscape (http://www.inkscape.org/) -->

<svg
   xmlns:dc="http://purl.org/dc/elements/1.1/"
   xmlns:cc="http://creativecommons.org/ns#"
   xmlns:rdf="http://www.w3.org/1999/02/22-rdf-syntax-ns#"
   xmlns:svg="http://www.w3.org/2000/svg"
   xmlns="http://www.w3.org/2000/svg"
   xmlns:sodipodi="http://sodipodi.sourceforge.net/DTD/sodipodi-0.dtd"
   xmlns:inkscape="http://www.inkscape.org/namespaces/inkscape"
   width="210mm"
   height="297mm"
   viewBox="0 0 210 297"
   version="1.1"
   id="svg870"
   inkscape:version="0.92.5 (2060ec1f9f, 2020-04-08)"
   sodipodi:docname="slogan-vertical.svg">
  <defs
     id="defs864" />
  <sodipodi:namedview
     id="base"
     pagecolor="#ffffff"
     bordercolor="#666666"
     borderopacity="1.0"
     inkscape:pageopacity="0.0"
     inkscape:pageshadow="2"
     inkscape:zoom="0.35"
     inkscape:cx="-125.71429"
     inkscape:cy="560"
     inkscape:document-units="mm"
     inkscape:current-layer="layer1"
     showgrid="false"
     inkscape:window-width="1440"
     inkscape:window-height="875"
     inkscape:window-x="1366"
     inkscape:window-y="0"
     inkscape:window-maximized="1" />
  <metadata
     id="metadata867">
    <rdf:RDF>
      <cc:Work
         rdf:about="">
        <dc:format>image/svg+xml</dc:format>
        <dc:type
           rdf:resource="http://purl.org/dc/dcmitype/StillImage" />
        <dc:title></dc:title>
      </cc:Work>
    </rdf:RDF>
  </metadata>
  <g
     inkscape:label="Layer 1"
     inkscape:groupmode="layer"
     id="layer1">
    <path
       inkscape:connector-curvature="0"
       d="m 100.99282,180.43639 c -1.682417,-0.11406 -3.963675,-0.3707 -7.984385,-0.92676 -2.666228,-0.35645 -6.686937,-1.39727 -9.980506,-2.56641 -0.784183,-0.28516 -1.653909,-0.58457 -1.924816,-0.67012 -0.855468,-0.25664 -2.438092,-0.91251 -4.063488,-1.68243 -0.86973,-0.41348 -2.281259,-1.0836 -3.150989,-1.49708 -0.869729,-0.41347 -1.867779,-0.92676 -2.209967,-1.15489 -0.926761,-0.59882 -2.880089,-1.76797 -2.93712,-1.76797 -0.09981,0 -3.193761,-2.13868 -4.747868,-3.29356 -1.725202,-1.28321 -2.509384,-1.92482 -3.122472,-2.58068 -0.199611,-0.22813 -0.427737,-0.39922 -0.499026,-0.39922 -0.07129,0 -0.370705,-0.21386 -0.641604,-0.48477 -1.226176,-1.16914 -4.833415,-4.8049 -5.261151,-5.30392 -0.256642,-0.31367 -0.769925,-0.86973 -1.112114,-1.26895 -1.896295,-2.11016 -5.446503,-7.15745 -6.72971,-9.58128 -0.185353,-0.34219 -0.142579,-0.37071 2.138679,-1.59688 l 1.097855,-0.58458 0.171095,0.31368 c 0.142579,0.28515 2.452352,3.8211 2.737509,4.17755 0.05703,0.0855 0.499025,0.68438 0.998051,1.3545 0.484767,0.67012 1.055081,1.38301 1.240433,1.58262 0.199611,0.21386 0.613089,0.72715 0.926761,1.14063 0.627347,0.8127 7.128931,7.39983 7.898857,7.97014 0.598831,0.44199 2.124421,1.68243 2.537899,2.0674 0.441994,0.39921 3.065441,2.16719 5.061542,3.42188 1.739459,1.0836 7.54241,4.06349 9.02523,4.63381 0.470506,0.17109 0.98379,0.38496 1.140625,0.442 2.281265,0.96952 9.923471,3.17949 10.935782,3.15098 0.213864,0 0.427735,0.0571 0.48477,0.12832 0.04276,0.0713 0.128314,0.0998 0.18535,0.0571 0.07129,-0.0285 0.655862,0.0285 1.311725,0.14258 3.208026,0.57031 5.118556,0.69864 10.180103,0.71289 4.81915,0 7.84183,-0.18535 9.98051,-0.6416 0.31367,-0.0571 0.67012,-0.11406 0.78418,-0.12832 0.65586,-0.0571 0.95528,-0.11407 1.11211,-0.21387 0.0998,-0.0571 0.22813,-0.0713 0.28516,-0.0285 0.29941,0.17109 5.13283,-1.11211 8.29808,-2.20997 1.14063,-0.39922 2.13868,-0.74141 2.22423,-0.75567 0.0998,-0.0143 0.2709,-0.0998 0.38496,-0.19961 0.11406,-0.0998 0.2709,-0.17109 0.32794,-0.15683 0.0713,0.0143 0.25664,-0.0143 0.41347,-0.0713 0.15684,-0.0571 0.41348,-0.15684 0.57031,-0.21386 0.15684,-0.0571 1.41154,-0.65587 2.78029,-1.34025 1.36875,-0.67012 2.52363,-1.22617 2.56641,-1.21192 0.0428,0.0143 0.3422,-0.15683 0.68438,-0.3707 0.34219,-0.21387 0.75567,-0.442 0.92676,-0.51328 0.47051,-0.21387 4.02072,-2.45236 5.23264,-3.30783 0.58457,-0.41347 1.56836,-1.15489 2.16719,-1.63965 0.59883,-0.49903 1.16915,-0.89825 1.2547,-0.89825 0.0713,0 0.14257,-0.0713 0.14257,-0.14257 0,-0.0855 0.19961,-0.2709 0.442,-0.41348 1.19766,-0.72716 6.97209,-6.47308 8.46917,-8.4264 0.31367,-0.41348 0.71288,-0.89825 0.88398,-1.08359 0.44199,-0.48477 1.88204,-2.39533 2.56642,-3.40764 0.76992,-1.15489 3.06544,-4.96173 3.09395,-5.13283 0.0143,-0.0713 0.25664,-0.55606 0.5418,-1.06933 1.11212,-1.98185 2.85158,-5.70315 3.02267,-6.43031 0.0713,-0.35644 0.0428,-0.38495 -0.6416,-0.4705 -0.38496,-0.0571 -12.29028,-0.0855 -26.43408,-0.0713 -23.86766,0.0142 -25.73545,0.0285 -25.73545,0.24238 0,0.14257 0.0998,1.0123 0.21387,1.95332 0.11406,0.94102 0.21387,2.60918 0.21387,3.70705 0,1.09785 0.0428,2.52364 0.0998,3.17949 0.0713,1.06935 0.11406,1.18341 0.45625,1.36876 0.1996,0.0998 1.36875,0.71289 2.58067,1.36876 1.21192,0.6416 2.36681,1.22617 2.55216,1.31172 0.68437,0.25664 3.53595,2.23849 4.71935,3.27931 2.42384,2.12442 3.30783,3.27931 4.7051,6.10236 0.82696,1.68243 1.02656,2.28126 0.9125,2.75177 l -0.0855,0.39922 -1.08361,-0.0427 c -1.05508,-0.0428 -1.09785,-0.0571 -1.14062,-0.39922 -0.0285,-0.32793 -0.19961,-0.72716 -1.28321,-3.13674 -0.68438,-1.51133 -2.82306,-3.76407 -5.10432,-5.34669 l -0.72715,-0.51328 -1.31172,1.24042 c -0.7129,0.68439 -1.29747,1.36876 -1.29747,1.49708 0,0.14258 0.42774,0.79844 0.94102,1.44005 0.52754,0.64161 1.16915,1.6254 1.44004,2.19571 0.42774,0.9125 0.48477,1.15489 0.51329,2.35255 l 0.0143,1.34024 -1.06934,0.0428 -1.0836,0.0428 -0.0855,-1.14063 c -0.0571,-0.89824 -0.15684,-1.29746 -0.51328,-1.96758 -0.57031,-1.05508 -1.61114,-2.46662 -1.82501,-2.46662 -0.1996,0 -1.21191,1.58263 -1.66816,2.6092 -0.18536,0.41347 -0.48477,1.25469 -0.65586,1.86778 l -0.32793,1.09785 -1.01232,-0.0428 c -1.12637,-0.0428 -1.05508,0.0571 -0.81269,-1.1834 0.11406,-0.61309 0.67012,-1.9961 1.24043,-3.09396 0.18535,-0.38496 0.31367,-0.68437 0.2709,-0.68437 -0.11406,0 0.76992,-1.29747 1.16915,-1.69669 0.18535,-0.18535 0.32792,-0.41348 0.32792,-0.51328 0,-0.21387 -2.03887,-2.13868 -2.86583,-2.72326 -0.5418,-0.3707 -0.57031,-0.3707 -0.84122,-0.12831 -0.15683,0.14257 -0.28514,0.32792 -0.28514,0.41347 0,0.0855 -0.21388,0.35645 -0.47052,0.61309 -0.51328,0.49902 -1.4543,2.03887 -1.91055,3.10822 -0.3707,0.88398 -0.49903,1.61113 -0.47052,2.65196 0,0.42773 -0.0571,0.95527 -0.12831,1.16914 -0.0998,0.25664 -0.0998,0.39922 0,0.47051 0.0855,0.0428 0.12831,0.5418 0.0998,1.21192 l -0.0428,1.14063 -0.85548,-0.0428 -0.85546,-0.0428 -0.0285,-0.7129 c -0.0855,-1.68242 -0.6131,-4.32013 -1.19767,-5.91701 -0.44199,-1.22617 -1.5541,-3.43614 -1.75371,-3.50743 -0.11407,-0.0428 -0.44199,0.0998 -0.741407,0.29941 -0.59883,0.39922 -2.609184,2.35255 -2.623442,2.52365 0,0.0713 0.213864,0.41348 0.484762,0.78418 0.58458,0.8127 1.39727,2.56641 1.79649,3.84962 0.15684,0.51329 0.28516,0.96954 0.28516,1.02657 0,0.0428 -0.51328,0.0998 -1.12637,0.11407 l -1.140628,0.0285 -0.242385,-0.74142 c -0.441992,-1.38301 -1.55411,-3.3791 -1.867773,-3.3791 -0.09981,0 -0.256649,0.14257 -0.342192,0.32793 -0.09981,0.17109 -0.670119,0.95527 -1.268953,1.75371 -0.98379,1.29746 -1.211918,1.68243 -1.482817,2.5379 -0.08554,0.24239 -0.18535,0.25665 -1.040826,0.18536 -0.513277,-0.0571 -0.969533,-0.11406 -0.998047,-0.14259 -0.07129,-0.0855 0.470513,-1.53984 0.998047,-2.66622 0.456256,-0.99804 1.425796,-2.43809 2.224229,-3.32208 l 0.48477,-0.54179 -0.698633,-0.7129 c -0.370706,-0.38496 -0.75567,-0.69863 -0.841219,-0.69863 -0.07129,0 -0.299414,-0.15684 -0.49902,-0.34219 -0.199614,-0.18535 -0.57032,-0.5418 -0.841219,-0.78419 l -0.470506,-0.45625 -0.88399,0.57032 c -1.710945,1.06934 -4.305873,3.6215 -5.090057,4.96173 -0.427734,0.75567 -0.527541,1.06934 -0.598826,2.05314 -0.05706,0.6416 -0.128321,1.19766 -0.156835,1.22617 -0.04276,0.0428 -0.584577,0.11407 -1.226183,0.1711 -0.855469,0.0713 -1.183396,0.057 -1.240432,-0.0713 -0.114064,-0.29941 0.228128,-2.29551 0.541799,-3.13673 0.941018,-2.5379 2.766027,-4.40567 8.05569,-8.32659 2.338293,-1.73945 4.234588,-3.1795 4.619551,-3.53594 0.199614,-0.18536 0.527541,-0.42774 0.741405,-0.54181 0.613091,-0.31367 2.024622,-2.42383 2.167193,-3.22227 0.04276,-0.18535 0.07129,-0.35645 0.08555,-0.39922 0.0143,-0.0428 0.0428,-0.12833 0.0713,-0.21387 0.0143,-0.0713 0.0428,-0.19961 0.0713,-0.28516 0.0143,-0.0713 0.0143,-0.29941 0,-0.48476 -0.0285,-0.29942 0.0143,-0.32793 0.31368,-0.22813 0.17109,0.0571 0.7414,0.14258 1.24043,0.1711 l 0.898254,0.0713 -0.0998,0.65587 c -0.12833,0.89824 -0.684384,2.33829 -1.240444,3.22227 -0.24238,0.39922 -0.51328,0.85547 -0.59883,1.01231 -0.18535,0.34219 -1.810748,1.86778 -2.509374,2.35255 -0.270899,0.18535 -0.784184,0.58457 -1.126376,0.88399 -0.342184,0.29941 -0.684376,0.54179 -0.755661,0.54179 -0.213871,0 -1.825009,1.31173 -1.753724,1.42579 0.02853,0.0571 0.413477,0.31367 0.855476,0.58457 0.427735,0.25664 0.784184,0.52754 0.784184,0.58457 0,0.0571 0.07128,0.11407 0.171092,0.11407 0.08555,0 0.484763,0.25664 0.855469,0.58457 l 0.698641,0.58457 0.456248,-0.35645 c 0.941019,-0.72714 5.703149,-5.28966 6.244939,-5.9883 0.31368,-0.41348 0.68438,-0.86973 0.8127,-1.02656 0.12832,-0.15684 0.41348,-0.48477 0.61309,-0.74141 l 0.3707,-0.45625 0.34219,0.45625 c 0.1711,0.25664 0.48477,0.58457 0.67013,0.72714 0.18535,0.15685 0.45624,0.38498 0.58457,0.51329 0.12832,0.12832 1.02656,0.82696 2.01035,1.53985 0.98379,0.71289 2.06739,1.51133 2.42384,1.76797 0.34218,0.25665 1.32598,1.06934 2.18146,1.81076 1.7252,1.48281 1.44004,1.44004 2.52364,0.44199 0.21386,-0.19961 0.62735,-0.52754 0.9125,-0.71289 0.28516,-0.19962 0.49902,-0.442 0.48477,-0.55607 -0.0285,-0.0998 -1.06934,-0.71288 -2.32403,-1.35449 -3.32208,-1.69668 -4.04925,-2.19571 -4.34865,-3.00841 -0.0998,-0.25664 -0.22814,-2.0959 -0.29942,-4.49123 -0.0713,-2.23847 -0.18536,-4.7336 -0.2709,-5.56056 -0.34219,-3.65001 -0.35645,-4.1633 -0.0713,-4.3629 0.22812,-0.17109 5.30393,-0.19962 30.54035,-0.19962 16.65318,0 30.26944,0.0285 30.26944,0.0713 0,0.0428 -0.21386,0.67012 -0.48476,1.39728 -0.25664,0.71289 -0.5418,1.51133 -0.62735,1.73946 -0.0713,0.24238 -0.3707,0.96953 -0.6416,1.63964 -0.2709,0.67013 -0.57032,1.46857 -0.67012,1.78224 -0.0998,0.31368 -0.96954,2.18145 -1.93907,4.13478 -1.86778,3.76408 -4.44846,7.94163 -6.55862,10.57934 -0.54179,0.68438 -1.12637,1.4543 -1.26894,1.68243 -0.68439,1.09785 -6.35901,7.01486 -8.22679,8.58323 -0.49903,0.41347 -1.21192,1.05508 -1.61114,1.41153 -0.38496,0.3707 -1.12637,0.94102 -1.63966,1.2832 -0.51328,0.32794 -1.15489,0.81271 -1.42578,1.06935 -1.26895,1.15488 -6.20217,4.19181 -9.3389,5.74591 -4.63381,2.28127 -4.47697,2.20997 -8.19827,3.50743 -5.90276,2.03888 -9.45297,2.82306 -15.89753,3.49319 -2.52364,0.25664 -7.84183,0.37069 -10.26566,0.21386 z m 3.93518,-26.53388 c 0.25663,-0.48477 0.94102,-1.36876 1.52559,-1.96759 l 1.04082,-1.08359 -0.47051,-0.38497 c -0.25664,-0.21386 -0.9125,-0.7414 -1.45429,-1.1834 l -0.96954,-0.78418 -1.26896,1.25469 c -0.69862,0.68438 -1.26894,1.31172 -1.26894,1.39727 0,0.0855 0.14257,0.31367 0.32792,0.49903 0.55607,0.58457 1.04083,1.29746 1.51134,2.23848 0.24239,0.48477 0.47051,0.88399 0.51328,0.88399 0.0285,0 0.2709,-0.39922 0.51329,-0.86973 z"
       id="path2"
       style="fill:#0f3199;fill-opacity:1;stroke-width:0.01425786" />
    <path
       inkscape:connector-curvature="0"
       d="m 41.808446,135.70948 c -0.213868,-0.0428 -0.47051,-0.442 -0.969535,-1.51134 -0.370704,-0.79844 -0.79844,-1.83926 -0.969534,-2.30977 -0.413478,-1.25469 -1.254693,-4.64807 -1.183403,-4.79065 0.04277,-0.0571 0.01426,-0.14258 -0.07129,-0.19961 -0.07128,-0.0428 -0.128321,-0.22812 -0.128321,-0.39921 0.01426,-0.32794 -0.02852,-0.67013 -0.370703,-2.59494 -1.254692,-7.11468 -1.226177,-15.29869 0.08555,-22.59871 0.171094,-0.89825 0.299415,-1.796493 0.299415,-1.996107 0,-0.199606 0.04277,-0.413477 0.08555,-0.49902 0.04277,-0.07128 0.0998,-0.327934 0.128321,-0.570312 0.128321,-1.15489 2.081648,-7.513894 2.951378,-9.538516 0.128321,-0.299413 0.228125,-0.641597 0.228125,-0.741404 0,-0.270907 0.812699,-2.038873 2.195711,-4.833415 0.627346,-1.254695 1.154887,-2.338293 1.169144,-2.423837 0.02852,-0.171099 1.924812,-3.279314 3.108215,-5.104316 0.79844,-1.226178 1.86778,-2.73751 2.238484,-3.150991 0.441994,-0.484768 0.556057,-0.655861 0.556057,-0.784179 0,-0.08555 0.08555,-0.199611 0.19961,-0.256642 0.0998,-0.05704 0.213868,-0.185354 0.242383,-0.285159 0.213868,-0.641605 6.27346,-7.114674 7.898857,-8.440653 0.470509,-0.384964 1.112114,-0.955278 1.425786,-1.254696 0.869729,-0.826953 2.024616,-1.753714 2.181453,-1.753714 0.08555,0 0.171094,-0.05703 0.199611,-0.128324 0.08555,-0.228123 2.509383,-1.981843 4.476968,-3.250792 2.894347,-1.867779 3.421886,-2.167191 6.330491,-3.635753 3.20802,-1.625396 4.705094,-2.295514 6.20217,-2.823056 4.348651,-1.525591 5.503534,-1.896297 7.128936,-2.352551 1.012304,-0.2709 1.86778,-0.470506 1.896294,-0.427735 0.04276,0.04279 0.156836,0 0.256643,-0.08555 0.114056,-0.08555 0.285148,-0.128318 0.413477,-0.08555 0.114064,0.05704 0.242385,0.02851 0.285156,-0.05703 0.05706,-0.07128 0.156835,-0.09981 0.228128,-0.05703 0.07129,0.05703 0.213864,0.04279 0.31367,-0.02851 0.08554,-0.05703 0.327928,-0.114064 0.527542,-0.128323 0.199614,-0.01428 1.283203,-0.185353 2.423835,-0.384959 4.206063,-0.727154 6.031073,-0.869732 10.90726,-0.88399 4.87619,0 6.44456,0.128318 10.90727,0.86973 2.56641,0.427736 2.66621,0.441995 3.13673,0.541796 0.19961,0.04279 0.57031,0.09981 0.82695,0.142582 1.59689,0.256642 4.81917,1.240432 9.73813,2.979892 2.60919,0.926761 7.69924,3.436146 10.33695,5.104313 0.79844,0.499025 1.95333,1.226178 2.56641,1.611138 0.99806,0.627348 3.13674,2.167197 3.56447,2.566416 0.0856,0.08555 0.31367,0.256641 0.48477,0.370706 0.59883,0.399218 1.35449,1.026566 2.40957,1.967585 0.58458,0.527542 1.22619,1.083596 1.44005,1.240437 0.58457,0.441988 4.36291,4.334388 5.48928,5.646114 0.55606,0.641601 1.14063,1.311719 1.29746,1.468554 0.41348,0.399225 1.76798,2.181456 1.76798,2.324033 0,0.05704 0.17109,0.270901 0.38496,0.470512 0.39922,0.384959 2.56641,3.635753 3.74982,5.631854 0.41348,0.712897 0.84121,1.383015 0.92676,1.497075 0.49903,0.627349 3.65001,7.242994 4.06349,8.554718 0.14258,0.427735 0.58457,1.710946 0.98379,2.85157 1.24044,3.535956 2.32403,7.656479 2.30978,8.811361 -0.0143,0.171098 0.0427,0.313678 0.11406,0.313678 0.0713,0 0.12832,0.21386 0.12832,0.47051 0,0.24238 0.12832,1.35449 0.28516,2.45235 0.59883,3.97794 0.65586,4.91896 0.62735,9.09651 -0.0143,3.50744 -0.18535,6.90082 -0.3422,7.00062 -0.0713,0.0571 -3.56446,-0.18535 -3.63575,-0.25665 -0.0285,-0.0285 0,-1.36875 0.0855,-2.96563 0.21387,-4.19182 -0.11407,-9.05374 -0.92676,-13.8729 -0.21387,-1.16915 -0.38497,-2.238488 -0.41348,-2.352544 -0.0143,-0.114064 -0.0856,-0.327935 -0.14258,-0.470513 -0.0571,-0.142578 -0.0713,-0.285156 -0.0285,-0.327935 0.18535,-0.199607 -1.58263,-6.031075 -2.6377,-8.68304 -0.31368,-0.784182 -0.65587,-1.696681 -0.78419,-2.038873 -0.69864,-2.095899 -4.99025,-9.92347 -6.04534,-11.049842 -0.14257,-0.171095 -0.35644,-0.470506 -0.44199,-0.698636 -0.0998,-0.213864 -0.22812,-0.399219 -0.28515,-0.399219 -0.0713,0 -0.11407,-0.07128 -0.11407,-0.156835 0,-0.128322 -0.74141,-1.183401 -0.99805,-1.411531 -0.0428,-0.04279 -0.75566,-0.898242 -1.56837,-1.924809 -1.825,-2.267004 -6.15939,-6.644163 -8.48342,-8.540459 -0.94102,-0.784184 -1.78223,-1.497079 -1.86778,-1.611138 -0.0855,-0.09981 -0.21387,-0.185353 -0.28516,-0.185353 -0.0713,0 -0.24238,-0.114064 -0.37071,-0.242382 -0.3707,-0.399224 -0.65585,-0.613089 -0.82695,-0.613089 -0.0713,0 -0.14258,-0.05704 -0.14258,-0.142583 0,-0.07128 -0.0855,-0.142577 -0.17109,-0.156835 -0.0998,0 -0.47051,-0.228124 -0.82696,-0.484766 -2.68048,-2.038874 -8.91116,-5.432249 -12.26176,-6.701197 -6.51584,-2.480857 -10.22288,-3.407617 -16.68169,-4.234571 -3.13674,-0.399223 -10.77896,-0.441995 -13.972707,-0.07129 -5.774438,0.670119 -11.206679,1.967585 -15.555323,3.7213 -0.513284,0.199612 -1.28321,0.470512 -1.710945,0.59883 -1.211925,0.356448 -7.770539,3.764076 -9.909219,5.147089 -2.766025,1.796491 -4.719352,3.179505 -5.617598,4.020718 -0.427735,0.399219 -0.841213,0.727148 -0.912504,0.727148 -0.513281,0.01428 -7.513893,6.915068 -8.511943,8.397882 -0.228126,0.34219 -0.712893,0.955279 -1.06934,1.354496 -0.826955,0.926766 -1.967585,2.523645 -3.407629,4.790643 -0.613088,0.983795 -1.211918,1.896298 -1.325981,2.024618 -0.0998,0.128323 -0.584572,0.998048 -1.055081,1.924809 -2.780284,5.432248 -2.708995,5.289669 -4.534001,10.522306 -0.641604,1.839266 -1.297466,4.049238 -1.482818,4.918964 -0.04278,0.199613 -0.114063,0.513284 -0.156837,0.712898 -0.270899,1.211917 -1.083597,6.102359 -1.297465,7.841819 -0.327931,2.62345 -0.370704,9.99476 -0.08555,12.6895 0.370705,3.46466 1.497076,9.19632 2.395321,12.23326 l 0.228125,0.74141 h 27.146966 27.146972 v -1.81075 c 0,-1.01232 -0.0713,-3.16526 -0.14258,-4.81917 l -0.15684,-2.99414 -0.598829,-0.59884 c -0.31367,-0.34218 -0.670112,-0.61308 -0.769912,-0.61308 -0.09981,0 -0.256649,-0.12833 -0.356456,-0.28517 -0.09981,-0.15683 -0.228128,-0.28515 -0.270899,-0.28515 -0.05706,0 -0.570313,-0.28516 -1.169147,-0.6416 -0.584569,-0.35645 -1.440038,-0.76993 -1.896294,-0.92676 -1.710945,-0.59884 -4.690836,-0.68438 -6.644159,-0.21387 -1.325989,0.32793 -3.664275,1.41153 -5.175606,2.40958 l -1.411529,0.94101 -0.684377,-0.67011 c -0.484768,-0.47052 -0.641605,-0.7129 -0.527541,-0.84122 0.07129,-0.0855 0.883991,-0.61309 1.810752,-1.16914 4.163295,-2.48087 5.859976,-2.9799 9.609793,-2.83732 3.008413,0.0998 4.49123,0.61309 6.786752,2.29552 0.484763,0.3707 0.912497,0.65586 0.941018,0.65586 0.08554,0 -0.05706,-0.86973 -0.270906,-1.59688 -0.356449,-1.21192 -3.165248,-4.24884 -5.417991,-5.84573 -1.839259,-1.29746 -3.607232,-2.06739 -6.259196,-2.68047 l -1.254696,-0.29942 -0.527534,0.41348 c -0.285164,0.22812 -0.670127,0.48476 -0.855476,0.59883 -0.18535,0.0998 -0.598827,0.41348 -0.926762,0.7129 -0.527534,0.48476 -3.39337,2.42383 -3.578723,2.42383 -0.04277,0 -0.898246,0.44199 -1.896296,0.98379 -1.012307,0.54181 -2.067391,1.0836 -2.338289,1.19766 l -0.513284,0.21387 -0.541797,-0.78418 c -0.441995,-0.62735 -0.499027,-0.79844 -0.327931,-0.91251 0.114064,-0.0713 0.25664,-0.12832 0.313671,-0.12832 0.07129,0 0.912504,-0.38496 1.882039,-0.85547 0.969535,-0.47051 1.79649,-0.85547 1.839265,-0.85547 0.07129,0 3.735564,-2.18145 4.534004,-2.72325 0.285149,-0.18535 0.527542,-0.38496 0.541791,-0.44199 0.0143,-0.37071 -6.615644,-0.41348 -9.424445,-0.0428 -0.955276,0.11406 -1.753716,0.19961 -1.782231,0.17109 -0.02851,-0.0285 -0.114064,-0.3707 -0.185353,-0.75567 -0.0998,-0.48476 -0.08555,-0.72715 0.02851,-0.79844 0.228125,-0.14258 1.710944,-0.38495 2.994151,-0.48476 0.684378,-0.0571 1.097857,-0.15684 1.097857,-0.25664 0,-0.32793 -3.250794,-2.0959 -5.27541,-2.86583 -0.356448,-0.14259 -1.183403,-0.38496 -1.853522,-0.55606 l -1.21192,-0.31367 -0.04277,-0.67012 -0.04277,-0.67012 0.613089,0.0855 c 0.342188,0.0571 1.226176,0.25664 1.967585,0.442 0.741409,0.1996 1.582622,0.41347 1.867779,0.48477 0.67012,0.15683 2.666221,1.0123 3.521692,1.51133 1.268951,0.72715 2.723253,1.88204 2.823057,2.22423 0.07129,0.34218 0.114064,0.34218 2.381065,0.42773 3.74981,0.12832 7.499635,0.78419 9.29613,1.59688 0.399213,0.17109 1.012304,0.42774 1.368753,0.5418 0.883983,0.29941 1.539845,0.69863 3.051176,1.82501 1.86778,1.39727 2.594928,2.15293 4.876182,5.06153 0.18536,0.21387 0.32794,0.51329 0.32794,0.65587 0,0.14257 0.0713,0.25664 0.1711,0.25664 0.0855,0 0.12831,0.0428 0.0713,0.0855 -0.0428,0.0428 0.0571,0.44199 0.1996,0.88398 0.15684,0.45626 0.41349,1.68243 0.58458,2.73751 0.25664,1.68243 0.28515,2.5379 0.27089,6.91507 -0.0428,8.06995 -0.0285,8.02718 -0.3707,8.11272 -0.32793,0.0998 -57.159769,0.0713 -57.61602,-0.0143 z"
       id="path4"
       style="fill:#00904c;fill-opacity:1;stroke-width:0.01425786" />
    <path
       inkscape:connector-curvature="0"
       d="m 110.5456,124.90201 c -0.0713,-0.0285 -0.442,-0.0855 -0.79845,-0.14258 l -0.65586,-0.0855 0.19961,-1.59688 c 0.67012,-5.63186 1.95333,-8.5975 4.99026,-11.52036 1.21192,-1.1834 1.98184,-1.66816 4.74787,-3.02266 2.62344,-1.28321 3.32208,-1.56837 4.8049,-1.93907 1.32598,-0.34219 1.21191,-0.32793 3.57873,-0.34219 2.18144,0 2.22422,0 4.04922,0.2709 l 1.39728,0.19961 0.65586,-0.65586 c 0.47051,-0.48477 1.15489,-0.89824 2.52364,-1.55411 1.56836,-0.74141 3.12247,-1.32598 3.6215,-1.36875 0.0713,0 0.1996,-0.0713 0.29941,-0.15684 0.0855,-0.0855 0.17109,-0.0998 0.17109,-0.0428 0,0.0571 0.0998,0.0285 0.21387,-0.0713 0.11407,-0.0998 0.21388,-0.14258 0.21388,-0.0998 0,0.0571 0.27089,0 0.58456,-0.11407 0.76993,-0.28514 0.9838,-0.27089 0.9838,0.0428 0,0.14258 0.0998,0.38496 0.21387,0.5418 0.11406,0.14258 0.21387,0.31367 0.21387,0.3707 0,0.12832 -1.71095,1.01231 -2.75177,1.41153 -0.94102,0.35644 -3.94944,1.88204 -3.94944,1.9961 0,0.0571 0.31368,0.12833 0.69865,0.18535 1.26894,0.1711 4.14903,0.9838 4.14903,1.16915 0,0.0998 -0.57032,1.19766 -0.61309,1.19766 -0.0285,0 -0.98379,-0.18535 -2.12442,-0.42774 -3.74982,-0.76992 -11.37777,-1.4543 -11.37777,-1.0123 0,0.27089 2.28125,2.23848 3.67852,3.1795 0.81271,0.5418 2.52365,1.51133 3.82111,2.15294 l 2.33829,1.16914 -0.51328,0.64161 c -0.28516,0.35644 -0.55606,0.72714 -0.61309,0.82695 -0.12832,0.22812 -0.99805,-0.15683 -3.86387,-1.75371 -3.39338,-1.88204 -5.34671,-3.59299 -6.17367,-5.37522 -0.17109,-0.38496 -0.35644,-0.68438 -0.41347,-0.68438 -0.31368,0 -2.6092,0.8127 -3.39338,1.21192 -0.51328,0.25664 -1.19766,0.5418 -1.52559,0.62735 -0.86973,0.24238 -3.47892,2.01035 -4.51974,3.07969 -1.41154,1.42579 -2.95138,3.92091 -3.16524,5.10432 -0.11407,0.62734 -0.0428,0.6416 0.96953,0.18535 2.88009,-1.34024 6.40178,-1.66817 9.92347,-0.95528 2.13868,0.442 4.74787,1.59689 6.64417,2.90861 l 0.84121,0.59883 -0.82695,0.74141 -0.8127,0.74141 -0.85548,-0.58457 c -1.38301,-0.92676 -2.92286,-1.63966 -4.534,-2.05314 -1.36876,-0.37071 -1.71094,-0.39922 -4.06349,-0.39922 -2.33829,-0.0143 -2.69474,0.0285 -4.02072,0.37071 -1.39726,0.3707 -3.4504,1.24043 -3.73556,1.59688 -0.0855,0.0998 -0.21386,0.76992 -0.29941,1.51133 -0.0855,0.74141 -0.18536,1.49707 -0.22813,1.68243 -0.0571,0.28516 -0.31367,0.37071 -0.69863,0.24238 z"
       id="path6"
       style="fill:#00904c;fill-opacity:1;stroke-width:0.01425786" />
    <path
       inkscape:connector-curvature="0"
       d="m 108.17878,113.58127 c -0.25664,-0.19961 -0.34219,-0.442 -0.39922,-1.16914 -0.0713,-0.88399 -0.0998,-6.47308 -0.0285,-7.6137 0.0571,-1.01231 0.72716,-4.37717 1.16915,-5.917021 0.442,-1.554103 2.02462,-4.947478 2.58068,-5.560562 0.18535,-0.199607 0.86973,-0.998054 1.52559,-1.782238 0.65586,-0.784185 2.0959,-2.28126 3.20802,-3.322076 1.09786,-1.040827 2.78029,-2.680485 3.73556,-3.635754 0.94102,-0.955284 2.06739,-2.024622 2.49512,-2.35255 0.42775,-0.342192 1.05509,-0.869733 1.41154,-1.169147 0.35645,-0.299413 1.25469,-0.955275 1.9961,-1.46856 l 1.3545,-0.9125 0.0998,-1.839267 c 0.35645,-6.900805 0.75567,-9.296125 1.99611,-12.290276 0.38496,-0.926761 0.47051,-1.040826 0.74141,-0.955278 0.15683,0.05703 0.44199,0.128318 0.62734,0.171094 0.17109,0.04279 0.31368,0.156835 0.31368,0.2709 0,0.09981 -0.22813,1.154885 -0.49903,2.324033 -0.2709,1.183402 -0.58458,2.880087 -0.71289,3.764076 -0.25664,1.967585 -0.58458,6.758228 -0.47051,6.872286 0.41347,0.413478 5.5463,-3.749817 6.67268,-5.403729 l 0.45624,-0.684379 0.57032,0.55606 0.57032,0.570312 -0.35645,0.698637 c -0.52754,1.040824 -4.2631,4.476969 -4.86193,4.476969 -0.0855,0 -0.32794,0.156836 -0.5418,0.356448 -0.21387,0.199606 -1.62539,1.197661 -3.13673,2.224228 -3.09396,2.110157 -4.39143,3.079698 -4.39143,3.307818 0,0.0143 0.24239,0.0143 0.54181,-0.0143 0.28515,-0.02853 0.9125,-0.07128 1.38301,-0.0998 0.47051,-0.02853 1.59688,-0.185358 2.49512,-0.356449 0.89825,-0.156835 2.35255,-0.384963 3.20803,-0.499027 2.59493,-0.35645 4.7336,-0.769927 5.4465,-1.055082 0.3707,-0.156835 1.44004,-0.627341 2.38106,-1.069341 0.92676,-0.441992 1.71094,-0.798438 1.73946,-0.798438 0.0143,0 0.24238,0.356446 0.49903,0.798438 0.55605,0.983791 0.71289,0.826955 -2.09591,2.209973 -1.9961,0.983789 -3.84962,1.539845 -5.13283,1.55411 -0.25664,0 -1.0836,0.128314 -1.85352,0.285157 -2.12442,0.44199 -4.06349,0.71289 -6.11663,0.855467 -1.0123,0.07128 -2.65196,0.313671 -3.63575,0.527541 -2.12443,0.45625 -2.01036,0.384965 -5.76018,4.106259 -2.50939,2.49513 -3.65002,3.764084 -3.65002,4.063497 0,0.199614 0.85548,0.156835 5.13284,-0.22812 3.70704,-0.342192 4.02072,-0.370707 4.84767,-0.427735 2.48087,-0.156842 5.50354,-0.912512 8.12698,-1.996109 1.05509,-0.427735 2.12443,-0.855469 2.35256,-0.955277 0.24237,-0.08555 0.51327,-0.242384 0.61308,-0.342192 0.0998,-0.0998 0.31367,-0.185349 0.45625,-0.185349 0.14258,0 1.16914,-0.44199 2.267,-0.998046 1.11212,-0.541805 2.03888,-0.998048 2.08165,-0.998048 0.0285,0 0.39922,-0.156842 0.8127,-0.342192 0.9125,-0.413483 1.92481,-0.698633 2.11016,-0.584576 0.0713,0.04276 0.15684,0.0143 0.21387,-0.07128 0.21387,-0.342192 0.58457,-0.114057 0.88399,0.570319 0.1711,0.384956 0.2709,0.727148 0.21387,0.769918 -0.0571,0.02853 -0.45625,0.156843 -0.88399,0.299413 -0.94102,0.299422 -4.1633,1.796497 -4.07775,1.896304 0.24238,0.22812 3.8924,1.539846 5.6176,2.010351 0.67012,0.185357 0.67012,0.156843 0.21386,1.425796 l -0.22812,0.613084 -0.69864,-0.08554 c -1.52559,-0.199614 -5.60334,-1.839274 -6.72971,-2.709 l -0.44199,-0.327936 -1.14063,0.556064 c -3.59298,1.782231 -5.95978,2.523643 -10.13734,3.179505 -4.7051,0.727148 -10.72192,1.283211 -12.27603,1.140625 -1.0123,-0.09981 -1.02656,-0.08555 -1.22617,0.313678 -0.64161,1.254689 -1.61115,5.004504 -2.01037,7.756274 -0.25664,1.66817 -0.31367,5.04729 -0.0998,5.18987 0.0855,0.0428 0.21387,-0.0713 0.31367,-0.24239 0.0998,-0.17109 0.24239,-0.39922 0.32794,-0.49903 0.0855,-0.0998 0.28516,-0.35644 0.44199,-0.57031 1.01232,-1.38301 4.24886,-4.37716 6.07386,-5.60334 1.15489,-0.78418 4.84767,-2.737505 5.0758,-2.680477 0.0713,0 0.21387,-0.02853 0.32792,-0.07128 2.76603,-1.097854 6.80101,-2.024616 10.33696,-2.381057 1.76797,-0.185357 8.88265,-0.128321 9.38167,0.07128 0.19961,0.08555 0.24239,0.299421 0.24239,1.311725 v 1.211918 l -0.45626,-0.08554 c -0.98379,-0.199614 -6.9008,-0.270899 -8.66877,-0.09981 -2.89435,0.270899 -6.58713,0.955281 -8.48344,1.596871 -1.81074,0.61309 -5.14708,2.22423 -6.5301,3.15099 -1.7252,1.16915 -4.40567,3.63576 -6.17365,5.68889 -0.65586,0.76993 -1.41152,1.52559 -1.6967,1.69669 -0.45624,0.28516 -0.49902,0.35644 -0.49902,0.99805 0,1.11211 -0.8127,1.63965 -1.58263,1.01231 z"
       id="path8"
       style="fill:#00904c;fill-opacity:1;stroke-width:0.01425786" />
    <path
       inkscape:connector-curvature="0"
       d="m 100.12309,113.22482 c -0.156827,-0.11406 -0.698617,-0.82696 -1.197647,-1.56836 -0.48477,-0.75566 -0.95528,-1.36876 -1.02657,-1.36876 -0.0713,0 -0.0855,-0.0571 -0.0428,-0.14257 0.0428,-0.0713 0.0143,-0.14259 -0.0713,-0.14259 -0.08554,0 -0.185344,-0.11406 -0.242373,-0.24238 -0.128321,-0.34219 -1.05509,-1.48281 -2.181458,-2.6377 -0.49902,-0.5418 -0.969533,-1.05509 -1.026568,-1.16914 -0.142578,-0.25664 -2.038873,-1.7965 -2.209965,-1.7965 -0.07128,0 -0.256642,-0.12832 -0.39922,-0.28515 -0.142586,-0.15684 -0.342185,-0.28517 -0.441992,-0.28517 -0.09981,0 -0.199613,-0.0571 -0.228128,-0.11405 -0.07129,-0.18535 -1.226175,-0.92677 -2.66622,-1.72521 -2.167194,-1.1834 -5.560562,-2.209961 -9.424447,-2.83731 -2.466609,-0.413477 -4.476969,-0.570312 -8.996711,-0.741412 -2.13868,-0.08554 -3.906653,-0.156835 -3.920912,-0.185349 -0.01426,-0.0143 -0.04277,-0.313671 -0.07129,-0.67012 -0.04277,-0.727155 0.08555,-1.055082 0.384963,-0.941018 0.0998,0.04276 0.228125,0.0143 0.270899,-0.05706 0.07129,-0.128321 7.856081,-0.0998 9.26761,0.04276 3.136732,0.285163 4.705099,0.541798 7.200227,1.169146 2.038872,0.513277 5.30392,1.739459 6.843772,2.594933 1.012304,0.5418 2.6377,1.61113 3.079698,2.01035 0.156836,0.12833 0.641598,0.48477 1.097854,0.79844 0.955276,0.64161 3.478919,3.23654 4.719351,4.86193 l 0.86973,1.14064 0.0428,-1.49708 c 0.0428,-1.69669 -0.14258,-3.87814 -0.48477,-5.51779 -0.35645,-1.75372 -1.31172,-4.377166 -2.038877,-5.574826 l -0.655855,-1.097854 -0.641605,0.02853 c -0.356449,0.01423 -1.596881,0.07129 -2.780285,0.128313 -2.994148,0.128329 -4.633807,-0.128313 -9.837928,-1.582616 -2.751763,-0.769927 -4.591028,-1.368753 -6.71545,-2.22423 -1.354498,-0.541799 -2.523642,-0.983799 -2.60919,-0.983799 -0.08555,0 -0.556056,0.199615 -1.040822,0.427741 -0.484767,0.242379 -1.169145,0.470515 -1.525594,0.513287 -0.342187,0.04276 -1.297462,0.327928 -2.138678,0.655855 -1.810748,0.684377 -2.766024,0.96954 -3.407628,0.96954 h -0.47051 l 0.04277,-0.88399 0.04277,-0.883985 1.996099,-0.812704 c 1.097858,-0.441992 2.309776,-0.89824 2.694738,-1.012304 0.384961,-0.09981 0.727152,-0.270899 0.755666,-0.356449 0.05703,-0.171093 -2.552158,-1.539853 -3.735558,-1.967589 -0.384964,-0.142576 -0.755668,-0.299413 -0.826957,-0.356448 -0.171095,-0.156835 0.370704,-1.425781 0.613089,-1.425781 0.114061,0 0.670118,0.171093 1.211918,0.356448 0.556055,0.199615 1.069338,0.384957 1.14063,0.413477 0.08554,0.0143 0.342187,0.114064 0.570312,0.213872 0.242384,0.08554 0.627347,0.242379 0.855473,0.327928 0.242384,0.0998 1.140628,0.527541 1.996101,0.969533 0.86973,0.441991 1.981841,0.983798 2.495125,1.19766 2.252744,0.983797 11.776998,3.935169 12.675238,3.935169 0.29942,0 0.584577,0.04276 0.627348,0.09981 0.156835,0.156835 0.755669,0.199613 3.493175,0.242385 1.425789,0.02853 2.623442,0 2.666221,-0.05706 0.02853,-0.05706 -0.128321,-0.31367 -0.356442,-0.58457 -0.228128,-0.270906 -0.413477,-0.541805 -0.427741,-0.598834 0,-0.05706 -0.356449,-0.484763 -0.798441,-0.926763 -0.441991,-0.441991 -1.097854,-1.169146 -1.46856,-1.59688 -0.356442,-0.427736 -1.397267,-1.482818 -2.295514,-2.338286 -0.898241,-0.855477 -1.65391,-1.611138 -1.682424,-1.682431 -0.02853,-0.05706 -0.128321,-0.114064 -0.228128,-0.114064 -0.08554,0 -0.270899,-0.128321 -0.413477,-0.285155 -0.18535,-0.213864 -0.413478,-0.285157 -0.98379,-0.285157 -1.454303,0 -7.684992,-0.698635 -10.308439,-1.154891 -1.368754,-0.242376 -5.845725,-1.78223 -7.59944,-2.623441 -1.497077,-0.727154 -1.611141,-0.798439 -1.425787,-1.040826 0.356446,-0.513283 1.097855,-1.311725 1.226175,-1.311725 0.05703,0 0.427735,0.199611 0.79844,0.441996 1.853523,1.169142 8.640266,2.86583 13.958446,3.478913 0.527542,0.05706 0.812705,0.04276 0.812705,-0.05706 0,-0.213872 -4.69084,-4.020718 -6.145142,-4.975995 -0.898245,-0.59883 -1.596882,-1.240432 -2.680479,-2.452351 -1.568366,-1.767977 -2.8088,-3.464663 -2.680478,-3.664269 0.05703,-0.08555 0.356447,-0.327936 0.684376,-0.55606 l 0.598831,-0.413477 0.941018,1.069337 c 0.513284,0.584576 1.525591,1.668173 2.238487,2.423839 0.712892,0.741407 1.354495,1.454302 1.425785,1.582626 0.171095,0.285153 1.753714,1.411525 1.996099,1.411525 0.256642,0 0.39922,-1.368755 0.29942,-3.122469 -0.07128,-1.226178 -0.541805,-4.334396 -1.482821,-9.795155 -0.07129,-0.413477 -0.04277,-0.456254 0.399219,-0.541801 1.254695,-0.285154 1.22618,-0.285154 1.468565,0.527542 0.399213,1.425791 0.49902,1.896297 0.998047,4.662324 0.883991,4.947478 0.98379,6.416038 0.584577,8.511941 -0.114064,0.613089 -0.213871,1.21192 -0.213871,1.325984 0,0.11406 0.969533,0.955279 2.13868,1.853522 4.40568,3.364855 4.947478,3.806854 5.917011,4.719351 0.556055,0.527541 1.211918,1.126376 1.46856,1.340237 0.270899,0.228129 0.826954,0.826963 1.240432,1.340248 0.427734,0.513277 1.254689,1.454296 1.839266,2.081643 0.598834,0.613083 1.083597,1.169147 1.083597,1.226176 0,0.04276 0.171092,0.285163 0.39922,0.513286 2.694732,2.951377 4.533989,6.67268 5.246889,10.593587 0.24238,1.3545 0.35644,5.44651 0.21387,8.19827 -0.0285,0.62735 -0.0142,1.44005 0.0571,1.79649 0.0855,0.57032 0.0571,0.7129 -0.19962,0.96954 -0.34219,0.34219 -0.82695,0.38496 -1.24043,0.0998 z"
       id="path10"
       style="fill:#00904c;fill-opacity:1;stroke-width:0.01425786" />
    <path
       inkscape:connector-curvature="0"
       d="m 107.76531,93.320847 c -0.25665,-0.256642 -0.29942,-0.456249 -0.2709,-1.397267 0.0143,-0.598836 0.0713,-1.154891 0.0998,-1.226183 0.0428,-0.08555 0.0998,-0.270901 0.11407,-0.427735 0.22813,-2.138678 0.99804,-4.733614 2.3668,-8.069955 0.47052,-1.140625 0.86974,-2.124414 0.884,-2.209964 0.0285,-0.07129 0.11406,-0.299414 0.19961,-0.499024 0.0855,-0.199614 0.38495,-0.898245 0.67012,-1.568369 0.28515,-0.670118 0.59883,-1.340237 0.69863,-1.497072 0.0998,-0.156837 0.41348,-0.8127 0.69864,-1.440044 0.49902,-1.097853 0.51328,-1.183403 0.31367,-1.568365 -0.11407,-0.228127 -0.21387,-0.541802 -0.21387,-0.698639 0,-0.156835 -0.22813,-1.525589 -0.49902,-3.03692 -1.02657,-5.745921 -1.92481,-13.95845 -1.56837,-14.314897 0.0428,-0.04279 0.42773,0.02851 0.85547,0.142577 0.55606,0.156841 0.78418,0.299417 0.84122,0.513282 0.0428,0.171095 0.2709,1.782238 0.51328,3.578728 0.5418,4.120519 0.92676,6.71545 1.28321,8.626006 0.15684,0.826955 0.29941,1.668168 0.31367,1.896298 0.0428,0.513283 0.15684,0.484764 0.57031,-0.142582 0.64161,-0.969532 3.49318,-5.80295 3.8924,-6.601392 0.42774,-0.855472 1.24043,-3.136728 1.11212,-3.136728 -0.0428,0 0,-0.09981 0.0998,-0.213865 0.0855,-0.114065 0.12831,-0.270901 0.0855,-0.342189 -0.0571,-0.07129 -0.0285,-0.171094 0.0428,-0.228129 0.0855,-0.04279 0.11406,-0.171095 0.0713,-0.270901 -0.14258,-0.356442 0.24237,-0.399218 0.89824,-0.08555 l 0.65587,0.299418 -0.0998,0.855472 c -0.12832,1.268949 -0.8127,3.578723 -1.39727,4.747866 -0.15684,0.313676 -0.62735,1.069344 -1.02657,1.653914 -0.85547,1.211919 -1.79649,2.808797 -1.79649,2.994151 0,0.07129 -0.22813,0.484764 -0.49903,0.912502 -0.58457,0.912506 -2.78028,5.318182 -2.78028,5.574825 0,0.08555 -0.39922,1.026566 -0.89825,2.081649 -0.49902,1.055084 -1.01231,2.152938 -1.15489,2.438093 -0.34218,0.769928 -0.94101,2.381066 -0.94101,2.552157 0,0.08555 0.78418,-0.584576 1.75371,-1.46856 0.95528,-0.883981 1.93907,-1.782229 2.1672,-1.996099 0.24238,-0.199611 0.62735,-0.613089 0.85547,-0.898242 0.24239,-0.299419 0.57031,-0.698637 0.75567,-0.89825 0.17109,-0.199611 0.31367,-0.399217 0.31367,-0.441994 0,-0.04279 0.35644,-0.470506 0.76993,-0.92676 l 0.76992,-0.841213 0.67012,0.384958 c 0.35645,0.213872 0.6416,0.456255 0.61309,0.541802 -0.0285,0.07129 -0.57032,0.855471 -1.18341,1.725203 -0.79843,1.097856 -1.98183,2.423841 -3.93516,4.362907 -1.66818,1.668166 -3.20802,3.350598 -3.80686,4.177552 -0.55605,0.755662 -1.11211,1.425782 -1.24043,1.497081 -0.15684,0.0998 -0.34219,0.698626 -0.57032,1.981837 -0.19961,1.012312 -0.35645,1.981845 -0.35645,2.167195 0,0.441999 -0.61308,1.026568 -1.06933,1.026568 -0.19961,0 -0.48478,-0.128321 -0.6416,-0.285156 z"
       id="path12"
       style="fill:#00904c;fill-opacity:1;stroke-width:0.01425786" />
    <path
       inkscape:connector-curvature="0"
       d="m 101.20669,91.852287 c -0.25664,-0.128321 -0.47051,-0.484772 -0.78418,-1.397276 -0.456247,-1.240432 -1.183387,-2.666219 -1.611137,-3.136726 -0.12832,-0.142579 -0.52753,-0.613091 -0.88398,-1.069339 -0.356443,-0.441999 -1.34024,-1.525589 -2.209966,-2.409579 -4.377165,-4.491227 -6.629909,-6.915064 -6.629909,-7.114677 0,-0.08555 0.256642,-0.285154 0.556056,-0.456249 0.741412,-0.399223 0.769926,-0.384965 2.994148,1.725203 1.440046,1.368756 2.281257,2.195713 4.405687,4.419934 0.741404,0.75567 1.368764,1.354496 1.397264,1.311725 0.14258,-0.142578 -1.411528,-3.450405 -2.452347,-5.232634 -0.256642,-0.427736 -0.812704,-1.397273 -1.226182,-2.13868 -0.413477,-0.741411 -0.81269,-1.454303 -0.89824,-1.596884 -0.07129,-0.128319 -0.613091,-1.055078 -1.197661,-2.067386 -0.584569,-0.998053 -1.126368,-1.867785 -1.211917,-1.924814 -0.08555,-0.05703 -0.114064,-0.114064 -0.05706,-0.114064 0.05706,0 0,-0.128318 -0.128321,-0.285155 -0.128321,-0.142582 -0.256642,-0.356446 -0.270907,-0.456253 -0.0143,-0.09981 -0.413477,-0.98379 -0.883983,-1.967586 -0.855468,-1.767973 -2.081643,-4.975995 -2.238479,-5.831466 -0.04276,-0.242382 -0.171099,-0.712889 -0.270906,-1.055078 -0.114064,-0.327935 -0.242378,-0.812701 -0.299413,-1.055084 -0.08554,-0.427736 -0.05706,-0.484765 0.313677,-0.627347 0.213864,-0.08555 0.570313,-0.185354 0.784176,-0.228125 0.342192,-0.07128 0.399221,-0.02851 0.541799,0.527542 0.185357,0.698636 2.152936,5.888496 2.580671,6.843775 0.427741,0.9125 1.254696,2.580674 1.454303,2.922862 0.256642,0.427735 0.983797,1.554103 1.040825,1.625397 0.128321,0.142577 0.441999,-0.313678 0.384963,-0.55606 -0.04276,-0.156835 0,-0.285159 0.08555,-0.285159 0.07129,0 0.114064,-0.0998 0.07129,-0.213864 -0.04276,-0.114066 -0.02853,-0.285161 0.02853,-0.384965 0.05706,-0.0998 0.128321,-0.327931 0.142578,-0.513285 0.02853,-0.185347 0.142579,-0.798436 0.2709,-1.354496 0.541798,-2.39532 0.79844,-4.163293 0.926761,-6.444549 0.07129,-1.325984 0.156835,-2.908605 0.199607,-3.493182 0.02853,-0.584571 0.128321,-1.539849 0.228128,-2.095903 l 0.171092,-1.040824 h 1.126368 1.112118 l -0.15684,0.427736 c -0.0998,0.327929 -0.0998,0.484764 0.0285,0.641606 0.12832,0.156836 0.15683,0.513283 0.0855,1.25469 -0.0571,0.556054 -0.0998,1.311725 -0.0855,1.668167 0.0285,1.15489 -0.41348,4.448453 -0.912506,6.843773 -1.112111,5.346703 -1.611138,7.200222 -2.067387,7.613699 -0.256642,0.242389 -0.256642,0.798443 0,0.798443 0.07129,0 0.128321,0.08555 0.128321,0.185355 0,0.08555 0.285157,0.627347 0.641606,1.169142 1.397266,2.238484 1.810746,2.965639 3.122466,5.589086 1.325977,2.651963 2.152937,4.733608 2.266997,5.745918 0.0285,0.270901 0.0998,0.598827 0.15683,0.727149 0.0571,0.114063 0.11407,0.570319 0.12833,0.998053 0.0143,0.427734 0.0713,0.841211 0.12832,0.912496 0.0428,0.08555 0.15683,0.513285 0.24238,0.955286 0.18535,0.89824 0.0998,1.226166 -0.442,1.596873 -0.38495,0.270907 -0.3707,0.270907 -0.82695,0.04276 z"
       id="path14"
       style="fill:#00904c;fill-opacity:1;stroke-width:0.01425786" />
    <path
       inkscape:connector-curvature="0"
       d="m 104.486,86.234688 c -0.65586,-0.270907 -0.6416,-0.12832 -0.62735,-7.08616 0.0285,-6.273461 0.15684,-23.083479 0.18536,-23.411409 0.0143,-0.142583 1.48282,-0.05704 1.63966,0.09981 0.0428,0.04279 0.15683,1.525591 0.24238,3.322081 0.14258,2.523639 0.14258,4.64806 0.0143,9.552767 -0.0998,3.450405 -0.1711,8.68304 -0.1711,11.605896 v 5.318184 l -0.35644,0.342193 c -0.3422,0.356442 -0.52755,0.399221 -0.92676,0.256642 z"
       id="path16"
       style="fill:#00904c;fill-opacity:1;stroke-width:0.01425786" />
    <g
       aria-label="RADIS 2.0"
       transform="matrix(0.17103239,0,0,0.17103239,-124.93082,144.90098)"
       style="font-style:normal;font-weight:normal;font-size:40px;line-height:1.25;font-family:sans-serif;letter-spacing:0px;word-spacing:0px;fill:#000000;fill-opacity:1;stroke:none;stroke-opacity:0.2557078"
       id="flowRoot1503">
      <path
         inkscape:connector-curvature="0"
         d="m 935.25743,365.19076 q 8.16666,13.76667 16.33333,24.5 8.4,10.5 21.93333,25.9 1.63334,1.63334 1.63334,3.73334 0,3.26666 -3.73334,5.6 -3.5,2.33333 -8.63333,2.33333 -7.23333,0 -15.63333,-6.06667 -7.46667,-5.36666 -13.3,-14.23333 -5.83334,-8.86667 -13.53334,-23.1 -6.06667,-10.96667 -7.23333,-12.83333 -9.1,3.73333 -28.46667,4.66666 0,7.93334 1.4,21.46667 1.4,14 1.4,20.3 0,4.2 -4.2,7 -3.96667,2.8 -9.1,2.8 -6.06667,0 -9.33333,-4.9 -3.26667,-6.53333 -4.2,-15.63333 -0.93334,-9.1 -0.93334,-21.7 0,-13.3 1.63334,-30.10001 1.4,-18.66666 1.4,-27.53333 0,-7.23333 -1.4,-19.36667 -0.23334,-2.1 -0.7,-7.23333 -0.46667,-5.13333 -0.46667,-9.33334 0,-3.26666 2.33333,-5.6 2.56667,-2.56666 5.36667,-3.5 18.9,-3.03333 36.86667,-3.03333 30.56667,0 50.63333,11.43333 20.06667,11.43334 20.06667,34.76667 0,7.23334 -3.26667,14 -3.03333,6.53334 -8.4,10.96667 -14.23333,10.96667 -28.46666,14.7 z m 15.63333,-40.36667 q 0,-11.2 -11.9,-18.2 -11.9,-7.23333 -33.83334,-7.23333 -9.8,0 -19.36666,2.33333 l 0.23333,11.9 q 0,10.26667 -0.7,20.06667 -0.7,9.8 -0.7,21 3.96667,-0.93333 8.4,-1.16667 4.43333,-0.46666 5.83333,-0.7 10.26667,-0.93333 15.86667,-2.33333 10.5,-3.26667 17.26667,-5.83333 7,-2.8 12.83333,-7.7 6.06667,-5.13334 6.06667,-12.13334 z"
         style="font-style:normal;font-variant:normal;font-weight:normal;font-stretch:normal;font-size:233.33334351px;font-family:Itim;-inkscape-font-specification:'Itim, Normal';font-variant-ligatures:normal;font-variant-caps:normal;font-variant-numeric:normal;font-feature-settings:normal;text-align:start;writing-mode:lr-tb;text-anchor:start;fill:#00904c;fill-opacity:1;stroke:none;stroke-opacity:0.2557078"
         id="path1670" />
      <path
         inkscape:connector-curvature="0"
         d="m 1106.9903,423.5241 q -3.0333,-3.96667 -5.1333,-8.63334 -2.1,-4.9 -4.4333,-11.66666 -0.4667,-1.16667 -2.8,-7 -2.1,-5.83334 -4.9,-10.03334 -14.7,2.1 -24.0334,2.1 -5.1333,0 -11.4333,-0.23333 -6.0667,-0.46667 -9.1,-0.46667 -11.6667,-0.93333 -18.6667,-0.93333 -2.8,3.73333 -4.9,7.93333 -1.8666,4.2 -4.9,12.6 -4.2,12.13334 -7.2333,17.26667 -2.1,3.5 -8.1667,3.5 -5.13329,0 -9.56662,-2.1 -4.2,-2.33333 -4.2,-6.3 1.86666,-8.86667 5.83333,-18.66667 4.2,-10.03333 11.89999,-26.6 l 9.3333,-22.86667 q 7.7,-19.6 14,-33.6 6.5334,-14 17.0334,-33.13333 1.4,-2.8 4.6666,-4.66667 3.2667,-2.1 7.2334,-2.1 4.4333,0 6.3,0.7 2.1,0.46667 3.2666,1.86667 1.1667,1.16666 3.5,5.13333 7.9334,12.36667 13.5334,25.43334 5.8333,13.06666 14.7,36.16666 l 4.9,12.36667 q 6.5333,16.8 11.2,28.23334 4.9,11.2 10.7333,20.53333 3.7334,6.06667 3.7334,8.4 0,5.6 -3.5,8.63333 -3.2667,2.8 -8.6334,2.8 -6.7667,0 -10.2667,-4.66666 z m -24.0333,-56.46667 q -3.7333,-7.93334 -10.7333,-27.53334 -7.2334,-21 -14.4667,-33.36666 -4.4333,11.2 -13.0667,28.93333 -5.8333,10.96667 -13.3,31.73333 14.9334,1.86667 32.2,1.86667 12.3667,0 19.3667,-1.63333 z"
         style="font-style:normal;font-variant:normal;font-weight:normal;font-stretch:normal;font-size:233.33334351px;font-family:Itim;-inkscape-font-specification:'Itim, Normal';font-variant-ligatures:normal;font-variant-caps:normal;font-variant-numeric:normal;font-feature-settings:normal;text-align:start;writing-mode:lr-tb;text-anchor:start;fill:#00904c;fill-opacity:1;stroke:none;stroke-opacity:0.2557078"
         id="path1672" />
      <path
         inkscape:connector-curvature="0"
         d="m 1152.0235,416.05743 q 0,-7.7 0.9334,-17.03333 0.9333,-10.73334 0.9333,-27.06667 0,-29.86667 -2.5667,-57.63334 -1.4,-17.26666 -1.4,-24.5 0,-4.9 4.9,-8.16667 4.9,-3.5 10.0334,-3.5 3.2666,0 7.9333,0.46667 4.6667,0.46667 6.7667,0.46667 52.5,0 77.2333,28.23333 15.6333,18.2 15.6333,48.3 0,12.6 -4.6666,25.43334 -4.4334,12.6 -12.8334,20.53333 -9.1,8.86667 -17.2666,14.23334 -7.9334,5.13333 -21.7,8.63333 -13.5334,3.5 -34.7667,3.5 -13.5333,0 -21.4667,-3.03333 -7.7,-3.03334 -7.7,-8.86667 z m 38.0334,-9.33333 q 15.6333,0 28.7,-5.6 13.0666,-5.83334 21,-17.26667 7.9333,-11.66667 7.9333,-28.46667 0,-16.56667 -4.6667,-27.53333 -4.6666,-11.2 -16.1,-18.2 -8.6333,-5.36667 -21.2333,-7.7 -12.6,-2.56667 -30.3333,-2.56667 0,2.33333 0.4666,10.73333 0.4667,7.93334 0.4667,13.3 l 0.2333,5.13334 q 1.4,24.26666 1.4,38.5 0,22.4 -2.5666,38.73333 5.6,0.93334 14.7,0.93334 z"
         style="font-style:normal;font-variant:normal;font-weight:normal;font-stretch:normal;font-size:233.33334351px;font-family:Itim;-inkscape-font-specification:'Itim, Normal';font-variant-ligatures:normal;font-variant-caps:normal;font-variant-numeric:normal;font-feature-settings:normal;text-align:start;writing-mode:lr-tb;text-anchor:start;fill:#00904c;fill-opacity:1;stroke:none;stroke-opacity:0.2557078"
         id="path1674" />
      <path
         inkscape:connector-curvature="0"
         d="m 1311.1568,427.7241 q -7,0 -9.8,-4.2 -2.5667,-4.2 -2.5667,-11.9 l 0.2333,-30.33334 -0.2333,-4.66666 q -1.1667,-22.16667 -1.1667,-36.63334 l 0.9334,-27.76667 0.2333,-14 q 0,-7 0.4667,-10.73333 0.4666,-3.73334 3.0333,-6.06667 2.5667,-2.33333 8.1667,-2.33333 7,0 10.0333,3.5 3.0333,3.26666 3.0333,11.43333 l -0.2333,4.9 q -0.9333,18.66667 -0.9333,28.23334 0,10.5 0.4666,24.73333 0.4667,14 0.7,19.83334 1.1667,24.96666 1.1667,42.93333 0,7 -3.0333,10.03333 -2.8,3.03334 -10.5,3.03334 z"
         style="font-style:normal;font-variant:normal;font-weight:normal;font-stretch:normal;font-size:233.33334351px;font-family:Itim;-inkscape-font-specification:'Itim, Normal';font-variant-ligatures:normal;font-variant-caps:normal;font-variant-numeric:normal;font-feature-settings:normal;text-align:start;writing-mode:lr-tb;text-anchor:start;fill:#00904c;fill-opacity:1;stroke:none;stroke-opacity:0.2557078"
         id="path1676" />
      <path
         inkscape:connector-curvature="0"
         d="m 1463.0564,384.79076 q 0,10.96667 -5.1334,18.9 -4.9,7.7 -16.3333,14.23334 -7.7,4.66666 -17.9667,7 -10.2666,2.33333 -20.7666,2.33333 -10.7334,0 -26.6,-7 -11.4334,-5.6 -18.2,-13.3 -6.5334,-7.7 -6.5334,-16.8 0,-6.3 2.8,-9.1 2.8,-3.03333 9.1,-3.03333 3.2667,0 6.7667,2.8 3.5,2.56666 4.2,5.13333 3.2667,9.56667 11.4333,14.7 8.1667,4.9 20.3,4.9 14,0 23.3334,-5.13333 9.5666,-5.13334 9.5666,-13.76667 0,-8.4 -10.2666,-14.93333 -10.2667,-6.53334 -21,-9.10001 -15.4,-4.2 -27.3,-10.03333 -12.3667,-6.06667 -18.4334,-14.93333 -6.0666,-8.86667 -6.0666,-18.66667 0,-9.1 6.3,-18.43333 6.3,-9.56667 14.9333,-13.76667 4.6667,-2.33334 15.8667,-4.9 11.4333,-2.8 16.5666,-2.8 6.5334,0 13.7667,1.63333 7.2333,1.63333 12.3667,4.66667 10.2666,5.83333 15.1666,10.5 4.9,4.66667 4.9,11.66667 0,4.2 -3.2666,7.46666 -3.0334,3.26667 -10.7334,3.26667 -1.8666,0 -3.7333,-1.63333 -1.8667,-1.63334 -4.6667,-4.9 -3.7333,-4.9 -7.2333,-6.53334 -3.7333,-1.4 -9.3333,-2.56666 -5.6,-1.4 -10.5,-1.4 -5.6,0 -11.6667,2.33333 -6.0667,2.33333 -10.2667,6.76667 -3.9666,4.2 -3.9666,9.8 0,4.66666 4.2,8.16666 4.4333,3.26667 10.5,5.36667 7,2.8 15.1666,4.9 10.7334,3.26667 17.5,6.06667 7,2.56666 13.5334,6.53333 11.4333,6.76667 16.5666,14 5.1334,7 5.1334,19.6 z"
         style="font-style:normal;font-variant:normal;font-weight:normal;font-stretch:normal;font-size:233.33334351px;font-family:Itim;-inkscape-font-specification:'Itim, Normal';font-variant-ligatures:normal;font-variant-caps:normal;font-variant-numeric:normal;font-feature-settings:normal;text-align:start;writing-mode:lr-tb;text-anchor:start;fill:#00904c;fill-opacity:1;stroke:none;stroke-opacity:0.2557078"
         id="path1678" />
      <path
         inkscape:connector-curvature="0"
         d="m 1569.689,402.75743 q 7.9333,0.46667 10.5,0.46667 7.9333,0 14,-0.23334 6.3,-0.23333 10.7333,-0.46666 11.4334,-0.7 20.5334,-0.7 8.8666,0 13.0666,4.66666 4.2,4.66667 4.2,12.36667 0,3.73333 -4.9,6.06667 -4.9,2.1 -10.0333,2.1 -4.4333,0 -18.4333,-0.93334 -16.8,-1.4 -26.3667,-1.4 -5.1333,0 -12.1334,0.7 -2.8,0.23334 -6.7666,0.46667 -3.9667,0.23333 -8.8667,0.23333 -9.3333,0 -14.2333,-2.56666 -4.9,-2.56667 -4.9,-9.33334 0,-5.83333 4.6666,-11.9 4.6667,-6.06666 13.0667,-14.46666 l 5.6,-5.6 q 3.7333,-3.96667 13.7667,-13.53334 16.5667,-14.93333 25.6667,-26.36667 9.3333,-11.43333 9.3333,-22.63333 0,-7.23333 -7,-11.66667 -6.7667,-4.66666 -15.6333,-4.66666 -13.5334,0 -19.6001,6.06666 -5.8333,5.83334 -5.8333,17.03334 0,2.8 -3.2667,5.13333 -3.0333,2.1 -7.7,2.1 -6.5333,0 -9.1,-4.66667 -2.5666,-4.66666 -2.5666,-11.43333 0,-10.73333 6.5333,-18.9 6.5333,-8.4 17.7333,-13.06667 11.4334,-4.66667 25.2001,-4.66667 9.8,0 20.3,4.9 10.7333,4.66667 17.7333,12.83334 7.2333,7.93333 7.2333,17.5 0,14.46667 -7.2333,27.53333 -7.2333,13.06667 -17.0333,23.33334 -9.5667,10.03333 -24.9667,23.8 -7.4667,6.3 -13.3,11.9 z"
         style="font-style:normal;font-variant:normal;font-weight:normal;font-stretch:normal;font-size:233.33334351px;font-family:Itim;-inkscape-font-specification:'Itim, Normal';font-variant-ligatures:normal;font-variant-caps:normal;font-variant-numeric:normal;font-feature-settings:normal;text-align:start;writing-mode:lr-tb;text-anchor:start;fill:#00904c;fill-opacity:1;stroke:none;stroke-opacity:0.2557078"
         id="path1680" />
      <path
         inkscape:connector-curvature="0"
         d="m 1692.6554,414.19076 q 0,5.83334 -4.6667,10.96667 -4.6666,4.9 -10.2666,4.9 -6.5334,0 -11.9,-3.5 -5.3667,-3.73333 -5.3667,-9.33333 0,-8.86667 3.2667,-13.06667 3.5,-4.2 10.2666,-4.2 7.9334,0 13.3,3.96667 5.3667,3.73333 5.3667,10.26666 z"
         style="font-style:normal;font-variant:normal;font-weight:normal;font-stretch:normal;font-size:233.33334351px;font-family:Itim;-inkscape-font-specification:'Itim, Normal';font-variant-ligatures:normal;font-variant-caps:normal;font-variant-numeric:normal;font-feature-settings:normal;text-align:start;writing-mode:lr-tb;text-anchor:start;fill:#00904c;fill-opacity:1;stroke:none;stroke-opacity:0.2557078"
         id="path1682" />
      <path
         inkscape:connector-curvature="0"
         d="m 1819.3551,295.42409 q 7.7,11.9 12.3666,27.3 4.6667,15.16667 4.6667,31.03334 0,18.9 -6.5333,35.93333 -6.3,17.03334 -19.1334,27.76667 -12.6,10.73333 -30.8,10.73333 -17.0333,0 -31.2666,-8.63333 -14.2334,-8.86667 -21.4667,-20.53333 -5.3667,-8.63334 -8.1667,-19.36667 -2.8,-10.96667 -2.8,-21.93334 0,-19.13333 7.9334,-37.33333 8.1666,-18.2 22.4,-29.16667 13.5333,-10.03333 31.0333,-10.03333 19.3667,0 41.7667,14.23333 z m -62.5334,16.1 q -2.1,3.5 -4.2,6.3 -5.1333,7.7 -7.4666,13.06667 -2.3334,5.13333 -4.2,15.86667 -0.9334,4.9 -0.9334,11.43333 0,16.56667 6.5334,28.7 6.7666,11.9 18.4333,16.1 5.6,2.1 12.6,2.1 17.5,0 26.3667,-15.4 9.1,-15.63333 9.1,-38.5 0,-21.23333 -7.9334,-34.76667 -7.9333,-13.76666 -24.5,-13.76666 -6.7666,0 -11.6666,2.1 -4.6667,2.1 -12.1334,6.76666 z"
         style="font-style:normal;font-variant:normal;font-weight:normal;font-stretch:normal;font-size:233.33334351px;font-family:Itim;-inkscape-font-specification:'Itim, Normal';font-variant-ligatures:normal;font-variant-caps:normal;font-variant-numeric:normal;font-feature-settings:normal;text-align:start;writing-mode:lr-tb;text-anchor:start;fill:#00904c;fill-opacity:1;stroke:none;stroke-opacity:0.2557078"
         id="path1684" />
    </g>
    <g
       aria-label="Regularização Ambiental"
       transform="matrix(0.17949692,0,0,0.17949692,-133.41175,114.65793)"
       style="font-style:normal;font-weight:normal;font-size:40px;line-height:1.25;font-family:sans-serif;letter-spacing:0px;word-spacing:0px;fill:#000000;fill-opacity:1;stroke:none"
       id="flowRoot1541">
      <path
         inkscape:connector-curvature="0"
         d="m 891.46258,675.72409 q 3.03333,5.11333 6.06666,9.1 3.12,3.9 8.14667,9.62 0.60667,0.60666 0.60667,1.38666 0,1.21334 -1.38667,2.08 -1.3,0.86667 -3.20667,0.86667 -2.68666,0 -5.80666,-2.25333 -2.77334,-1.99334 -4.94,-5.28667 -2.16667,-3.29333 -5.02667,-8.58 -2.25333,-4.07333 -2.68667,-4.76667 -3.38,1.38667 -10.57333,1.73334 0,2.94666 0.52,7.97333 0.52,5.2 0.52,7.54 0,1.56 -1.56,2.6 -1.47333,1.04 -3.38,1.04 -2.25333,0 -3.46667,-1.82 -1.21333,-2.42667 -1.56,-5.80667 -0.34666,-3.38 -0.34666,-8.06 0,-4.94 0.60666,-11.18 0.52,-6.93333 0.52,-10.22666 0,-2.68667 -0.52,-7.19334 -0.0867,-0.78 -0.26,-2.68666 -0.17333,-1.90667 -0.17333,-3.46667 0,-1.21333 0.86667,-2.08 0.95333,-0.95333 1.99333,-1.3 7.02,-1.12667 13.69333,-1.12667 11.35334,0 18.80667,4.24667 7.45333,4.24667 7.45333,12.91333 0,2.68667 -1.21333,5.2 -1.12667,2.42667 -3.12,4.07334 -5.28667,4.07333 -10.57333,5.46 z m 5.80666,-14.99334 q 0,-4.16 -4.42,-6.76 -4.42,-2.68666 -12.56666,-2.68666 -3.64,0 -7.19334,0.86666 l 0.0867,4.42 q 0,3.81334 -0.26,7.45334 -0.26,3.64 -0.26,7.8 1.47333,-0.34667 3.12,-0.43334 1.64667,-0.17333 2.16667,-0.26 3.81333,-0.34666 5.89333,-0.86666 3.9,-1.21334 6.41333,-2.16667 2.6,-1.04 4.76667,-2.86 2.25333,-1.90667 2.25333,-4.50667 z"
         style="font-style:normal;font-variant:normal;font-weight:normal;font-stretch:normal;font-size:86.66666412px;font-family:Itim;-inkscape-font-specification:'Itim, Normal';font-variant-ligatures:normal;font-variant-caps:normal;font-variant-numeric:normal;font-feature-settings:normal;text-align:start;writing-mode:lr-tb;text-anchor:start"
         id="path1625" />
      <path
         inkscape:connector-curvature="0"
         d="m 912.86904,680.31742 q 0,-3.29333 1.21333,-6.58667 1.21334,-3.38 3.20667,-6.15333 1.99333,-2.77333 6.32667,-4.50667 4.33333,-1.82 7.71333,-1.82 3.46667,0 7.02,0.95334 3.64,0.95333 5.02667,2.94666 3.20666,4.50667 3.20666,8.84 0,2.34 -1.04,3.98667 -0.95333,1.64667 -2.77333,3.55333 -1.47333,1.56 -4.68,2.08 -3.12,0.52 -6.24,0.52 -1.99333,0 -4.85333,-0.34666 -2.86,-0.43334 -5.54667,-1.04 0.17333,1.73333 0.86667,3.38 0.69333,1.64666 1.64666,2.51333 1.73334,1.64667 3.55334,2.08 1.90666,0.43333 4.85333,0.43333 3.12,0 5.80667,-1.04 2.16666,-0.78 3.55333,-0.78 1.64667,0 2.51333,1.04 0.86667,0.95334 0.86667,2.51334 0,2.16666 -2.51333,3.55333 -2.51334,1.38667 -5.80667,2.08 -3.20667,0.60667 -5.2,0.60667 -4.07333,0 -7.88667,-1.47334 -3.81333,-1.47333 -6.32666,-4.16 -2.08,-2.42666 -3.29334,-5.80666 -1.21333,-3.46667 -1.21333,-7.36667 z m 18.89333,-11.7 q -1.90666,0 -3.81333,0.78 -1.90667,0.69333 -3.12,1.99333 -1.56,1.64667 -2.16667,2.68667 -0.52,0.95333 -0.69333,2.68667 2.16667,0.69333 9.01333,0.69333 3.72667,0 5.72,-1.12667 2.08,-1.12666 2.08,-2.94666 0,-1.82 -2.25333,-3.29334 -2.25333,-1.47333 -4.76667,-1.47333 z"
         style="font-style:normal;font-variant:normal;font-weight:normal;font-stretch:normal;font-size:86.66666412px;font-family:Itim;-inkscape-font-specification:'Itim, Normal';font-variant-ligatures:normal;font-variant-caps:normal;font-variant-numeric:normal;font-feature-settings:normal;text-align:start;writing-mode:lr-tb;text-anchor:start"
         id="path1627" />
      <path
         inkscape:connector-curvature="0"
         d="m 986.18897,698.51742 q 2.34,1.64667 3.12,3.64 0.86667,1.99333 0.86667,5.54667 0,1.73333 -1.04,3.46666 -0.95333,1.73334 -1.99333,2.51334 -8.23334,4.50666 -16.46667,4.50666 -4.07333,0 -7.02,-1.04 -2.94667,-1.04 -5.54667,-2.77333 -1.73333,-1.3 -2.85999,-3.64 -1.04,-2.25333 -1.04,-4.50667 0,-3.12 1.90666,-5.46 1.99333,-2.34 5.28667,-3.38 -0.60667,-1.3 -0.60667,-3.03333 0,-1.64667 2.42667,-4.94 -4.16,-1.38667 -6.58667,-4.94 -2.34,-3.55333 -2.34,-8.32 0,-2.94667 1.38667,-5.2 1.38667,-2.34 4.16,-5.37333 1.90666,-2.08 4.85333,-3.03334 2.94667,-0.95333 7.36667,-0.95333 3.12,0 7.71333,1.38667 5.46,-3.81334 9.62,-3.81334 1.04,0 2.34,0.52 1.38667,0.52 2.08,1.04 0.52,0.95334 0.52,3.20667 0,0.86667 -0.78,1.73333 -0.69333,0.78 -1.82,0.78 l -2.08,-0.0867 q -1.56,-0.17334 -2.42667,-0.17334 -0.95333,0 -2.86,0.17334 1.82,2.16666 2.77334,4.59333 1.04,2.42667 1.04,6.32667 0,2.94666 -2.16667,6.15333 -2.16667,3.20667 -5.11333,5.02667 -4.50667,2.42666 -10.48667,2.51333 -0.69333,0.69333 -1.21333,1.3 -0.43334,0.52 -0.43334,0.86667 0,0.95333 1.64667,1.47333 1.64667,0.52 5.02667,0.78 2.6,0.17333 5.72,1.12667 3.20666,0.86666 5.02666,1.99333 z m -15.25333,-14.64667 q 3.98667,0 6.41333,-2.16666 2.42667,-2.16667 2.42667,-6.15334 0,-3.03333 -2.16667,-4.94 -2.16666,-1.90666 -5.54666,-1.90666 -2.16667,0 -4.68,0.78 -2.42667,0.69333 -3.46667,2.25333 -0.52,0.69333 -1.04,2.68667 -0.52,1.90666 -0.52,2.94666 0,1.47334 1.21333,3.03334 1.3,1.47333 3.29334,2.51333 2.08,0.95333 4.07333,0.95333 z m 5.46,18.80667 q -4.76667,-0.43333 -6.76,-0.86667 -1.90667,-0.34666 -3.12,-0.86666 -4.42,2.34 -4.42,5.11333 0,2.6 2.68667,3.9 2.68666,1.38667 6.15333,1.38667 1.56,0 4.24667,-0.34667 2.68666,-0.34667 4.50666,-1.21333 1.21334,-0.60667 1.82,-1.21334 0.60667,-0.52 0.60667,-1.99333 0,-1.82 -1.90667,-2.77333 -1.90666,-0.95334 -3.81333,-1.12667 z"
         style="font-style:normal;font-variant:normal;font-weight:normal;font-stretch:normal;font-size:86.66666412px;font-family:Itim;-inkscape-font-specification:'Itim, Normal';font-variant-ligatures:normal;font-variant-caps:normal;font-variant-numeric:normal;font-feature-settings:normal;text-align:start;writing-mode:lr-tb;text-anchor:start"
         id="path1629" />
      <path
         inkscape:connector-curvature="0"
         d="m 1003.0889,661.07742 q 5.72,0 5.72,7.54 0,0.95333 -0.1734,4.24667 -0.1733,3.81333 -0.1733,5.98 0,6.06666 1.6467,9.79333 0.6066,1.21333 2.1666,1.90667 1.6467,0.69333 2.7734,0.69333 1.7333,0 2.86,-0.43333 1.1266,-0.43334 2.08,-1.3 1.04,-0.86667 1.9933,-1.90667 1.6467,-1.82 2.08,-4.16 0.52,-2.42667 0.6067,-6.41333 0,-2.51334 0.26,-4.85334 0.52,-3.81333 0.52,-7.10666 0,-1.82 0.9533,-3.03334 1.04,-1.3 2.9467,-1.3 0.9533,0 2.2533,0.69334 1.3867,0.60666 1.82,1.38666 0.6067,1.04 0.6067,2.86 0,1.12667 -0.26,2.08 -0.4334,1.3 -0.4334,3.29334 0,1.04 0.1734,3.46666 0.26,1.82 0.26,3.72667 0,5.80667 0.8666,8.58 0.9534,2.94667 2.6,5.2 1.7334,1.82 2.34,2.68667 0.6067,0.78 0.6067,1.38666 0,1.04 -1.04,1.99334 -1.04,0.95333 -2.1667,0.95333 -3.2066,0 -5.6333,-2.16667 -2.34,-2.25333 -3.4667,-5.72 -0.9533,1.12667 -2.5133,2.77334 -1.56,1.64666 -2.9467,2.68666 -3.38,2.42667 -8.6666,2.42667 -2.1667,0 -4.7667,-1.3 -2.5133,-1.3 -4.5933,-3.38 -2.08,-2.16667 -2.86,-4.59333 -0.087,-0.17334 -0.52,-1.38667 -0.3467,-1.21333 -0.3467,-3.64 l -0.087,-13.86667 q 0,-1.21333 -0.60664,-3.81333 -0.52,-1.73333 -0.52,-2.6 0,-1.47333 0.95334,-2.42667 1.04,-0.95333 2.6867,-0.95333 z"
         style="font-style:normal;font-variant:normal;font-weight:normal;font-stretch:normal;font-size:86.66666412px;font-family:Itim;-inkscape-font-specification:'Itim, Normal';font-variant-ligatures:normal;font-variant-caps:normal;font-variant-numeric:normal;font-feature-settings:normal;text-align:start;writing-mode:lr-tb;text-anchor:start"
         id="path1631" />
      <path
         inkscape:connector-curvature="0"
         d="m 1056.3888,685.25742 q 0,3.29333 0.9533,5.11333 1.04,1.73334 2.6,1.73334 0.8667,0 1.6467,-0.0867 0.78,-0.17333 1.56,-0.17333 0.8667,0 1.4733,0.86666 0.6934,0.86667 0.6934,1.90667 0,2.08 -1.9934,3.29333 -1.9066,1.12667 -5.2,1.12667 -2.34,0 -4.7666,-1.38667 -2.34,-1.47333 -3.9,-4.50666 -1.56,-3.12 -1.56,-7.71334 0,-9.88 0.3466,-16.72666 0.4334,-8.14667 0.4334,-20.54 0,-3.9 0.4333,-5.46 0.52,-1.21334 1.6467,-1.82 1.2133,-0.69334 2.5133,-0.69334 1.3,0 2.2533,0.43334 1.04,0.43333 1.3867,1.38666 0.3467,1.04 0.4333,2.08 0.1734,0.95334 0.1734,2.77334 0,3.55333 -0.26,6.84666 -0.1734,3.98667 -0.1734,5.80667 -0.6933,15.25333 -0.6933,25.74 z"
         style="font-style:normal;font-variant:normal;font-weight:normal;font-stretch:normal;font-size:86.66666412px;font-family:Itim;-inkscape-font-specification:'Itim, Normal';font-variant-ligatures:normal;font-variant-caps:normal;font-variant-numeric:normal;font-feature-settings:normal;text-align:start;writing-mode:lr-tb;text-anchor:start"
         id="path1633" />
      <path
         inkscape:connector-curvature="0"
         d="m 1110.5554,694.53075 q 0,1.90667 -2.08,3.20667 -2.08,1.3 -3.8133,1.3 -3.2067,0 -5.2,-0.78 -1.9067,-0.86667 -3.64,-3.12 -2.1667,1.99333 -6.0667,3.03333 -3.9,0.95334 -7.1933,0.95334 -5.3734,0 -8.9267,-2.86 -3.4667,-2.94667 -3.4667,-8.58 0,-2.42667 1.4734,-4.85334 1.4733,-2.51333 3.64,-3.98666 2.34,-1.56 5.2866,-2.08 2.9467,-0.60667 6.8467,-0.60667 1.82,0 4.3333,0.69333 2.5134,0.69334 3.9867,1.47334 v -1.38667 q 0,-4.68 -2.34,-6.41333 -2.2533,-1.82 -7.28,-1.82 -1.56,0 -2.86,0.52 -1.2133,0.43333 -2.86,1.3 -1.56,0.86666 -2.9467,0.86666 -1.2133,0 -2.34,-0.95333 -1.1266,-1.04 -1.1266,-2.16667 0,-3.64 4.5066,-5.28666 4.5934,-1.73334 9.36,-1.73334 2.4267,0 5.5467,1.04 3.12,0.95334 5.2867,2.68667 2.6,2.16667 3.9866,5.2 1.4734,3.03333 1.4734,6.58667 0,1.12666 -0.1734,3.38 -0.1733,2.42666 -0.1733,4.16 l -0.087,2.34 q -0.1733,1.90666 -0.1733,3.03333 0,1.04 0.6933,1.82 0.78,0.69333 1.82,0.69333 l 2.4267,-0.0867 q 0.9533,0 1.4733,0.78 0.6067,0.69333 0.6067,1.64666 z m -27.9933,-2.25333 q 3.7266,0 6.24,-0.78 2.5133,-0.78 6.0666,-2.86 0.3467,-1.47333 0.4334,-3.9 -4.7667,-2.25333 -7.8867,-2.25333 -2.9467,0 -4.7667,0.26 -1.82,0.17333 -3.2933,1.47333 -1.4733,1.3 -1.4733,4.16 0,1.64667 1.56,2.77333 1.6466,1.12667 3.12,1.12667 z"
         style="font-style:normal;font-variant:normal;font-weight:normal;font-stretch:normal;font-size:86.66666412px;font-family:Itim;-inkscape-font-specification:'Itim, Normal';font-variant-ligatures:normal;font-variant-caps:normal;font-variant-numeric:normal;font-feature-settings:normal;text-align:start;writing-mode:lr-tb;text-anchor:start"
         id="path1635" />
      <path
         inkscape:connector-curvature="0"
         d="m 1128.2353,695.22409 q -0.1733,1.47333 -1.2133,2.6 -1.04,1.12666 -2.6867,1.12666 -2.6,0 -3.8133,-0.95333 -1.2134,-1.04 -1.2134,-3.72667 0,-3.64 0.4334,-7.97333 0.3466,-5.02667 0.3466,-7.71333 0,-1.38667 -0.1733,-3.46667 -0.1733,-1.90667 -0.1733,-2.86 -0.26,-1.47333 -1.2134,-2.34 -0.8666,-0.86667 -2.7733,-1.47333 -0.78,-0.34667 -1.3,-1.12667 -0.52,-0.86667 -0.52,-1.56 0,-1.99333 1.56,-3.03333 1.56,-1.04 3.8133,-1.04 2.5134,0 4.3334,1.73333 1.82,1.73333 2.7733,4.33333 1.9933,-2.86 4.8533,-4.59333 2.9467,-1.73333 5.72,-1.73333 3.5534,0 5.98,1.21333 2.5134,1.12667 2.5134,3.98667 0,1.64666 -1.4734,3.46666 -1.3866,1.73334 -2.86,1.73334 -1.1266,0 -2.6866,-1.04 -0.6067,-0.43334 -1.3867,-0.69334 -0.6933,-0.34666 -1.4733,-0.34666 -1.3867,0 -2.6,0.43333 -1.2134,0.43333 -1.6467,1.04 -1.3867,2.16667 -2.08,3.9 -0.6067,1.73333 -0.6067,3.72667 0,1.47333 -0.087,2.34 l -0.087,4.94 0.087,3.29333 q 0,3.64 -0.3467,5.80667 z"
         style="font-style:normal;font-variant:normal;font-weight:normal;font-stretch:normal;font-size:86.66666412px;font-family:Itim;-inkscape-font-specification:'Itim, Normal';font-variant-ligatures:normal;font-variant-caps:normal;font-variant-numeric:normal;font-feature-settings:normal;text-align:start;writing-mode:lr-tb;text-anchor:start"
         id="path1637" />
      <path
         inkscape:connector-curvature="0"
         d="m 1155.0153,643.05075 q 3.0333,0.26 5.2866,1.64667 2.2534,1.3 2.2534,3.98667 0,1.99333 -1.9067,3.20666 -1.82,1.12667 -4.42,1.12667 -2.5133,0 -3.4667,-1.3 -0.9533,-1.3 -0.9533,-2.68667 0,-2.6 0.52,-4.33333 0.6067,-1.73333 2.6867,-1.64667 z m 6.9333,38.39334 v 2.51333 q 0,3.38 0.1733,6.41333 0.26,2.94667 0.6067,5.98 -0.087,0.86667 -1.3,1.82 -1.2133,0.86667 -2.1667,0.86667 -1.6466,0 -3.38,-0.60667 -1.6466,-0.69333 -1.9933,-1.64666 -0.52,-2.77334 -0.52,-4.94 0,-7.10667 -0.4333,-15.94667 -0.3467,-7.8 -0.3467,-10.92 0,-1.56 1.56,-2.68667 1.56,-1.12666 3.2933,-1.12666 2.5134,0 3.4667,1.12666 1.04,1.12667 1.04,3.55334 z"
         style="font-style:normal;font-variant:normal;font-weight:normal;font-stretch:normal;font-size:86.66666412px;font-family:Itim;-inkscape-font-specification:'Itim, Normal';font-variant-ligatures:normal;font-variant-caps:normal;font-variant-numeric:normal;font-feature-settings:normal;text-align:start;writing-mode:lr-tb;text-anchor:start"
         id="path1639" />
      <path
         inkscape:connector-curvature="0"
         d="m 1202.7685,669.05075 q -1.82,3.12 -4.94,6.41334 -3.12,3.29333 -7.9734,7.8 -4.5933,4.33333 -5.1133,4.94 l -2.9467,2.68666 q 1.7334,0.34667 6.5,0.34667 1.9067,0 5.5467,-0.69333 3.4667,-0.69334 5.1133,-0.69334 1.3867,0 3.12,0.43334 1.82,0.43333 3.38,1.3 0.78,0.34666 1.3,1.38666 0.52,0.95334 0.52,1.82 0,1.12667 -0.78,2.51334 -0.78,1.38666 -1.82,1.38666 -0.9533,0 -2.5133,-0.34666 -2.34,-0.43334 -3.2933,-0.43334 -3.0334,0 -8.06,0.43334 -6.9334,0.52 -10.2267,0.52 -4.16,0 -6.5867,-1.04 -2.34,-1.04 -2.34,-3.9 0,-2.16667 2.1667,-4.94 2.1667,-2.86 5.2867,-5.98 l 1.2133,-1.3 q 1.3867,-1.38667 4.68,-4.16 3.2933,-2.86 5.0267,-4.50667 1.7333,-1.73333 2.86,-3.64 l -13.8667,0.0867 q -3.38,0 -5.0267,-0.78 -1.56,-0.78 -1.56,-2.94667 0,-1.21333 0.8667,-2.25333 0.8667,-1.12667 2.2533,-1.38667 3.12,-0.43333 12.74,-0.43333 9.62,0 13.26,0.95333 0.9534,0.34667 1.4734,1.3 0.6066,0.86667 0.6066,1.82 0,1.56 -0.8666,3.29333 z"
         style="font-style:normal;font-variant:normal;font-weight:normal;font-stretch:normal;font-size:86.66666412px;font-family:Itim;-inkscape-font-specification:'Itim, Normal';font-variant-ligatures:normal;font-variant-caps:normal;font-variant-numeric:normal;font-feature-settings:normal;text-align:start;writing-mode:lr-tb;text-anchor:start"
         id="path1641" />
      <path
         inkscape:connector-curvature="0"
         d="m 1245.9284,699.03742 q -2.9467,0 -4.5067,-0.86667 -1.56,-0.95333 -3.38,-3.46666 -2.2533,1.99333 -6.76,3.20666 -4.42,1.21334 -7.6267,1.21334 -5.2866,0 -8.58,-2.86 -3.2066,-2.94667 -3.2066,-8.58 0,-2.42667 1.3,-4.42 1.3866,-2.08 3.5533,-3.64 2.4267,-1.64667 5.72,-2.6 3.38,-0.95334 6.1533,-0.95334 4.68,0 8.32,0.86667 v -0.0867 q 0,-4.68 -2.34,-6.41333 -2.2533,-1.82 -7.28,-1.82 -3.2066,0 -5.5466,2.86 -0.8667,1.12667 -3.64,1.12667 -1.3867,0 -2.08,-1.12667 -0.6067,-1.21333 -0.6067,-2.42667 0,-2.51333 2.08,-4.33333 2.1667,-1.82 5.2,-2.68667 3.0333,-0.95333 5.6333,-0.95333 2.5134,0 5.98,1.04 3.4667,1.04 5.6334,2.77333 2.6,2.25334 3.9866,5.28667 1.4734,2.94667 1.4734,6.5 0,1.12667 -0.1734,3.38 -0.1733,2.6 -0.1733,4.24667 0,0.78 -0.1733,1.99333 -0.1734,1.56 -0.1734,2.6 0,1.12667 0.6934,2.16667 0.6933,1.04 1.9066,1.73333 1.1267,0.60667 1.4734,1.3 0.3466,0.69333 0.3466,1.56 0,0.86667 -1.1266,2.16667 -1.04,1.21333 -2.08,1.21333 z m -17.3334,-16.55333 q -3.38,0 -5.98,1.3 -2.6,1.3 -2.6,4.59333 0,1.64667 1.1267,2.77333 1.2133,1.12667 2.6,1.12667 3.7267,0 6.24,-0.78 2.5133,-0.78 6.0667,-2.86 0.4333,-1.38667 0.52,-3.9 0,-0.95333 0.087,-1.47333 -4.68,-0.78 -8.06,-0.78 z"
         style="font-style:normal;font-variant:normal;font-weight:normal;font-stretch:normal;font-size:86.66666412px;font-family:Itim;-inkscape-font-specification:'Itim, Normal';font-variant-ligatures:normal;font-variant-caps:normal;font-variant-numeric:normal;font-feature-settings:normal;text-align:start;writing-mode:lr-tb;text-anchor:start"
         id="path1643" />
      <path
         inkscape:connector-curvature="0"
         d="m 1266.6416,705.10409 q 0,-0.78 0.52,-1.56 0.6066,-0.78 1.56,-1.82 1.56,-1.90667 2.6,-2.86 -4.5934,-0.52 -8.4067,-2.86 -3.7267,-2.42667 -5.98,-6.32667 -2.1667,-3.9 -2.1667,-8.75333 0,-5.54667 2.5134,-10.14 2.5133,-4.59334 6.76,-7.19334 4.2466,-2.6 9.2733,-2.6 2.86,0 5.8933,1.04 3.0334,1.04 5.1134,3.03334 2.08,1.99333 2.08,4.68 0,3.81333 -3.9,3.81333 -1.3,0 -2.1667,-0.60667 -0.8667,-0.60666 -1.9067,-1.82 -2.6,-2.86 -4.5066,-2.86 -2.5134,0 -4.94,1.47334 -2.34,1.47333 -3.8134,4.16 -1.4733,2.68666 -1.4733,5.98 0,3.64 1.3867,6.06666 1.4733,2.42667 4.5066,4.16 1.1267,0.60667 2.6,0.95334 1.56,0.34666 2.6867,0.34666 2.5133,0 6.3267,-1.99333 1.3866,-0.69333 2.34,-1.04 0.9533,-0.34667 1.9933,-0.34667 0.9533,0 2.1667,0.86667 1.2133,0.86667 1.2133,2.16667 0,2.94666 -3.2933,4.94 -3.2934,1.90666 -7.8867,2.68666 -0.26,0.52 -1.82,2.42667 -1.7333,2.34 -1.9067,2.6 3.5534,0.34667 5.6334,1.99333 2.1666,1.73334 2.1666,4.85334 0,2.77333 -3.64,5.63333 -1.2133,0.86667 -3.4666,1.38667 -2.1667,0.60666 -5.0267,0.60666 -2.08,0 -3.64,-1.12666 -1.4733,-1.04 -1.4733,-2.77334 0,-0.69333 0.6066,-1.21333 0.6934,-0.52 1.3867,-0.52 0.8667,0 1.7333,0.52 0.8667,0.52 1.56,0.52 1.04,0 2.2534,-0.26 1.3,-0.26 1.9933,-0.60667 0.6067,-0.34666 1.04,-1.12666 0.4333,-0.69334 0.4333,-1.56 0,-1.73334 -2.2533,-2.16667 -2.1667,-0.43333 -4.68,-0.43333 -0.6933,0 -1.3867,-0.86667 -0.6066,-0.78 -0.6066,-1.47333 z"
         style="font-style:normal;font-variant:normal;font-weight:normal;font-stretch:normal;font-size:86.66666412px;font-family:Itim;-inkscape-font-specification:'Itim, Normal';font-variant-ligatures:normal;font-variant-caps:normal;font-variant-numeric:normal;font-feature-settings:normal;text-align:start;writing-mode:lr-tb;text-anchor:start"
         id="path1645" />
      <path
         inkscape:connector-curvature="0"
         d="m 1299.1416,653.97075 q 0,-2.16666 1.56,-3.9 1.56,-1.73333 3.9,-2.68666 2.34,-1.04 4.5066,-1.04 3.2934,0 6.3267,2.08 2.4267,1.73333 3.9867,1.64666 0.8666,0 1.3866,-0.43333 0.52,-0.43333 0.78,-0.95333 0.3467,-0.52 0.4334,-0.69334 0.52,-0.78 1.1266,-1.12666 0.6067,-0.43334 1.56,-0.43334 1.1267,0 1.9934,0.69334 0.9533,0.60666 0.9533,1.90666 0,1.73334 -1.3,3.46667 -1.2133,1.64667 -3.2067,2.77333 -1.9066,1.04 -3.9,1.04 -2.2533,0 -3.64,-0.60666 -1.3866,-0.60667 -3.0333,-1.82 -1.04,-0.78 -1.7333,-1.12667 -0.6067,-0.34667 -1.3867,-0.34667 -2.6,0 -3.9867,2.08 -1.3866,1.99334 -3.5533,1.99334 -0.8667,0 -1.82,-0.69334 -0.9533,-0.69333 -0.9533,-1.82 z m 36.5733,40.56 q 0,-1.04 -0.52,-1.73333 -0.52,-0.69333 -1.4733,-0.69333 l -2.4267,0.0867 q -1.04,0 -1.82,-0.69333 -0.78,-0.78 -0.78,-1.82 0,-1.12667 0.1733,-3.03333 0.1734,-1.56 0.1734,-2.34 0,-1.73334 0.1733,-4.16 0.1733,-2.25334 0.1733,-3.38 0,-3.55334 -1.4733,-6.5 -1.3867,-3.03334 -3.9867,-5.28667 -2.1666,-1.73333 -5.5466,-2.68667 -3.38,-1.04 -5.98,-1.04 -2.6,0 -5.8934,0.95334 -3.2933,0.86666 -5.72,2.68666 -2.34,1.82 -2.34,4.33334 0,0.86666 0.6934,1.99333 0.6933,1.04 1.4733,1.04 2.1667,0 4.5933,-1.3 1.82,-1.04 3.2067,-1.64667 1.4733,-0.60666 2.9467,-0.60666 5.0266,0 7.28,1.82 2.2533,1.73333 2.2533,6.41333 v 1.38667 q -1.3867,-0.78 -3.9,-1.47334 -2.5133,-0.69333 -4.3333,-0.69333 -3.4667,0 -6.6734,0.95333 -3.2066,0.86667 -5.72,2.51334 -2.2533,1.56 -3.5533,3.64 -1.3,1.99333 -1.3,4.42 0,5.63333 3.4667,8.58 3.4666,2.86 8.84,2.86 3.2933,0 7.1933,-0.95334 3.9,-1.04 6.1533,-3.03333 1.6467,2.25333 3.5534,3.12 1.9933,0.78 5.2866,0.78 1.7334,0 3.7267,-1.3 2.08,-1.3 2.08,-3.20667 z m -27.9067,-2.25333 q -1.4733,0 -2.86,-1.12667 -1.3866,-1.12666 -1.3866,-2.77333 0,-3.29333 2.7733,-4.59333 2.7733,-1.3 6.3267,-1.3 3.12,0 7.8866,2.25333 -0.087,2.42667 -0.4333,3.9 -3.5533,2.08 -6.0667,2.86 -2.5133,0.78 -6.24,0.78 z"
         style="font-style:normal;font-variant:normal;font-weight:normal;font-stretch:normal;font-size:86.66666412px;font-family:Itim;-inkscape-font-specification:'Itim, Normal';font-variant-ligatures:normal;font-variant-caps:normal;font-variant-numeric:normal;font-feature-settings:normal;text-align:start;writing-mode:lr-tb;text-anchor:start"
         id="path1647" />
      <path
         inkscape:connector-curvature="0"
         d="m 1375.5816,670.87075 q 0.6933,1.21334 1.1266,3.55334 0.4334,2.25333 0.4334,4.07333 0,2.42667 -0.78,6.06667 -0.78,3.55333 -1.3,4.76666 -4.68,9.70667 -18.0267,9.70667 -4.2467,0 -8.32,-2.77333 -4.0733,-2.86 -5.8067,-6.67334 l -0.6066,-1.73333 q -0.087,-0.34667 -0.9534,-2.6 -0.78,-2.34 -0.78,-3.55333 0,-3.55334 1.7334,-8.23334 1.7333,-4.68 3.9866,-7.45333 1.4734,-1.99333 5.6334,-3.38 4.16,-1.47333 7.3666,-1.47333 5.98,0 9.62,2.25333 3.7267,2.25333 6.6734,7.45333 z m -7.9734,13.95334 q 0.3467,-0.60667 0.6067,-2.16667 0.26,-1.56 0.26,-3.64 0,-2.51333 -0.9533,-4.94 -0.8667,-2.42667 -2.6,-4.16 -0.087,-0.17333 -0.6067,-0.52 -0.52,-0.43333 -1.6467,-0.78 -1.1266,-0.43333 -2.86,-0.43333 -3.38,0 -5.72,1.99333 -2.34,1.99333 -3.5533,4.94 -1.1267,2.94667 -1.1267,5.80667 0,0.78 0.52,3.20666 0.52,2.42667 0.78,3.12 0.6934,1.21334 2.6867,2.86 1.9933,1.56 4.5067,1.56 3.9,0 6.0666,-1.82 2.2534,-1.82 3.64,-5.02666 z"
         style="font-style:normal;font-variant:normal;font-weight:normal;font-stretch:normal;font-size:86.66666412px;font-family:Itim;-inkscape-font-specification:'Itim, Normal';font-variant-ligatures:normal;font-variant-caps:normal;font-variant-numeric:normal;font-feature-settings:normal;text-align:start;writing-mode:lr-tb;text-anchor:start"
         id="path1649" />
      <path
         inkscape:connector-curvature="0"
         d="m 1446.128,697.39075 q -1.1266,-1.47333 -1.9066,-3.20666 -0.78,-1.82 -1.6467,-4.33334 -0.1733,-0.43333 -1.04,-2.6 -0.78,-2.16666 -1.82,-3.72666 -5.46,0.78 -8.9267,0.78 -1.9066,0 -4.2466,-0.0867 -2.2534,-0.17333 -3.38,-0.17333 -4.3334,-0.34667 -6.9334,-0.34667 -1.04,1.38667 -1.82,2.94667 -0.6933,1.56 -1.82,4.68 -1.56,4.50666 -2.6866,6.41333 -0.78,1.3 -3.0334,1.3 -1.9066,0 -3.5533,-0.78 -1.56,-0.86667 -1.56,-2.34 0.6933,-3.29333 2.1667,-6.93333 1.56,-3.72667 4.42,-9.88 l 3.4666,-8.49334 q 2.86,-7.28 5.2,-12.48 2.4267,-5.2 6.3267,-12.30666 0.52,-1.04 1.7333,-1.73334 1.2134,-0.78 2.6867,-0.78 1.6467,0 2.34,0.26 0.78,0.17334 1.2133,0.69334 0.4334,0.43333 1.3,1.90666 2.9467,4.59334 5.0267,9.44667 2.1667,4.85333 5.46,13.43333 l 1.82,4.59334 q 2.4267,6.24 4.16,10.48666 1.82,4.16 3.9867,7.62667 1.3866,2.25333 1.3866,3.12 0,2.08 -1.3,3.20667 -1.2133,1.04 -3.2066,1.04 -2.5134,0 -3.8134,-1.73334 z m -8.9266,-20.97333 q -1.3867,-2.94667 -3.9867,-10.22667 -2.6867,-7.8 -5.3733,-12.39333 -1.6467,4.16 -4.8534,10.74667 -2.1666,4.07333 -4.94,11.78666 5.5467,0.69334 11.96,0.69334 4.5934,0 7.1934,-0.60667 z"
         style="font-style:normal;font-variant:normal;font-weight:normal;font-stretch:normal;font-size:86.66666412px;font-family:Itim;-inkscape-font-specification:'Itim, Normal';font-variant-ligatures:normal;font-variant-caps:normal;font-variant-numeric:normal;font-feature-settings:normal;text-align:start;writing-mode:lr-tb;text-anchor:start"
         id="path1651" />
      <path
         inkscape:connector-curvature="0"
         d="m 1515.1147,695.65742 q -1.3,-2.42667 -1.6467,-5.37333 -0.3467,-3.03334 -0.3467,-8.32 0,-5.02667 -1.3866,-8.75334 -1.3867,-3.72666 -5.72,-3.72666 -1.6467,0 -3.2934,1.04 -1.56,0.95333 -2.34,2.42666 -1.2133,2.34 -1.6466,5.11334 -0.4334,2.68666 -0.4334,6.24 0,2.25333 0.26,4.59333 0,0.69333 0.087,2.25333 0.1733,1.47334 0.1733,2.68667 0,5.2 -3.64,5.2 -4.7666,0 -5.0266,-5.02667 0,-3.55333 0.087,-3.81333 v -3.72667 q 0,-3.12 -0.26,-6.06666 -0.26,-2.94667 -0.6066,-4.42 -0.78,-2.86 -2.08,-4.42 -1.2134,-1.56 -3.9,-1.56 -3.8134,0 -6.1534,3.29333 -1.6466,2.6 -2.1666,6.32667 -0.52,4.76666 -0.78,7.54 -0.1734,2.68666 -0.1734,6.24 0,2.51333 -0.8666,4.07333 -0.78,1.56 -3.0334,1.56 -1.6466,0 -3.4666,-0.86667 -1.7334,-0.95333 -1.7334,-2.51333 0,-1.64667 0.3467,-3.29333 0.78,-4.94 0.78,-17.68 0,-2.08 -1.04,-3.98667 -0.9533,-1.99333 -2.34,-1.99333 -0.3467,0 -1.3,0.34666 -0.8667,0.34667 -1.3,0.34667 -1.1267,0 -2.08,-1.04 -0.8667,-1.04 -0.8667,-1.73333 0,-2.16667 2.08,-3.64 2.1667,-1.56 4.5067,-1.56 3.2067,0 5.46,1.99333 2.2533,1.99333 3.4667,5.54667 1.9933,-3.46667 5.3733,-5.54667 3.38,-2.16667 7.54,-2.16667 2.6,0 4.16,0.69334 1.6467,0.60666 2.6867,1.82 1.04,1.12666 2.6866,3.46666 2.1667,-2.77333 5.5467,-4.33333 3.4667,-1.56 7.1067,-1.56 4.3333,0 7.8,3.55333 3.4666,3.46667 4.68,8.06 0.6066,2.34 0.6066,9.01334 l 0.3467,5.02666 q 0.4333,4.50667 2.9467,5.46 2.9466,0.86667 2.9466,1.82 0,2.08 -1.04,3.03334 -0.78,0.52 -2.1666,1.12666 -1.3867,0.60667 -2.1667,0.60667 -4.68,0 -6.6733,-3.38 z"
         style="font-style:normal;font-variant:normal;font-weight:normal;font-stretch:normal;font-size:86.66666412px;font-family:Itim;-inkscape-font-specification:'Itim, Normal';font-variant-ligatures:normal;font-variant-caps:normal;font-variant-numeric:normal;font-feature-settings:normal;text-align:start;writing-mode:lr-tb;text-anchor:start"
         id="path1653" />
      <path
         inkscape:connector-curvature="0"
         d="m 1535.3946,683.09075 q 0,-4.85333 0.087,-7.36666 l 0.087,-8.23334 q 0,-5.02666 -0.26,-11.00666 -0.087,-1.82 -0.6066,-5.02667 -0.6934,-4.85333 -0.6934,-7.28 0,-3.98667 3.9867,-3.98667 2.5133,0 3.5533,1.38667 1.1267,1.3 1.56,4.16 0.8667,5.98 0.8667,14.04 0,2.42667 -0.1733,7.28 1.6466,-2.6 4.2466,-4.07333 2.6867,-1.47334 5.2867,-1.47334 7.54,0 13,6.24 1.4733,2.16667 2.6,5.2 1.2133,2.94667 1.2133,5.11334 0,3.81333 -0.8666,7.02 -0.78,3.20666 -2.86,6.24 -2.08,3.03333 -5.2867,4.94 -3.12,1.90666 -7.28,1.90666 -3.64,0 -6.5867,-1.47333 -2.86,-1.47333 -4.5933,-3.9 -0.4333,2.16667 -1.9067,4.33333 -1.4733,2.08 -3.38,2.08 -1.56,0 -2.6,-0.78 -1.04,-0.86666 -1.04,-2.51333 0,-1.21333 0.52,-3.03333 0.52,-2.51334 0.78,-4.59334 0.3467,-2.16666 0.3467,-5.2 z m 16.2933,7.88667 q 4.2467,0 7.1067,-2.94667 2.86,-3.03333 2.86,-8.14666 0,-4.68 -2.5133,-8.06 -0.8667,-1.12667 -2.5134,-1.82 -1.56,-0.69334 -3.12,-0.69334 -3.64,0 -6.1533,2.16667 -2.5133,2.08 -2.86,5.80667 -0.3467,5.02666 -0.3467,8.66666 1.04,1.99334 3.12,3.55334 2.1667,1.47333 4.42,1.47333 z"
         style="font-style:normal;font-variant:normal;font-weight:normal;font-stretch:normal;font-size:86.66666412px;font-family:Itim;-inkscape-font-specification:'Itim, Normal';font-variant-ligatures:normal;font-variant-caps:normal;font-variant-numeric:normal;font-feature-settings:normal;text-align:start;writing-mode:lr-tb;text-anchor:start"
         id="path1655" />
      <path
         inkscape:connector-curvature="0"
         d="m 1582.8012,643.05075 q 3.0333,0.26 5.2866,1.64667 2.2534,1.3 2.2534,3.98667 0,1.99333 -1.9067,3.20666 -1.82,1.12667 -4.42,1.12667 -2.5133,0 -3.4667,-1.3 -0.9533,-1.3 -0.9533,-2.68667 0,-2.6 0.52,-4.33333 0.6067,-1.73333 2.6867,-1.64667 z m 6.9333,38.39334 v 2.51333 q 0,3.38 0.1733,6.41333 0.26,2.94667 0.6067,5.98 -0.087,0.86667 -1.3,1.82 -1.2133,0.86667 -2.1667,0.86667 -1.6466,0 -3.38,-0.60667 -1.6466,-0.69333 -1.9933,-1.64666 -0.52,-2.77334 -0.52,-4.94 0,-7.10667 -0.4333,-15.94667 -0.3467,-7.8 -0.3467,-10.92 0,-1.56 1.56,-2.68667 1.56,-1.12666 3.2933,-1.12666 2.5134,0 3.4667,1.12666 1.04,1.12667 1.04,3.55334 z"
         style="font-style:normal;font-variant:normal;font-weight:normal;font-stretch:normal;font-size:86.66666412px;font-family:Itim;-inkscape-font-specification:'Itim, Normal';font-variant-ligatures:normal;font-variant-caps:normal;font-variant-numeric:normal;font-feature-settings:normal;text-align:start;writing-mode:lr-tb;text-anchor:start"
         id="path1657" />
      <path
         inkscape:connector-curvature="0"
         d="m 1599.701,678.84409 q 0,-5.28667 2.34,-8.75334 2.34,-3.55333 6.5,-6.67333 1.2134,-0.86667 4.0734,-1.47333 2.86,-0.69334 5.0266,-0.69334 2.6,0 5.46,1.12667 2.9467,1.04 4.7667,2.42667 3.2067,2.34 4.42,5.46 1.2133,3.03333 1.2133,7.28 0,1.82 -2.08,3.55333 -1.9933,1.64667 -4.3333,1.64667 l -3.2933,-0.0867 q -2.5134,0 -7.1934,0.17333 l -1.82,0.0867 q -1.9066,0.17333 -2.86,0.17333 -1.3866,0 -3.8133,-0.34666 0.3467,4.07333 3.0333,6.41333 2.6867,2.25333 5.8067,2.25333 5.46,0 7.6267,-2.16666 1.82,-1.3 2.4266,-1.64667 0.6067,-0.34667 1.9067,-0.34667 1.3867,0 2.4267,1.3 1.04,1.3 1.04,2.6 0,1.47334 -1.82,3.03334 -1.7334,1.47333 -4.7667,3.12 -1.6467,0.69333 -4.5067,1.21333 -2.86,0.52 -4.7666,0.52 -3.0334,0 -6.76,-1.73333 -3.7267,-1.82 -5.5467,-3.98667 -1.82,-2.16667 -3.2067,-6.15333 -1.3,-3.98667 -1.3,-8.32 z m 17.2467,-2.34 q 6.1533,0 9.0133,-0.43334 -0.1733,-2.51333 -1.56,-4.07333 -1.3866,-1.64667 -3.8133,-2.77333 -0.78,-0.34667 -1.3867,-0.52 -0.6066,-0.17334 -1.3866,-0.17334 -3.9867,0 -6.76,2.16667 -2.6867,2.16667 -3.2067,5.54667 4.3333,0.26 9.1,0.26 z"
         style="font-style:normal;font-variant:normal;font-weight:normal;font-stretch:normal;font-size:86.66666412px;font-family:Itim;-inkscape-font-specification:'Itim, Normal';font-variant-ligatures:normal;font-variant-caps:normal;font-variant-numeric:normal;font-feature-settings:normal;text-align:start;writing-mode:lr-tb;text-anchor:start"
         id="path1659" />
      <path
         inkscape:connector-curvature="0"
         d="m 1681.2542,692.01742 q 0.4333,0.17333 1.3867,0.43333 0.9533,0.26 1.3866,0.52 0.4334,0.26 0.4334,0.78 0.087,2.08 -1.56,3.46667 -1.56,1.3 -3.7267,1.3 -3.38,0 -5.2867,-1.82 -1.9066,-1.82 -2.7733,-5.54667 -0.3467,-1.47333 -0.3467,-4.07333 0,-1.47333 0.1734,-4.76667 0.1733,-3.46666 0.1733,-5.54666 0,-3.72667 -0.78,-5.63334 -0.78,-1.99333 -3.7267,-1.99333 -3.0333,0 -5.46,2.42667 -2.34,2.42666 -3.9866,7.28 -2.2534,6.76 -2.5134,17.94 0,0.60666 -1.3,1.47333 -1.2133,0.78 -2.9466,0.78 -3.2067,0 -3.9867,-3.38 l -0.087,-1.47333 q 0,-0.78 0.1734,-1.82 1.04,-6.06667 1.04,-10.57334 0,-1.99333 -0.087,-3.12 l -0.087,-4.07333 q 0,-2.08 -1.04,-3.98667 -1.04,-1.99333 -2.4266,-1.99333 -0.4334,0 -1.2134,0.34667 -0.78,0.26 -1.3,0.26 -0.8666,0 -1.9066,-0.86667 -0.9534,-0.86667 -0.9534,-1.82 0,-1.82 1.2134,-2.94667 1.3,-1.04 2.5133,-1.64666 1.3,-0.60667 2.9467,-0.60667 1.3866,0 2.2533,0.26 0.8667,0.26 2.34,1.12667 0.8667,0.43333 1.9933,2.42666 1.1267,1.99334 1.7334,5.63334 1.7333,-3.20667 5.8066,-6.76 3.0334,-2.77334 8.7534,-2.77334 5.2,0 8.2333,3.81334 3.0333,3.72666 3.0333,10.31333 0,1.3 -0.1733,4.24667 -0.26,2.34 -0.26,4.94 0,6.06666 2.34,7.45333 z"
         style="font-style:normal;font-variant:normal;font-weight:normal;font-stretch:normal;font-size:86.66666412px;font-family:Itim;-inkscape-font-specification:'Itim, Normal';font-variant-ligatures:normal;font-variant-caps:normal;font-variant-numeric:normal;font-feature-settings:normal;text-align:start;writing-mode:lr-tb;text-anchor:start"
         id="path1661" />
      <path
         inkscape:connector-curvature="0"
         d="m 1690.8742,668.70409 q -1.2134,-0.17334 -1.9934,-1.04 -0.6933,-0.86667 -0.6933,-2.08 0,-0.60667 0.26,-1.3 0.3467,-0.69334 0.9533,-1.21334 1.1267,-1.12666 6.0667,-1.12666 0.6933,-3.38 0.6933,-6.84667 0,-1.3 -0.087,-2.25333 -0.087,-0.95334 -0.087,-1.47334 0,-1.90666 1.3867,-2.86 1.4733,-0.95333 3.2933,-0.95333 2.2533,0 3.0333,1.12667 0.8667,1.12666 0.8667,4.16 0,4.50666 -0.78,8.84 1.3867,0 3.8133,-0.17334 3.2934,-0.17333 4.7667,-0.17333 1.4733,0 2.5133,0.78 1.1267,0.69333 1.1267,1.99333 0,3.38 -3.0333,3.98667 -3.2067,0.78 -9.9667,0.95333 -0.26,3.38 -0.26,7.36667 0,6.24 0.78,10.22667 0.52,2.77333 1.7333,4.07333 1.3,1.21333 3.8134,1.21333 1.4733,0 3.0333,-0.78 1.04,-0.60666 1.9067,-0.60666 1.2133,0 1.7333,0.78 0.6067,0.78 0.6067,2.08 0,2.42666 -2.6,4.07333 -2.6,1.56 -6.6734,1.56 -2.5133,0 -5.1133,-1.21333 -2.5133,-1.21334 -4.2467,-3.03334 -0.26,-0.26 -0.9533,-1.99333 -0.6933,-1.73333 -1.2133,-3.72667 -0.8667,-4.07333 -0.8667,-11.44 0,-3.20666 0.3467,-8.58 z"
         style="font-style:normal;font-variant:normal;font-weight:normal;font-stretch:normal;font-size:86.66666412px;font-family:Itim;-inkscape-font-specification:'Itim, Normal';font-variant-ligatures:normal;font-variant-caps:normal;font-variant-numeric:normal;font-feature-settings:normal;text-align:start;writing-mode:lr-tb;text-anchor:start"
         id="path1663" />
      <path
         inkscape:connector-curvature="0"
         d="m 1762.8075,694.53075 q 0,1.90667 -2.08,3.20667 -2.08,1.3 -3.8133,1.3 -3.2067,0 -5.2,-0.78 -1.9067,-0.86667 -3.64,-3.12 -2.1667,1.99333 -6.0667,3.03333 -3.9,0.95334 -7.1933,0.95334 -5.3734,0 -8.9267,-2.86 -3.4667,-2.94667 -3.4667,-8.58 0,-2.42667 1.4734,-4.85334 1.4733,-2.51333 3.64,-3.98666 2.34,-1.56 5.2866,-2.08 2.9467,-0.60667 6.8467,-0.60667 1.82,0 4.3333,0.69333 2.5134,0.69334 3.9867,1.47334 v -1.38667 q 0,-4.68 -2.34,-6.41333 -2.2533,-1.82 -7.28,-1.82 -1.56,0 -2.86,0.52 -1.2133,0.43333 -2.86,1.3 -1.56,0.86666 -2.9467,0.86666 -1.2133,0 -2.34,-0.95333 -1.1266,-1.04 -1.1266,-2.16667 0,-3.64 4.5066,-5.28666 4.5934,-1.73334 9.36,-1.73334 2.4267,0 5.5467,1.04 3.12,0.95334 5.2867,2.68667 2.6,2.16667 3.9866,5.2 1.4734,3.03333 1.4734,6.58667 0,1.12666 -0.1734,3.38 -0.1733,2.42666 -0.1733,4.16 l -0.087,2.34 q -0.1733,1.90666 -0.1733,3.03333 0,1.04 0.6933,1.82 0.78,0.69333 1.82,0.69333 l 2.4267,-0.0867 q 0.9533,0 1.4733,0.78 0.6067,0.69333 0.6067,1.64666 z m -27.9933,-2.25333 q 3.7266,0 6.24,-0.78 2.5133,-0.78 6.0666,-2.86 0.3467,-1.47333 0.4334,-3.9 -4.7667,-2.25333 -7.8867,-2.25333 -2.9467,0 -4.7667,0.26 -1.82,0.17333 -3.2933,1.47333 -1.4733,1.3 -1.4733,4.16 0,1.64667 1.56,2.77333 1.6466,1.12667 3.12,1.12667 z"
         style="font-style:normal;font-variant:normal;font-weight:normal;font-stretch:normal;font-size:86.66666412px;font-family:Itim;-inkscape-font-specification:'Itim, Normal';font-variant-ligatures:normal;font-variant-caps:normal;font-variant-numeric:normal;font-feature-settings:normal;text-align:start;writing-mode:lr-tb;text-anchor:start"
         id="path1665" />
      <path
         inkscape:connector-curvature="0"
         d="m 1778.1474,685.25742 q 0,3.29333 0.9533,5.11333 1.04,1.73334 2.6,1.73334 0.8667,0 1.6467,-0.0867 0.78,-0.17333 1.56,-0.17333 0.8667,0 1.4733,0.86666 0.6934,0.86667 0.6934,1.90667 0,2.08 -1.9934,3.29333 -1.9066,1.12667 -5.2,1.12667 -2.34,0 -4.7666,-1.38667 -2.34,-1.47333 -3.9,-4.50666 -1.56,-3.12 -1.56,-7.71334 0,-9.88 0.3466,-16.72666 0.4334,-8.14667 0.4334,-20.54 0,-3.9 0.4333,-5.46 0.52,-1.21334 1.6467,-1.82 1.2133,-0.69334 2.5133,-0.69334 1.3,0 2.2533,0.43334 1.04,0.43333 1.3867,1.38666 0.3467,1.04 0.4333,2.08 0.1734,0.95334 0.1734,2.77334 0,3.55333 -0.26,6.84666 -0.1734,3.98667 -0.1734,5.80667 -0.6933,15.25333 -0.6933,25.74 z"
         style="font-style:normal;font-variant:normal;font-weight:normal;font-stretch:normal;font-size:86.66666412px;font-family:Itim;-inkscape-font-specification:'Itim, Normal';font-variant-ligatures:normal;font-variant-caps:normal;font-variant-numeric:normal;font-feature-settings:normal;text-align:start;writing-mode:lr-tb;text-anchor:start"
         id="path1667" />
    </g>
  </g>
</svg>
