<svg width="60" height="60" viewBox="0 0 60 60" fill="none" xmlns="http://www.w3.org/2000/svg">
<circle cx="30" cy="30" r="30" fill="#079E59"/>
<g clip-path="url(#clip0)">
<path d="M43.1707 24.1808C44.1091 22.8664 44.6668 21.2619 44.6668 19.5239C44.6668 15.088 41.0709 11.4922 36.6351 11.4922C36.5693 11.4922 36.5056 11.5004 36.4403 11.502C35.0702 9.39571 32.7 8 30.0001 8C26.868 8 24.1785 9.87713 22.9823 12.5654C18.1823 13.8193 14.635 18.1722 14.635 23.3651C14.635 26.2203 15.7148 28.817 17.4768 30.7923C17.4463 31.1064 17.4285 31.4241 17.4285 31.7461C17.4285 37.1462 21.8062 41.5239 27.2063 41.5239C27.7949 41.5239 30.139 41.4714 30.6984 41.371L30.9351 38.951C32.3186 39.7008 33.9031 40.127 35.5872 40.127C40.9874 40.127 45.365 35.7494 45.365 30.3492C45.3652 28.0096 44.5412 25.8637 43.1707 24.1808Z" fill="#AFD755"/>
<path d="M30.6985 37.8486C29.5779 38.1377 28.337 38.128 27.0108 37.5016C25.2147 36.6533 23.9132 34.9291 23.737 32.9507C23.6677 32.1735 23.76 31.4268 23.9815 30.7379C24.0685 30.4671 23.9564 30.1794 23.7364 29.9989C22.0195 28.5906 20.9207 26.4573 20.9207 24.0634C20.9207 20.9569 22.768 18.2884 25.4214 17.0786C25.6983 16.9524 25.8769 16.6771 25.8462 16.3744C25.8232 16.1467 25.8096 15.9163 25.8096 15.6825C25.8096 12.044 28.3418 9.00358 31.738 8.209C31.1785 8.07906 30.5993 8 30.0001 8C26.868 8 24.1785 9.87713 22.9823 12.5654C18.1823 13.8193 14.635 18.1722 14.635 23.3651C14.635 26.2203 15.7148 28.817 17.4768 30.7923C17.4463 31.1064 17.4285 31.4241 17.4285 31.7461C17.4285 37.1462 21.8062 41.5239 27.2063 41.5239C27.7949 41.5239 30.139 41.4714 30.6984 41.371V39.2367V37.8486H30.6985Z" fill="#96BE4B"/>
<path d="M29.3017 38.0317C29.2792 38.0317 29.2577 38.0286 29.2353 38.0284L28.6033 51.3016H32.7937L32.1752 38.3144C32.1531 37.8491 31.6874 37.5137 31.2514 37.6776C30.6447 37.9057 29.9884 38.0317 29.3017 38.0317Z" fill="#AF6E5A"/>
<path d="M32.1752 38.3144C32.1531 37.8491 31.6874 37.5137 31.2514 37.6776C30.6447 37.9057 29.9884 38.0318 29.3017 38.0318C29.2792 38.0318 29.2577 38.0287 29.2353 38.0285L28.6033 51.3017H30.6985V39.932C30.6985 39.6313 30.8909 39.3645 31.1761 39.2694L32.2045 38.9266L32.1752 38.3144Z" fill="#965A50"/>
<path d="M34.1906 52H27.2064C26.8207 52 26.508 51.6877 26.508 51.3016C26.508 50.9156 26.8207 50.6032 27.2064 50.6032H34.1906C34.5763 50.6032 34.889 50.9156 34.889 51.3016C34.889 51.6877 34.5763 52 34.1906 52Z" fill="#96BE4B"/>
</g>
<defs>
<clipPath id="clip0">
<rect width="44" height="44" fill="white" transform="translate(8 8)"/>
</clipPath>
</defs>
</svg>
