<?xml version="1.0" encoding="iso-8859-1"?>
<!-- Generator: Adobe Illustrator 19.0.0, SVG Export Plug-In . SVG Version: 6.00 Build 0)  -->
<svg version="1.1" id="Capa_1" xmlns="http://www.w3.org/2000/svg" xmlns:xlink="http://www.w3.org/1999/xlink" x="0px" y="0px"
	 viewBox="0 0 470 470" style="enable-background:new 0 0 470 470;" xml:space="preserve">
<g>
	<path d="M401.17,68.83C356.785,24.444,297.771,0,235,0S113.215,24.444,68.83,68.83C24.444,113.215,0,172.229,0,235
		s24.444,121.785,68.83,166.17C113.215,445.556,172.229,470,235,470s121.785-24.444,166.17-68.83
		C445.556,356.785,470,297.771,470,235S445.556,113.215,401.17,68.83z M235,455c-121.309,0-220-98.691-220-220S113.691,15,235,15
		s220,98.691,220,220S356.309,455,235,455z"/>
	<path d="M71.313,144.188H254c4.142,0,7.5-3.358,7.5-7.5c0-24.966-20.312-45.278-45.278-45.278c-1.317,0-2.633,0.057-3.942,0.171
		c-7.997-20.082-27.521-33.596-49.624-33.596c-22.102,0-41.626,13.515-49.624,33.596c-1.31-0.114-2.625-0.171-3.942-0.171
		c-24.966,0-45.278,20.312-45.278,45.278C63.813,140.83,67.17,144.188,71.313,144.188z M109.09,106.41
		c2.458,0,4.906,0.296,7.276,0.881c4.002,0.987,8.044-1.437,9.063-5.426c4.342-17.004,19.65-28.88,37.227-28.88
		c17.577,0,32.885,11.876,37.227,28.88c1.019,3.99,5.062,6.414,9.063,5.426c2.37-0.584,4.818-0.881,7.276-0.881
		c14.107,0,25.992,9.699,29.338,22.778H79.752C83.098,116.108,94.983,106.41,109.09,106.41z"/>
	<path d="M78.614,287.5c-4.142,0-7.5,3.358-7.5,7.5s3.358,7.5,7.5,7.5h20c4.142,0,7.5-3.358,7.5-7.5s-3.358-7.5-7.5-7.5H78.614z"/>
	<path d="M121.114,295c0,4.142,3.358,7.5,7.5,7.5h69.634c4.142,0,7.5-3.358,7.5-7.5s-3.358-7.5-7.5-7.5h-69.634
		C124.472,287.5,121.114,290.858,121.114,295z"/>
	<path d="M397.577,359.72c14.278-18.568,25.451-39.637,32.737-62.431c0.01-0.031,0.021-0.062,0.03-0.093
		C436.607,277.57,440,256.675,440,235c0-4.142-3.358-7.5-7.5-7.5h-28.711v-15h25.531c2.483,0,4.806-1.229,6.202-3.283
		c1.396-2.054,1.686-4.665,0.772-6.975l-33.031-83.559c-1.131-2.862-3.896-4.743-6.975-4.743c-3.078,0-5.843,1.88-6.975,4.743
		l-33.032,83.559c-0.913,2.31-0.624,4.921,0.772,6.975c1.396,2.054,3.719,3.283,6.202,3.283h25.532v15h-81.063v-15h25.531
		c2.483,0,4.806-1.229,6.202-3.283c1.396-2.054,1.686-4.665,0.772-6.975L307.2,118.684c-1.131-2.862-3.896-4.743-6.975-4.743
		s-5.843,1.88-6.975,4.743l-33.031,83.559c-0.913,2.31-0.624,4.921,0.772,6.975c1.396,2.054,3.719,3.283,6.202,3.283h25.531v15
		h-96.72V215c0-4.142-3.358-7.5-7.5-7.5s-7.5,3.358-7.5,7.5v12.5h-45V215c0-4.142-3.358-7.5-7.5-7.5s-7.5,3.358-7.5,7.5v12.5h-15
		V215c0-4.142-3.358-7.5-7.5-7.5s-7.5,3.358-7.5,7.5v12.5h-15V215c0-4.142-3.358-7.5-7.5-7.5s-7.5,3.358-7.5,7.5v12.5H37.5
		c-4.142,0-7.5,3.358-7.5,7.5c0,32.28,7.326,63.194,21.774,91.885c0.176,0.349,0.364,0.691,0.542,1.039
		c0.141,0.332,0.312,0.648,0.497,0.953c13.734,26.529,33.457,50.179,57.184,68.487c3.278,2.529,7.989,1.924,10.52-1.356
		c2.53-3.279,1.923-7.989-1.356-10.52c-19.291-14.885-35.201-32.874-47.282-52.988h126.369c20.678,0,37.5-16.822,37.5-37.5
		s-16.822-37.5-37.5-37.5h-24.6c-4.142,0-7.5,3.358-7.5,7.5s3.358,7.5,7.5,7.5h24.6c12.407,0,22.5,10.093,22.5,22.5
		s-10.093,22.5-22.5,22.5H63.755c-6.875-14.233-11.935-29.334-15.059-45h94.951c4.142,0,7.5-3.358,7.5-7.5s-3.358-7.5-7.5-7.5
		H46.321c-0.582-4.958-0.982-9.96-1.176-15h379.709c-0.607,15.548-3.099,30.62-7.239,45h-86.824c-20.678,0-37.5,16.822-37.5,37.5
		s16.822,37.5,37.5,37.5h44.951C340.954,400.865,290.744,425,235,425c-32.053,0-63.769-8.18-91.72-23.656
		c-3.624-2.005-8.188-0.696-10.194,2.929c-2.006,3.624-0.695,8.188,2.929,10.194C166.183,431.171,200.412,440,235,440
		c66.122,0,125.022-31.476,162.532-80.222C397.548,359.759,397.562,359.739,397.577,359.72z M396.289,141.842l22.002,55.658h-44.004
		L396.289,141.842z M300.226,141.842l22.002,55.658h-44.004L300.226,141.842z M330.791,347.5c-12.407,0-22.5-10.093-22.5-22.5
		s10.093-22.5,22.5-22.5h81.81c-6.166,16.169-14.477,31.285-24.588,45H330.791z"/>
	<path d="M246.976,392.5c12.407,0,22.5-10.093,22.5-22.5s-10.093-22.5-22.5-22.5h-68.728c-12.407,0-22.5,10.093-22.5,22.5
		s10.093,22.5,22.5,22.5H246.976z M170.748,370c0-4.136,3.364-7.5,7.5-7.5h68.728c4.135,0,7.5,3.364,7.5,7.5s-3.365,7.5-7.5,7.5
		h-68.728C174.112,377.5,170.748,374.136,170.748,370z"/>
	<path d="M350.791,317.5h-20c-4.142,0-7.5,3.358-7.5,7.5s3.358,7.5,7.5,7.5h20c4.142,0,7.5-3.358,7.5-7.5
		S354.933,317.5,350.791,317.5z"/>
</g>
<g>
</g>
<g>
</g>
<g>
</g>
<g>
</g>
<g>
</g>
<g>
</g>
<g>
</g>
<g>
</g>
<g>
</g>
<g>
</g>
<g>
</g>
<g>
</g>
<g>
</g>
<g>
</g>
<g>
</g>
</svg>
