<svg width="192" height="203" viewBox="0 0 192 203" fill="none" xmlns="http://www.w3.org/2000/svg">
<path fill-rule="evenodd" clip-rule="evenodd" d="M2.57905 76.2221L21.8791 42.7935L41.1788 9.36529C44.6175 3.40913 50.5223 0 57.3999 0H96H134.6C141.478 0 147.382 3.40913 150.821 9.36529L170.121 42.7935L189.421 76.2221C192.86 82.1783 192.86 88.9965 189.421 94.9527L170.121 128.381L150.821 161.809C147.382 167.766 141.478 171.175 134.6 171.175H96H57.3999C50.5223 171.175 44.6175 167.766 41.1788 161.809L21.8791 128.381L2.57905 94.9527C-0.859684 88.9965 -0.859684 82.1783 2.57905 76.2221Z" fill="white"/>
<path d="M84.3708 124.821C83.8781 124.656 82.8919 124.273 81.9604 123.397C81.0294 122.465 80.591 121.479 80.4263 120.986C80.4808 97.3219 80.4808 73.6578 80.536 50.0482C80.6457 49.6101 80.9197 48.7336 81.6865 47.8571C82.4532 46.9806 83.3296 46.597 83.7132 46.4879C86.7261 46.4879 89.6841 46.4332 92.697 46.4332C92.697 32.41 92.697 18.4416 92.697 4.41837L56.3244 4.41886C54.9552 4.63811 52.6544 5.13097 50.1893 6.71955C47.2861 8.58224 45.6975 10.9921 44.9852 12.2523C38.0283 24.6322 9.05093 74.1515 4.88755 81.2728L4.83287 81.3275C4.55893 82.1493 4.17529 83.4639 4.17529 85.0525C4.17529 86.86 4.55893 88.2844 4.88755 89.1609L4.94208 89.2154C27.0176 128.546 32.6598 138.461 43.8343 158.291C44.4368 159.386 45.9157 161.961 48.8741 164.042C50.5724 165.247 52.2702 165.905 53.5304 166.288C55.5026 166.288 57.4743 166.288 59.4466 166.342C59.4466 154.894 59.4466 143.445 59.4466 131.997V128.929C59.7752 128.875 60.1588 128.819 60.597 128.819C61.0353 128.819 61.419 128.874 61.8021 128.929C61.8566 141.419 61.9116 153.853 62.0214 166.342C64.4319 166.342 66.8965 166.342 69.3069 166.342C69.3069 152.209 69.3616 138.132 69.3616 123.999C61.6377 120.055 53.914 116.056 46.1902 112.112V90.2011C45.8617 90.1466 44.6016 89.8174 43.7251 88.667C42.7391 87.4071 42.8488 85.9832 42.9033 85.7091C42.9033 85.3254 43.013 84.0108 44.1082 82.9156C45.423 81.5462 47.1759 81.6009 47.4498 81.6009C47.7237 81.6009 49.422 81.6554 50.6817 83.0798C51.7224 84.2847 51.6679 85.7091 51.6679 86.0377C51.6679 86.4214 51.6132 87.6263 50.7367 88.7767C49.9149 89.8174 48.8196 90.1461 48.436 90.2556C48.436 97.103 48.436 103.895 48.4905 110.743L71.3878 122.41C71.4425 137.091 71.4425 151.717 71.4975 166.397C74.5105 166.397 77.5781 166.397 80.5905 166.397C80.5905 155.496 80.5905 144.596 80.5905 133.694C80.7003 133.585 81.0834 133.311 81.6865 133.366C82.1791 133.366 82.5083 133.64 82.6175 133.694C82.7272 144.596 82.7817 155.496 82.8914 166.397C86.3425 166.397 89.7933 166.397 93.2446 166.397C93.2446 152.593 93.2446 138.789 93.2446 124.985C90.2871 124.93 87.3287 124.875 84.3708 124.821ZM69.4713 69.9331C69.4713 75.7943 69.4713 81.6009 69.4713 87.4621C65.4726 88.9409 61.419 90.42 57.4198 91.8444C57.4198 94.2548 57.4198 96.1169 57.4198 97.4316C57.4198 100.499 57.4198 100.992 57.4198 102.088C57.4198 102.854 57.3651 104.06 57.4198 105.758C57.4198 106.415 57.4743 106.908 57.4743 107.237C59.0631 108.059 60.7062 108.88 62.2948 109.702C65.2527 111.236 68.2111 112.715 71.1691 114.248C71.1691 114.248 72.0454 114.577 72.1551 114.961C72.3195 115.508 72.0454 116.056 71.6072 116.275C71.2236 116.494 70.3471 116.221 70.3471 116.221C70.3471 116.221 67.9917 115.18 66.7868 114.632C65.1435 113.81 63.5549 113.043 62.076 112.221C59.7752 111.126 57.5295 110.03 55.2287 108.935C55.2287 97.4311 55.2287 85.9275 55.2287 74.3694C55.2287 69.2205 55.2287 64.0709 55.2287 58.9218C53.2564 58.2643 51.8871 56.4568 51.9418 54.5397C51.9963 52.2389 53.914 50.1574 56.3786 50.1574C58.8437 50.1574 60.7062 52.2939 60.7062 54.5943C60.7062 56.5115 59.3915 58.3195 57.4743 58.9765C57.4743 69.0011 57.4743 79.0801 57.4743 89.1043C60.7614 88.0084 64.0478 86.9132 67.3347 85.7628C67.3347 85.0505 67.3347 78.0936 67.3347 77.3268C67.3347 76.779 67.3347 70.4795 67.3347 69.8771C65.4721 69.2745 64.1575 67.5762 64.0478 65.7687C63.9381 63.4133 65.8553 61.1125 68.3754 61.1125C70.9501 61.1125 72.8674 63.4679 72.7577 65.7687C72.6484 67.6874 71.3338 69.3305 69.4713 69.9331Z" fill="#2C427C"/>
<path d="M68.4305 67.7424C69.6102 67.7424 70.5665 66.7861 70.5665 65.6064C70.5665 64.4268 69.6102 63.4705 68.4305 63.4705C67.2509 63.4705 66.2946 64.4268 66.2946 65.6064C66.2946 66.7861 67.2509 67.7424 68.4305 67.7424Z" fill="#2C427C"/>
<path d="M56.2699 56.7866C57.4495 56.7866 58.4058 55.8303 58.4058 54.6507C58.4058 53.471 57.4495 52.5147 56.2699 52.5147C55.0902 52.5147 54.1339 53.471 54.1339 54.6507C54.1339 55.8303 55.0902 56.7866 56.2699 56.7866Z" fill="#2C427C"/>
<path d="M47.286 88.0098C48.4656 88.0098 49.4219 87.0535 49.4219 85.8739C49.4219 84.6942 48.4656 83.7379 47.286 83.7379C46.1063 83.7379 45.15 84.6942 45.15 85.8739C45.15 87.0535 46.1063 88.0098 47.286 88.0098Z" fill="#2C427C"/>
<path d="M187.299 81.2176L187.244 81.1079C187.244 81.1079 150.762 14.7167 146.106 10.061C144.353 8.30817 142.436 6.93883 142.436 6.93883C140.628 5.6787 138.82 4.91208 137.396 4.36404C124.688 4.36404 111.979 4.36404 99.2704 4.36404C99.2704 18.3872 99.2704 32.3559 99.325 46.3791C102.228 46.3791 105.077 46.3791 107.98 46.3791C108.418 46.4336 109.514 46.653 110.555 47.584C111.541 48.4605 111.869 49.4466 111.979 49.8849C111.979 56.6776 111.979 63.4152 111.924 70.2074H104.803V52.4045H87.5481V118.412H104.803V99.1303L111.924 99.1848V120.822C111.76 121.37 111.432 122.191 110.719 123.068C109.898 124.109 108.912 124.656 108.364 124.93C105.077 124.93 101.736 124.93 98.4491 124.93C98.4491 138.735 98.4491 152.538 98.4491 166.343H109.405V134.024C109.405 133.969 109.733 133.421 110.336 133.312C110.829 133.257 111.322 133.531 111.596 134.024V166.343H117.621L117.676 121.041C121.346 120.877 127.919 120.055 133.014 115.563C134.164 114.523 134.986 113.591 135.15 113.318C138.93 108.716 139.587 103.512 139.861 101.157C140.025 99.897 140.025 98.8563 140.025 98.0895V89.7086C140.518 89.1062 141.23 88.2297 142.271 87.3532C143.312 86.5314 144.736 85.3263 146.927 84.8882C147.639 84.7239 149.009 84.5045 150.597 84.9979C151.528 85.3263 152.241 85.7647 152.679 86.1483C152.295 86.8604 151.638 87.7914 150.597 88.7231C148.954 90.1474 147.201 90.6953 146.215 90.9141C146.818 91.4069 147.584 92.2289 148.296 93.3246C148.789 94.0914 149.063 94.749 149.283 95.3515C148.296 95.5708 146.16 95.9539 143.914 94.9679C143.202 94.694 142.654 94.3103 142.161 93.9817C142.107 95.7347 142.052 97.4875 142.052 99.2405C141.832 101.815 141.394 103.842 141.011 105.321C140.244 108.17 139.313 111.511 136.629 114.798C135.807 115.838 135.095 116.605 134.547 116.989C132.356 118.632 129.069 120.659 124.797 121.919C122.989 122.467 121.345 122.741 119.812 122.905C119.812 137.366 119.757 151.828 119.757 166.289L129.344 166.288C129.344 154.128 129.344 142.022 129.344 129.861C129.508 129.368 129.946 129.039 130.494 129.039C130.987 129.039 131.425 129.423 131.535 129.861V166.343H137.506C138.711 166.014 140.519 165.357 142.436 164.042C144.408 162.673 145.668 161.139 146.38 160.098C152.296 151.662 179.466 102.307 187.025 88.996C187.353 88.1195 187.737 86.7502 187.737 85.0519C187.956 83.4638 187.627 82.0941 187.299 81.2176ZM142.381 66.2634C140.847 67.3041 139.532 67.9617 138.929 68.126C137.889 68.3999 136.957 68.4546 136.3 68.3999C136.3 73.4398 136.3 78.4791 136.3 83.519C136.684 82.7522 137.341 81.6018 138.601 80.7253C139.259 80.2871 139.97 79.7943 140.956 79.7943C141.887 79.8488 142.545 80.2871 142.874 80.5611C142.654 81.1089 142.107 82.4236 140.792 83.4643C138.875 84.9433 136.738 84.779 136.246 84.7244C136.246 88.6684 136.246 92.6125 136.246 96.5565C136.136 97.6522 135.917 99.2405 135.533 101.103C134.767 104.554 134.109 107.402 132.082 110.251C131.26 111.401 128.467 115.291 123.646 116.222C122.55 116.441 121.619 116.441 120.962 116.386C120.579 116.167 120.305 115.784 120.36 115.346C120.36 114.907 120.634 114.524 121.017 114.359C121.784 114.359 122.825 114.305 124.085 113.921C124.249 113.867 125.783 113.319 127.372 112.223C127.974 111.785 130.166 110.032 132.028 105.54C133.781 101.267 134.165 97.159 134.109 94.0364C133.671 94.3103 133.014 94.6388 132.192 94.9674C130.385 95.6795 128.851 95.7342 128.248 95.7342C126.55 95.7342 125.235 95.4056 124.359 95.0766C124.633 94.4189 125.126 93.3781 126.221 92.4471C128.194 90.6943 130.604 90.7488 131.206 90.804C131.425 90.804 132.028 90.804 132.302 90.804C132.905 90.804 133.562 90.804 134.165 90.804C134.165 90.256 134.165 89.7081 134.165 89.1607C133.124 89.1607 132.083 89.1607 131.043 89.1607C130.44 89.1607 127.427 89.2153 125.017 86.9151C123.319 85.2168 122.826 83.2449 122.716 82.5328C123.702 82.3134 124.524 82.2589 125.291 82.2589C128.632 82.2042 131.043 83.519 131.481 83.7929C132.138 84.1766 133.179 84.8336 134.165 85.9294V81.5471C133.398 81.3279 132.028 80.8895 130.659 79.7396C130.111 79.3014 129.07 78.3704 128.303 76.7818C127.537 75.0835 127.537 73.55 127.646 72.7832C128.413 72.8929 129.618 73.1668 130.823 73.8789C131.754 74.427 132.357 75.0293 132.576 75.3033C133.507 76.344 134 77.4399 134.219 78.152C134.219 73.6602 134.165 69.1682 134.165 64.6769C132.905 64.6222 132.028 64.2385 131.535 64.0191C129.399 62.9784 127.81 60.7874 127.646 58.4866C127.591 58.0484 127.646 57.6648 127.646 57.4458C127.865 57.4458 128.194 57.3912 128.577 57.4458C130.22 57.5555 131.37 58.2677 131.973 58.706C133.014 59.3636 133.726 60.1303 134.219 60.7327C134.219 58.3774 134.219 56.0765 134.219 53.7211C134.438 53.3375 134.876 53.0636 135.314 53.0636C135.753 53.0636 136.191 53.283 136.41 53.7211C136.41 58.1579 136.41 62.5953 136.41 67.0873C136.903 66.0465 137.78 64.5676 139.314 63.253C140.026 62.705 141.012 61.8837 142.545 61.5C143.641 61.2261 144.572 61.2806 145.175 61.3358C144.572 64.182 143.422 65.5512 142.381 66.2634Z" fill="#00904C"/>
<path d="M14.6492 193.466L20.1431 195.123C19.7748 196.661 19.1944 197.95 18.3968 198.979C17.6038 200.012 16.6221 200.791 15.4421 201.315C14.2669 201.839 12.7708 202.103 10.9536 202.103C8.7447 202.103 6.94656 201.782 5.54478 201.145C4.14768 200.503 2.94407 199.375 1.92927 197.766C0.914645 196.156 0.404907 194.089 0.404907 191.578C0.404907 188.227 1.29695 185.65 3.08104 183.847C4.86981 182.049 7.39492 181.147 10.6609 181.147C13.2144 181.147 15.225 181.662 16.6881 182.695C18.1466 183.729 19.2368 185.315 19.9448 187.458L14.4226 188.68C14.2291 188.067 14.0262 187.618 13.8138 187.335C13.4598 186.858 13.0303 186.49 12.5253 186.235C12.0155 185.976 11.4493 185.848 10.8215 185.848C9.39609 185.848 8.30587 186.419 7.55062 187.557C6.97951 188.402 6.69169 189.733 6.69169 191.54C6.69169 193.787 7.03152 195.321 7.71586 196.156C8.40019 196.987 9.35829 197.402 10.5948 197.402C11.7938 197.402 12.6999 197.067 13.3135 196.392C13.9271 195.722 14.3707 194.745 14.6492 193.466ZM23.1684 181.487H39.9331V185.82H29.4552V189.048H39.1685V193.183H29.4552V197.176H40.2447V201.763H23.1684V181.487ZM53.8142 194.429V190.209H63.4992V198.832C61.6444 200.097 60.0066 200.961 58.5859 201.419C57.1606 201.877 55.4708 202.103 53.5168 202.103C51.1098 202.103 49.1462 201.693 47.6312 200.871C46.1162 200.055 44.941 198.832 44.1055 197.209C43.2702 195.59 42.8548 193.726 42.8548 191.625C42.8548 189.412 43.3127 187.491 44.2236 185.853C45.1345 184.22 46.4701 182.979 48.2306 182.129C49.6041 181.473 51.4543 181.147 53.7764 181.147C56.0137 181.147 57.6892 181.35 58.7983 181.756C59.9121 182.162 60.8326 182.79 61.5641 183.644C62.2956 184.498 62.8478 185.579 63.2161 186.887L57.1842 187.972C56.934 187.203 56.5139 186.613 55.9192 186.207C55.3245 185.796 54.5694 185.593 53.6442 185.593C52.2756 185.593 51.1805 186.07 50.3641 187.023C49.5474 187.977 49.1415 189.487 49.1415 191.55C49.1415 193.74 49.5523 195.307 50.3781 196.246C51.1994 197.185 52.351 197.657 53.8237 197.657C54.5222 197.657 55.1877 197.558 55.8249 197.355C56.4574 197.152 57.1842 196.808 58.0053 196.326V194.429H53.8142ZM79.6833 198.422H72.5847L71.5652 201.763H65.1699L72.802 181.487H79.6597L87.2586 201.763H80.6981L79.6833 198.422ZM78.3571 194.032L76.1435 186.745L73.9204 194.032H78.3571ZM89.2646 181.487H104.755V185.848H95.5514V189.388H103.424V193.494H95.5514V201.763H89.2646V181.487ZM108.38 181.487H114.666V201.763H108.38V181.487ZM122.19 181.147H125.036L119.924 202.103H117.078L122.19 181.147ZM140.21 181.487H146.469V193.565C146.469 194.759 146.28 195.892 145.907 196.954C145.534 198.021 144.949 198.95 144.151 199.748C143.353 200.546 142.518 201.103 141.645 201.428C140.427 201.877 138.964 202.103 137.26 202.103C136.274 202.103 135.198 202.033 134.032 201.896C132.866 201.759 131.889 201.485 131.106 201.074C130.322 200.664 129.605 200.083 128.958 199.328C128.307 198.573 127.863 197.794 127.622 196.992C127.235 195.703 127.042 194.561 127.042 193.565V181.487H133.3V193.853C133.3 194.958 133.607 195.821 134.216 196.439C134.829 197.063 135.679 197.374 136.765 197.374C137.836 197.374 138.681 197.067 139.294 196.454C139.903 195.845 140.21 194.976 140.21 193.853V181.487ZM150.235 187.066H155.483V189.459C156.267 188.477 157.055 187.779 157.857 187.359C158.66 186.939 159.632 186.726 160.784 186.726C162.341 186.726 163.554 187.189 164.437 188.119C165.315 189.044 165.753 190.478 165.753 192.418V201.763H160.09V193.678C160.09 192.753 159.92 192.102 159.58 191.72C159.24 191.337 158.763 191.144 158.15 191.144C157.475 191.144 156.923 191.403 156.503 191.918C156.083 192.437 155.87 193.362 155.87 194.703V201.763H150.235V187.066ZM169.52 181.487H181.258C183.212 181.487 184.713 181.973 185.761 182.941C186.809 183.908 187.332 185.107 187.332 186.537C187.332 187.736 186.96 188.765 186.209 189.619C185.714 190.195 184.982 190.644 184.024 190.979C185.482 191.328 186.549 191.927 187.238 192.782C187.922 193.636 188.267 194.707 188.267 195.996C188.267 197.048 188.022 197.992 187.535 198.832C187.045 199.673 186.374 200.333 185.529 200.824C185.001 201.126 184.208 201.348 183.146 201.485C181.735 201.669 180.8 201.763 180.338 201.763H169.52V181.487ZM175.835 189.445H178.568C179.545 189.445 180.229 189.275 180.612 188.94C180.994 188.6 181.187 188.114 181.187 187.477C181.187 186.887 180.994 186.424 180.612 186.094C180.229 185.759 179.559 185.593 178.61 185.593H175.835V189.445ZM175.835 197.402H179.03C180.111 197.402 180.871 197.209 181.315 196.827C181.758 196.444 181.98 195.935 181.98 195.288C181.98 194.688 181.763 194.207 181.324 193.844C180.885 193.48 180.116 193.296 179.016 193.296H175.835V197.402Z" fill="#2C427C"/>
</svg>
