<svg width="28" height="28" viewBox="0 0 28 28" fill="none" xmlns="http://www.w3.org/2000/svg">
<path d="M24 5.7371C24 6.79642 20.9492 7.64388 17.178 7.64388C13.4068 7.64388 10.356 6.79642 10.356 5.7371C10.356 4.67778 13.4068 3.83032 17.178 3.83032C20.9492 3.83032 24 4.67778 24 5.7371Z" stroke="#25282B" stroke-miterlimit="10" stroke-linecap="round"/>
<path d="M24.0001 9.12695C24.0001 10.1863 20.9492 11.0337 17.178 11.0337C16.4577 11.0337 15.7797 10.9914 15.1018 10.949C15.017 10.949 10.9492 10.4405 10.9069 10.3981" stroke="#25282B" stroke-miterlimit="10" stroke-linecap="round"/>
<path d="M24 12.8135C24 13.8304 21.1187 14.6779 17.517 14.7203" stroke="#25282B" stroke-miterlimit="10" stroke-linecap="round"/>
<path d="M24 16.4998C24 17.5167 21.161 18.3218 17.6017 18.4065" stroke="#25282B" stroke-miterlimit="10" stroke-linecap="round"/>
<path d="M10.356 6.33032V10.6524" stroke="#25282B" stroke-miterlimit="10" stroke-linecap="round"/>
<path d="M23.9999 6.33032V16.4574" stroke="#25282B" stroke-miterlimit="10" stroke-linecap="round"/>
<path d="M17.4322 17.4324C17.4322 21.1612 14.4237 24.1696 10.6949 24.1696C7.00847 24.1696 4 21.1612 4 17.4324C4 13.7035 7.00847 10.6951 10.7373 10.6951C14.4237 10.7374 17.4322 13.7459 17.4322 17.4324Z" stroke="#25282B" stroke-miterlimit="10" stroke-linecap="round"/>
<path d="M12.0235 18.1278C12.1201 18.2464 12.1904 18.3806 12.2309 18.5461C12.1846 18.3949 12.1146 18.2557 12.0235 18.1278Z" stroke="#25282B"/>
</svg>
