<svg id="Capa_1" enable-background="new 0 0 512 512" height="512" viewBox="0 0 512 512" width="512" xmlns="http://www.w3.org/2000/svg"><g><g><g><g><g><g><g><g><g><g><path d="m63.757 425.057c-39.686-45.094-63.757-104.264-63.757-169.057 0-64.689 23.994-123.774 63.567-168.841l99.507-69.772c28.807-11.226 60.147-17.387 92.926-17.387 32.784 0 64.128 6.162 92.938 17.392l99.468 69.736c39.589 45.07 63.594 104.168 63.594 168.872 0 64.69-23.994 123.775-63.569 168.843l-99.399 69.728c-28.835 11.253-60.212 17.429-93.032 17.429-33.275 0-65.066-6.348-94.23-17.9z" fill="#ffce00"/></g></g></g></g></g></g></g></g></g><path d="m447.624 425.758c40.055-45.181 64.376-104.629 64.376-169.758 0-64.629-23.949-123.664-63.456-168.715l-.001-.001-60.089 155.378-225.304-225.304-51.249 415.761 50.039 61.048c29.117 11.509 60.85 17.833 94.06 17.833 32.959 0 64.464-6.229 93.401-17.573z" fill="#ffa300"/><g><path d="m63.457 424.716c26.9 30.675 61.014 54.866 99.692 69.926v-477.284c-38.678 15.06-72.792 39.251-99.692 69.926z" fill="#c38778"/></g><g><path d="m348.85 17.358v477.283c38.678-15.06 72.792-39.251 99.692-69.926v-337.431c-26.9-30.675-61.013-54.866-99.692-69.926z" fill="#a65d4e"/></g><g><path d="m219.249 389.382c-59.876 0-120.418-32.35-180.422-96.52l21.913-20.49c63.033 67.411 125.053 95.859 184.331 84.551 128.222-24.456 208.274-224.383 209.068-226.4l27.922 10.97c-.864 2.2-21.594 54.524-59.887 110.875-22.682 33.379-46.851 61.204-71.833 82.703-31.994 27.531-65.499 44.793-99.584 51.308-10.475 2.002-20.986 3.003-31.508 3.003z" fill="#2cc47f"/></g><g><path d="m454.139 130.523c-.772 1.96-76.389 190.8-198.32 223.909v30.892c32.34-7.203 64.114-24.086 94.523-50.253 24.983-21.499 49.151-49.324 71.833-82.703 38.292-56.351 59.023-108.675 59.887-110.875z" fill="#06b26b"/></g><g><path d="m366.854 419.538c-44.139 0-91.105-23.966-139.878-71.439-145.673-141.789-187.331-194.827-189.034-197.015l23.681-18.418c.402.515 42.641 54.128 186.278 193.935 47.728 46.456 91.749 67.366 130.847 62.151 44.88-5.986 68.386-44.957 68.618-45.35l25.828 15.262c-1.251 2.117-31.314 51.933-90.48 59.825-5.242.699-10.534 1.049-15.86 1.049z" fill="#079e59"/></g><g><path d="m447.366 343.402c-.232.393-23.738 39.363-68.618 45.35-36.926 4.925-78.245-13.466-122.929-54.659v39.494c38.477 30.544 75.665 45.951 111.036 45.951 5.326 0 10.618-.35 15.859-1.049 59.166-7.892 89.229-57.708 90.48-59.825z" fill="#037c42"/></g><g><path d="m372.368 285.908-11.575-4.399c-23.882-9.076-35.885-35.793-26.81-59.676l4.399-11.575 11.575 4.399c23.882 9.076 35.885 35.793 26.81 59.676z" fill="#037c42"/></g><g><path d="m140.66 350.688-10.724-6.191c-22.126-12.774-29.707-41.066-16.932-63.192l6.191-10.724 10.724 6.191c22.126 12.774 29.707 41.066 16.932 63.192z" fill="#079e59"/></g><g><path d="m115.285 223.586-6.923-8.232c-14.285-16.984-12.097-42.332 4.887-56.617l8.232-6.923 6.923 8.232c14.285 16.984 12.097 42.332-4.887 56.617z" fill="#2cc47f"/></g><g><path d="m314.919 459.254v-10.756c0-22.193 17.991-40.183 40.183-40.183h10.756v10.756c0 22.193-17.991 40.183-40.183 40.183z" fill="#06b26b"/></g><g><path d="m205.203 303.079-6.923-8.232c-14.285-16.984-12.097-42.332 4.887-56.617l8.232-6.923 6.923 8.232c14.285 16.984 12.097 42.332-4.887 56.617z" fill="#2cc47f"/></g><g><path d="m489.232 230.525-5.57 11.059c-11.493 22.818-39.307 31.998-62.125 20.505l-11.059-5.57 5.57-11.059c11.493-22.818 39.307-31.998 62.125-20.505z" fill="#037c42"/></g><g><path d="m196.043 377.015-4.588 11.501c-9.465 23.731-36.376 35.295-60.106 25.829l-11.501-4.588 4.588-11.501c9.465-23.731 36.376-35.295 60.106-25.829z" fill="#079e59"/></g><g><path d="m403.781 357.327-9.624 7.791c-19.857 16.076-48.986 13.011-65.062-6.847l-7.791-9.624 9.624-7.792c19.857-16.076 48.986-13.011 65.062 6.847z" fill="#037c42"/></g></g></svg>