<?xml version="1.0" encoding="iso-8859-1"?>
<!-- Generator: Adobe Illustrator 19.0.0, SVG Export Plug-In . SVG Version: 6.00 Build 0)  -->
<svg version="1.1" id="Capa_1" xmlns="http://www.w3.org/2000/svg" xmlns:xlink="http://www.w3.org/1999/xlink" x="0px" y="0px"
	 viewBox="0 0 512 512" style="enable-background:new 0 0 512 512;" xml:space="preserve">
<g>
	<g>
		<path d="M366.97,73.04c-0.13-0.641-0.32-1.271-0.57-1.87c-0.25-0.61-0.56-1.19-0.92-1.73c-0.37-0.55-0.79-1.06-1.25-1.52
			c-2.319-2.32-5.77-3.39-9.02-2.73c-0.641,0.13-1.27,0.32-1.87,0.57c-0.61,0.25-1.19,0.559-1.73,0.92
			c-0.55,0.36-1.06,0.78-1.52,1.24c-0.46,0.46-0.88,0.97-1.24,1.52c-0.359,0.54-0.67,1.12-0.92,1.73
			c-0.25,0.6-0.439,1.229-0.57,1.87c-0.13,0.64-0.199,1.3-0.199,1.95c0,0.649,0.069,1.31,0.199,1.949
			c0.13,0.641,0.32,1.271,0.57,1.871c0.25,0.61,0.561,1.19,0.92,1.73c0.36,0.55,0.78,1.06,1.24,1.52c0.46,0.46,0.97,0.88,1.52,1.25
			c0.54,0.36,1.12,0.67,1.73,0.92c0.6,0.25,1.229,0.44,1.87,0.57c0.64,0.13,1.3,0.19,1.95,0.19c2.64,0,5.21-1.07,7.069-2.931
			c1.86-1.859,2.931-4.439,2.931-7.069C367.16,74.34,367.099,73.679,366.97,73.04z"/>
	</g>
</g>
<g>
	<g>
		<path d="M320.83,64.991H219.773c-5.523,0-10,4.478-10,10c0,5.523,4.477,10,10,10H320.83c5.522,0,10-4.478,10-10
			C330.83,69.469,326.352,64.991,320.83,64.991z"/>
	</g>
</g>
<g>
	<g>
		<path d="M226.84,109.06c-2.32-2.319-5.77-3.38-9.02-2.729c-0.64,0.13-1.27,0.319-1.87,0.569c-0.61,0.25-1.19,0.561-1.73,0.92
			c-0.55,0.36-1.06,0.78-1.52,1.24c-1.86,1.86-2.93,4.44-2.93,7.07c0,2.64,1.07,5.21,2.93,7.07c0.46,0.46,0.97,0.88,1.52,1.25
			c0.54,0.359,1.13,0.67,1.73,0.92s1.23,0.439,1.87,0.569c0.64,0.13,1.3,0.19,1.95,0.19c0.66,0,1.31-0.061,1.96-0.19
			c0.64-0.13,1.26-0.319,1.87-0.569c0.6-0.25,1.18-0.561,1.72-0.92c0.55-0.37,1.06-0.79,1.52-1.25c1.87-1.86,2.93-4.44,2.93-7.07
			S228.71,110.92,226.84,109.06z"/>
	</g>
</g>
<g>
	<g>
		<path d="M357.162,106.133H256.106c-5.523,0-10,4.478-10,10c0,5.523,4.477,10,10,10h101.056c5.522,0,10-4.477,10-10
			C367.162,110.611,362.685,106.133,357.162,106.133z"/>
	</g>
</g>
<g>
	<g>
		<path d="M135.998,41.552c-29.781,0-54.01,24.229-54.01,54.01s24.229,54.011,54.01,54.011c29.781,0,54.01-24.229,54.01-54.011
			C190.007,65.78,165.779,41.552,135.998,41.552z M135.998,129.572c-18.753,0-34.01-15.257-34.01-34.011
			c0-18.753,15.257-34.01,34.01-34.01c18.753,0,34.01,15.257,34.01,34.01C170.007,114.316,154.75,129.572,135.998,129.572z"/>
	</g>
</g>
<g>
	<g>
		<path d="M158.123,79.816c-3.906-3.904-10.238-3.904-14.143,0.001l-12.647,12.647l-6.606-2.701
			c-5.111-2.087-10.95,0.36-13.04,5.474c-2.09,5.111,0.36,10.95,5.473,13.04l12.76,5.216c1.225,0.5,2.508,0.743,3.782,0.743
			c2.603,0,5.161-1.017,7.073-2.929l17.348-17.348C162.028,90.054,162.028,83.722,158.123,79.816z"/>
	</g>
</g>
<g>
	<g>
		<path d="M366.96,206.48c-0.12-0.64-0.311-1.27-0.561-1.88c-0.25-0.6-0.56-1.18-0.92-1.72c-0.37-0.55-0.79-1.061-1.25-1.52
			c-0.46-0.46-0.97-0.88-1.52-1.25c-0.54-0.359-1.12-0.67-1.72-0.92c-0.61-0.25-1.24-0.439-1.87-0.569
			c-1.301-0.261-2.62-0.261-3.91,0c-0.641,0.13-1.27,0.319-1.87,0.569c-0.61,0.25-1.19,0.561-1.73,0.92
			c-0.55,0.37-1.06,0.79-1.52,1.25c-0.46,0.46-0.88,0.971-1.24,1.52c-0.359,0.54-0.67,1.12-0.92,1.72
			c-0.25,0.61-0.439,1.24-0.57,1.88c-0.13,0.641-0.199,1.301-0.199,1.95c0,0.65,0.069,1.311,0.199,1.95
			c0.131,0.64,0.32,1.27,0.57,1.87c0.251,0.61,0.561,1.19,0.921,1.73c0.36,0.551,0.78,1.06,1.24,1.52c0.46,0.46,0.97,0.88,1.52,1.24
			c0.54,0.359,1.12,0.67,1.73,0.92c0.6,0.25,1.229,0.449,1.87,0.569c0.64,0.13,1.3,0.2,1.95,0.2c0.649,0,1.31-0.07,1.96-0.2
			c0.63-0.12,1.26-0.319,1.87-0.569c0.6-0.25,1.18-0.561,1.72-0.92c0.55-0.36,1.06-0.78,1.52-1.24c0.46-0.46,0.88-0.97,1.25-1.52
			c0.36-0.54,0.67-1.12,0.91-1.73c0.25-0.601,0.45-1.23,0.57-1.87c0.13-0.64,0.2-1.3,0.2-1.95
			C367.16,207.781,367.09,207.12,366.96,206.48z"/>
	</g>
</g>
<g>
	<g>
		<path d="M320.83,198.43H219.773c-5.523,0-10,4.477-10,10c0,5.522,4.477,10,10,10H320.83c5.523,0,10-4.478,10-10
			C330.83,202.907,326.352,198.43,320.83,198.43z"/>
	</g>
</g>
<g>
	<g>
		<path d="M229.58,247.621c-0.13-0.641-0.32-1.271-0.57-1.87c-0.25-0.61-0.56-1.19-0.92-1.73c-0.37-0.55-0.78-1.059-1.25-1.52
			c-0.46-0.46-0.97-0.88-1.52-1.24c-0.54-0.36-1.12-0.67-1.72-0.92c-0.6-0.25-1.23-0.44-1.87-0.57c-1.29-0.26-2.62-0.26-3.91,0
			c-0.64,0.13-1.27,0.32-1.87,0.57s-1.19,0.56-1.73,0.92c-0.55,0.36-1.06,0.78-1.52,1.24s-0.88,0.97-1.24,1.52
			c-0.36,0.54-0.67,1.12-0.92,1.73c-0.25,0.6-0.44,1.23-0.57,1.87s-0.2,1.3-0.2,1.949c0,0.65,0.07,1.311,0.2,1.95
			c0.13,0.64,0.32,1.27,0.57,1.88c0.25,0.601,0.56,1.181,0.92,1.721c0.36,0.55,0.78,1.06,1.24,1.52c0.46,0.46,0.97,0.88,1.52,1.24
			c0.54,0.36,1.13,0.67,1.73,0.92s1.23,0.44,1.87,0.57s1.3,0.199,1.95,0.199c0.66,0,1.31-0.069,1.96-0.199
			c0.64-0.13,1.27-0.32,1.87-0.57c0.6-0.25,1.18-0.56,1.72-0.92c0.55-0.36,1.06-0.78,1.52-1.24c0.47-0.46,0.88-0.97,1.25-1.52
			c0.36-0.54,0.67-1.12,0.92-1.721c0.25-0.609,0.44-1.239,0.57-1.88c0.13-0.64,0.19-1.3,0.19-1.95
			C229.77,248.921,229.71,248.26,229.58,247.621z"/>
	</g>
</g>
<g>
	<g>
		<path d="M357.162,239.57H256.106c-5.523,0-10,4.478-10,10c0,5.523,4.477,10,10,10h101.056c5.522,0,10-4.477,10-10
			C367.162,244.048,362.685,239.57,357.162,239.57z"/>
	</g>
</g>
<g>
	<g>
		<path d="M135.998,174.99c-29.781,0-54.01,24.229-54.01,54.01s24.229,54.01,54.01,54.01c29.781,0,54.01-24.229,54.01-54.01
			C190.007,199.219,165.779,174.99,135.998,174.99z M135.998,263.01c-18.753,0-34.01-15.257-34.01-34.01s15.257-34.01,34.01-34.01
			c18.753,0,34.01,15.257,34.01,34.01S154.75,263.01,135.998,263.01z"/>
	</g>
</g>
<g>
	<g>
		<path d="M158.122,213.254c-3.905-3.903-10.237-3.903-14.142,0.001l-12.646,12.646l-6.607-2.7
			c-5.111-2.09-10.951,0.359-13.04,5.472c-2.09,5.112,0.36,10.95,5.472,13.04l12.76,5.217c1.225,0.501,2.509,0.744,3.782,0.744
			c2.603,0,5.161-1.017,7.073-2.929l17.348-17.348C162.027,223.492,162.027,217.16,158.122,213.254z"/>
	</g>
</g>
<g>
	<g>
		<path d="M229.58,381.05c-0.13-0.63-0.32-1.26-0.57-1.87c-0.25-0.6-0.56-1.18-0.92-1.72c-0.37-0.55-0.78-1.061-1.24-1.521
			c-0.47-0.46-0.98-0.88-1.52-1.25c-0.55-0.359-1.13-0.67-1.73-0.92c-0.6-0.25-1.23-0.439-1.87-0.569c-1.29-0.261-2.62-0.261-3.91,0
			c-0.64,0.13-1.27,0.319-1.87,0.569c-0.61,0.25-1.19,0.561-1.73,0.92c-0.55,0.37-1.06,0.79-1.52,1.25
			c-0.46,0.46-0.88,0.971-1.24,1.521c-0.36,0.54-0.67,1.12-0.92,1.72c-0.25,0.61-0.44,1.24-0.57,1.87c-0.13,0.65-0.2,1.31-0.2,1.96
			c0,0.65,0.07,1.309,0.2,1.95c0.13,0.64,0.32,1.27,0.57,1.87c0.25,0.609,0.56,1.189,0.92,1.729c0.36,0.55,0.78,1.061,1.24,1.521
			c1.86,1.859,4.44,2.93,7.07,2.93c2.64,0,5.21-1.07,7.07-2.93c0.46-0.46,0.88-0.971,1.25-1.521c0.36-0.54,0.67-1.12,0.92-1.729
			c0.25-0.601,0.44-1.23,0.57-1.87c0.13-0.641,0.19-1.3,0.19-1.95C229.77,382.36,229.71,381.7,229.58,381.05z"/>
	</g>
</g>
<g>
	<g>
		<path d="M135.998,308.428c-29.781,0-54.01,24.23-54.01,54.011s24.229,54.01,54.01,54.01c29.781,0,54.01-24.228,54.01-54.01
			C190.007,332.657,165.779,308.428,135.998,308.428z M135.998,396.448c-18.753,0-34.01-15.257-34.01-34.01
			c0-18.754,15.257-34.011,34.01-34.011c18.753,0,34.01,15.257,34.01,34.011C170.007,381.192,154.75,396.448,135.998,396.448z"/>
	</g>
</g>
<g>
	<g>
		<path d="M158.122,346.694c-3.905-3.905-10.237-3.905-14.142,0l-12.646,12.646l-6.607-2.7c-5.111-2.091-10.951,0.359-13.04,5.472
			c-2.09,5.112,0.36,10.95,5.472,13.04l12.76,5.217c1.225,0.501,2.509,0.744,3.782,0.744c2.603,0,5.161-1.017,7.073-2.929
			l17.348-17.348C162.027,356.931,162.027,350.599,158.122,346.694z"/>
	</g>
</g>
<g>
	<g>
		<path d="M509.071,325.154c3.905-3.905,3.905-10.237,0-14.143l-22.941-22.94c-3.906-3.904-10.236-3.904-14.143,0l-14.145,14.145
			c-9.179-5.855-19.249-10.432-29.958-13.475c0.582-2.423,0.887-4.922,0.887-7.451c0-14.926-10.293-27.492-24.152-30.98V10
			c0-5.523-4.478-10-10-10H56H10C4.477,0,0,4.478,0,10v438c0,5.522,4.477,10,10,10h46h244.055c20.079,32.384,55.945,54,96.77,54
			c62.741,0,113.784-51.043,113.784-113.783c0-21.345-5.913-41.333-16.179-58.421L509.071,325.154z M46,438H20V20h26V438z
			 M479.059,309.284l8.799,8.799l-5.309,5.311c-2.732-3.128-5.629-6.103-8.685-8.914L479.059,309.284z M384.941,280.098
			c0.008-0.076,0.023-0.149,0.032-0.225c0.039-0.322,0.083-0.643,0.147-0.957c0.01-0.051,0.025-0.1,0.036-0.151
			c0.074-0.343,0.158-0.682,0.261-1.013c0.003-0.011,0.008-0.022,0.011-0.033c1.522-4.847,6.056-8.373,11.399-8.373
			c6.585-0.001,11.944,5.357,11.944,11.944c0,1.388-0.225,2.622-0.577,3.704c-0.629-0.062-1.259-0.111-1.89-0.163
			c-0.273-0.023-0.545-0.05-0.819-0.071c-0.529-0.04-1.06-0.069-1.59-0.101c-0.439-0.027-0.876-0.059-1.316-0.081
			c-0.324-0.016-0.648-0.024-0.972-0.037c-1.586-0.066-3.179-0.108-4.781-0.108c-3.826,0-7.608,0.193-11.338,0.564
			c-0.041-0.124-0.085-0.248-0.122-0.374c-0.027-0.092-0.054-0.184-0.079-0.277c-0.062-0.232-0.114-0.466-0.162-0.702
			c-0.021-0.105-0.045-0.209-0.063-0.315c-0.042-0.239-0.072-0.48-0.099-0.721c-0.011-0.099-0.027-0.198-0.036-0.297
			c-0.029-0.338-0.046-0.678-0.046-1.02C384.881,280.888,384.902,280.49,384.941,280.098z M219.775,351.868h73.137
			c-0.658,1.476-1.286,2.965-1.881,4.467c-0.297,0.747-0.583,1.499-0.864,2.253c-0.008,0.021-0.016,0.041-0.024,0.062
			c-1.731,4.652-3.166,9.446-4.282,14.36h-29.755c-5.523,0-10,4.478-10,10c0,5.522,4.477,10,10,10h27.056
			c-0.021,0.448-0.033,0.898-0.048,1.347c-0.013,0.376-0.029,0.752-0.038,1.129c-0.022,0.91-0.035,1.82-0.035,2.732
			c0,0.909,0.013,1.817,0.035,2.725c0.01,0.402,0.027,0.801,0.041,1.202c0.017,0.484,0.032,0.968,0.055,1.452
			c0.025,0.537,0.058,1.072,0.09,1.606c0.02,0.325,0.039,0.649,0.062,0.974c0.044,0.639,0.096,1.277,0.151,1.913
			c0.016,0.188,0.033,0.377,0.05,0.565c0.068,0.745,0.143,1.488,0.226,2.229c0.003,0.032,0.007,0.064,0.011,0.096
			c0.752,6.702,2.087,13.23,3.956,19.531c0.056,0.19,0.112,0.379,0.169,0.568c0.168,0.557,0.34,1.113,0.517,1.666
			c0.131,0.412,0.266,0.823,0.402,1.234c0.115,0.348,0.23,0.696,0.349,1.043c0.254,0.745,0.517,1.488,0.786,2.227
			c0.008,0.022,0.015,0.043,0.023,0.065c0.083,0.229,0.161,0.459,0.246,0.686H66V20h318.618v231.741
			c-9.152,3.752-16.041,11.587-18.618,21.177c-0.05,0.184-0.102,0.368-0.149,0.553c-0.091,0.364-0.176,0.73-0.254,1.1
			c-0.092,0.429-0.173,0.862-0.247,1.297c-0.049,0.288-0.098,0.575-0.139,0.865c-0.084,0.586-0.15,1.177-0.201,1.773
			c-0.018,0.205-0.034,0.411-0.047,0.618c-0.048,0.716-0.081,1.437-0.081,2.166c0,0.573,0.02,1.144,0.051,1.714
			c0.009,0.165,0.022,0.329,0.034,0.493c0.029,0.426,0.067,0.851,0.114,1.274c0.018,0.159,0.034,0.318,0.054,0.477
			c0.067,0.533,0.144,1.064,0.237,1.591c0.005,0.028,0.008,0.056,0.013,0.084c0.105,0.588,0.229,1.171,0.367,1.751
			c0.005,0.022,0.008,0.044,0.014,0.066c-0.09,0.025-0.178,0.056-0.268,0.081c-1.043,0.299-2.079,0.616-3.109,0.944
			c-0.426,0.135-0.851,0.275-1.276,0.415c-0.79,0.262-1.576,0.533-2.359,0.812c-0.576,0.205-1.149,0.414-1.721,0.627
			c-0.76,0.285-1.518,0.575-2.27,0.876c-0.567,0.226-1.132,0.458-1.695,0.694c-0.474,0.198-0.946,0.402-1.417,0.607
			c-1.234,0.535-2.457,1.091-3.67,1.669c-0.171,0.082-0.344,0.161-0.515,0.243c-0.779,0.376-1.552,0.762-2.322,1.156
			c-0.067,0.034-0.133,0.069-0.2,0.104c-12.991,6.668-24.709,15.818-34.389,27.064c-2.176,2.528-4.231,5.144-6.164,7.836h-84.616
			c-5.523,0-10,4.478-10,10C209.775,347.39,214.252,351.868,219.775,351.868z M396.825,492c-40.99,0-75.917-26.436-88.641-63.152
			c-0.127-0.37-0.255-0.74-0.378-1.111c-0.124-0.373-0.245-0.746-0.365-1.121c-0.213-0.673-0.421-1.348-0.619-2.026
			c-0.038-0.128-0.077-0.255-0.114-0.383c-1.601-5.571-2.689-11.294-3.241-17.086c-0.008-0.089-0.016-0.179-0.024-0.269
			c-0.075-0.807-0.137-1.615-0.191-2.424c-0.014-0.209-0.027-0.418-0.04-0.627c-0.043-0.715-0.075-1.431-0.101-2.147
			c-0.008-0.231-0.02-0.461-0.026-0.692c-0.027-0.914-0.043-1.83-0.043-2.746c0-1.304,0.035-2.6,0.087-3.892
			c0.009-0.222,0.015-0.445,0.025-0.667c0.053-1.133,0.134-2.258,0.227-3.38c0.036-0.429,0.073-0.859,0.115-1.287
			c0.09-0.933,0.196-1.861,0.313-2.786c0.091-0.712,0.191-1.421,0.299-2.128c0.019-0.127,0.04-0.253,0.06-0.379
			c5.865-37.579,34.123-67.833,70.651-76.652c0.661-0.158,1.324-0.313,1.991-0.457c0.375-0.082,0.748-0.168,1.125-0.245
			c1.202-0.244,2.413-0.465,3.633-0.664c0.191-0.031,0.381-0.065,0.572-0.095c1.111-0.175,2.226-0.331,3.344-0.465
			c0.118-0.014,0.237-0.027,0.356-0.041c2.395-0.279,4.802-0.469,7.211-0.565c0.054-0.002,0.107-0.004,0.161-0.006
			c2.394-0.091,4.788-0.09,7.174-0.002c0.158,0.006,0.316,0.011,0.473,0.018c1.127,0.047,2.251,0.113,3.372,0.199
			c0.194,0.015,0.387,0.035,0.581,0.052c0.864,0.072,1.726,0.16,2.585,0.256c0.376,0.042,0.752,0.082,1.127,0.129
			c0.903,0.112,1.803,0.238,2.7,0.376c44.904,6.947,79.389,45.861,79.389,92.68C490.609,449.929,448.538,492,396.825,492z"/>
	</g>
</g>
<g>
	<g>
		<path d="M396.825,317.725c-0.618,0-1.232,0.002-1.847,0.022c-21.104,0.475-40.867,9.047-55.656,24.143
			c-14.825,15.134-22.99,35.138-22.99,56.328c0,44.384,36.109,80.493,80.493,80.493c20.057,0,39.275-7.423,54.12-20.904
			c16.636-15.123,26.248-36.676,26.373-59.188v-0.401C477.318,353.834,441.209,317.725,396.825,317.725z M437.496,443.005
			c-11.152,10.128-25.597,15.706-40.671,15.706c-33.356,0-60.493-27.137-60.493-60.493c0-18.519,8.547-35.258,21.895-46.41
			c2.256-0.246,4.395-1.26,6.003-2.869c0.46-0.46,0.88-0.97,1.25-1.52c0.258-0.387,0.48-0.804,0.683-1.228
			c6.264-3.73,13.238-6.369,20.663-7.624v60.051c0,5.522,4.478,10,10,10H456.4C454.094,421.752,447.486,433.923,437.496,443.005z
			 M406.825,388.62v-50.053c0.586,0.098,1.17,0.199,1.75,0.313c0.17,0.034,0.343,0.061,0.512,0.096
			c0.897,0.185,1.786,0.393,2.668,0.617c0.244,0.062,0.485,0.133,0.728,0.198c0.641,0.172,1.28,0.352,1.913,0.544
			c0.307,0.093,0.612,0.191,0.917,0.289c0.581,0.187,1.158,0.383,1.732,0.587c0.294,0.105,0.588,0.207,0.88,0.316
			c0.665,0.248,1.323,0.51,1.977,0.781c0.178,0.074,0.36,0.142,0.537,0.217c0.818,0.348,1.625,0.715,2.424,1.098
			c0.236,0.113,0.467,0.234,0.702,0.35c0.571,0.283,1.138,0.571,1.699,0.871c0.285,0.153,0.568,0.309,0.851,0.466
			c0.518,0.288,1.031,0.584,1.54,0.886c0.27,0.16,0.54,0.319,0.807,0.484c0.589,0.363,1.17,0.738,1.746,1.121
			c0.165,0.11,0.334,0.214,0.498,0.325c0.726,0.492,1.439,1.002,2.142,1.524c0.21,0.156,0.415,0.32,0.624,0.479
			c0.5,0.382,0.996,0.769,1.483,1.166c0.25,0.203,0.496,0.41,0.742,0.617c0.451,0.379,0.895,0.765,1.334,1.156
			c0.233,0.208,0.467,0.414,0.697,0.626c0.508,0.467,1.007,0.945,1.499,1.429c0.139,0.137,0.283,0.27,0.421,0.408
			c0.618,0.62,1.222,1.255,1.813,1.902c0.173,0.189,0.339,0.384,0.509,0.575c0.422,0.474,0.84,0.952,1.247,1.439
			c0.203,0.243,0.403,0.489,0.603,0.735c0.375,0.463,0.743,0.931,1.105,1.405c0.186,0.243,0.372,0.485,0.554,0.731
			c0.419,0.567,0.828,1.143,1.228,1.725c0.104,0.151,0.213,0.299,0.315,0.451c0.493,0.732,0.97,1.477,1.432,2.232
			c0.129,0.211,0.251,0.426,0.377,0.639c0.332,0.558,0.658,1.12,0.972,1.689c0.15,0.272,0.297,0.547,0.443,0.822
			c0.286,0.538,0.564,1.08,0.835,1.627c0.134,0.27,0.269,0.54,0.399,0.813c0.311,0.653,0.608,1.313,0.896,1.978
			c0.069,0.161,0.144,0.318,0.212,0.479c0.348,0.826,0.677,1.662,0.99,2.505c0.085,0.231,0.162,0.463,0.244,0.694
			c0.223,0.626,0.438,1.255,0.641,1.891c0.095,0.298,0.186,0.599,0.277,0.899c0.18,0.595,0.35,1.195,0.512,1.798
			c0.079,0.294,0.16,0.588,0.234,0.884c0.181,0.718,0.347,1.442,0.502,2.17c0.037,0.172,0.079,0.342,0.115,0.515
			c0.168,0.824,0.312,1.656,0.446,2.491H406.825z"/>
	</g>
</g>
<g>
</g>
<g>
</g>
<g>
</g>
<g>
</g>
<g>
</g>
<g>
</g>
<g>
</g>
<g>
</g>
<g>
</g>
<g>
</g>
<g>
</g>
<g>
</g>
<g>
</g>
<g>
</g>
<g>
</g>
</svg>
