<svg id="Capa_1" enable-background="new 0 0 512 512" height="512" viewBox="0 0 512 512" width="512" xmlns="http://www.w3.org/2000/svg"><g><g><g><g><g><g><g><g><g><circle cx="256" cy="256" fill="#ffce00" r="256"/></g></g></g></g></g></g></g></g><path d="m508.032 301.144-141.878-141.877-5.034 7.677-105.12-105.12-80.297 219.025 73.569 73.569-145.228 74.3 69.823 69.823c25.781 8.727 53.404 13.459 82.133 13.459 125.981 0 230.708-91.001 252.032-210.856z" fill="#ffa300"/><g><ellipse cx="318.302" cy="375.288" fill="#079e59" rx="127.059" ry="53.43"/></g><g><path d="m318.302 321.858c-22.635 0-43.884 2.492-62.292 6.855v93.15c18.407 4.363 39.656 6.855 62.292 6.855 70.173 0 127.059-23.921 127.059-53.43s-56.886-53.43-127.059-53.43z" fill="#037c42"/></g><g><path d="m241 246.274h30v201.534h-30z" fill="#2cc47f"/></g><g><path d="m256.01 246.274h14.99v201.534h-14.99z" fill="#06b26b"/></g><g><path d="m276.725 207.329c-7.349 0-14.351.913-20.725 2.564-6.374-1.651-13.376-2.564-20.725-2.564-29.55 0-64.015 40.981-63.06 66.882.671 18.192 33.51-.956 63.06-.956 7.349 0 14.351-.913 20.725-2.564 6.374 1.652 13.377 2.564 20.725 2.564 29.55 0 62.388 19.148 63.06.956.955-25.901-33.51-66.882-63.06-66.882z" fill="#fe6a16"/></g><g><path d="m276.725 207.33c-7.345 0-14.343.912-20.715 2.562v60.802c6.372 1.65 13.37 2.562 20.715 2.562 29.55 0 62.388 19.148 63.06.956.955-25.902-33.51-66.883-63.06-66.882z" fill="#f24500"/></g><g><path d="m300.709 214.206c0 24.83-32.673 44.959-72.977 44.959s-87.312-55.895-86.009-91.222c.915-24.813 45.705 1.303 86.009 1.303s72.977 20.129 72.977 44.96z" fill="#fe8205"/></g><g><path d="m211.291 214.206c0 24.83 32.673 44.959 72.977 44.959s87.312-55.895 86.009-91.222c-.915-24.813-45.705 1.303-86.009 1.303s-72.977 20.129-72.977 44.96z" fill="#fa5d0f"/></g><g><g><path d="m322.628 190.082c0 36.797-29.83 66.628-66.628 66.628s-66.628-29.83-66.628-66.628 66.628-128.258 66.628-128.258 66.628 91.46 66.628 128.258z" fill="#fe6a16"/></g><g><path d="m322.627 190.082c0-36.672-66.165-127.622-66.617-128.243v194.871c36.793-.007 66.617-29.835 66.617-66.628z" fill="#f24500"/></g><g><path d="m189.372 190.082c0 36.797 29.83 66.628 66.628 66.628 8.877 0 17.349-1.736 25.095-4.888 3.151-7.745 4.888-16.217 4.888-25.095 0-29.819-43.754-95.536-60.348-119.387-17.58 28.443-36.263 63.257-36.263 82.742z" fill="#f24500"/></g><g><path d="m285.982 226.727c0-17.167-14.5-46.228-29.972-72.352v102.334c8.874-.001 17.342-1.737 25.084-4.887 3.152-7.746 4.888-16.218 4.888-25.095z" fill="#c63605"/></g></g><g><ellipse cx="216.655" cy="403.957" fill="#06b26b" rx="127.059" ry="53.43"/></g><g><path d="m343.714 403.957c0-23.731-36.797-43.845-87.703-50.813v101.626c50.906-6.967 87.703-27.081 87.703-50.813z" fill="#079e59"/></g></g></svg>